M48
;DRILL file {KiCad (2017-08-02 revision 9760937)-master} date Saturday, September 16, 2017 'AMt' 10:46:43 AM
;FORMAT={-:-/ absolute / inch / decimal}
FMAT,2
INCH,TZ
T1C0.022
T2C0.024
T3C0.031
T4C0.032
T5C0.040
T6C0.055
T7C0.059
T8C0.138
%
G90
G05
M72
T1
X4.225Y-2.375
X4.725Y-2.625
X4.75Y-2.225
X4.75Y-2.525
X4.875Y-2.425
X5.Y-2.475
X5.2Y-2.3
X5.525Y-2.75
X5.525Y-3.075
X5.625Y-3.7
T2
X5.4Y-2.375
X4.65Y-2.65
X4.55Y-2.65
X4.6Y-2.65
X5.45Y-2.375
X5.5Y-2.375
X5.45Y-3.45
X5.5Y-3.45
X5.55Y-3.45
T3
X4.875Y-2.7
X4.875Y-3.
X4.975Y-2.7
X4.975Y-3.
X5.075Y-2.7
X5.075Y-3.
X5.175Y-2.7
X5.175Y-3.
T4
X4.4Y-2.2
X4.4Y-2.3
T5
X5.275Y-2.075
X5.375Y-2.075
X5.475Y-2.075
T6
X3.975Y-2.025
X3.975Y-2.175
X3.975Y-2.325
X3.975Y-2.475
X3.975Y-2.625
X3.975Y-2.775
X3.975Y-2.925
X3.975Y-3.075
X3.975Y-3.225
X3.975Y-3.375
X3.975Y-3.525
X3.975Y-3.675
X3.975Y-3.825
X3.975Y-3.975
X3.975Y-4.125
T7
X4.2157Y-3.2
X4.2157Y-3.4953
X4.4126Y-3.2
X4.4126Y-3.4953
X4.6094Y-3.2
X4.6094Y-3.4953
X5.2Y-3.2
X5.2Y-3.4953
X4.2157Y-3.75
X4.2157Y-4.0453
X4.4126Y-3.75
X4.4126Y-4.0453
X4.6094Y-3.75
X4.6094Y-4.0453
X5.2Y-3.75
X5.2Y-4.0453
T8
X5.75Y-3.975
X5.75Y-2.175
T0
M30
