G04 #@! TF.GenerationSoftware,KiCad,Pcbnew,(2017-08-02 revision 9760937)-master*
G04 #@! TF.CreationDate,2017-09-16T10:46:18-07:00*
G04 #@! TF.ProjectId,RCSMCtrl,5243534D4374726C2E6B696361645F70,NC*
G04 #@! TF.SameCoordinates,Original*
G04 #@! TF.FileFunction,Legend,Bot*
G04 #@! TF.FilePolarity,Positive*
%FSLAX46Y46*%
G04 Gerber Fmt 4.6, Leading zero omitted, Abs format (unit mm)*
G04 Created by KiCad (PCBNEW (2017-08-02 revision 9760937)-master) date Saturday, September 16, 2017 'AMt' 10:46:18 AM*
%MOMM*%
%LPD*%
G01*
G04 APERTURE LIST*
%ADD10C,0.300000*%
G04 APERTURE END LIST*
D10*
X128269285Y-90690000D02*
X128412142Y-90618571D01*
X128626428Y-90618571D01*
X128840714Y-90690000D01*
X128983571Y-90832857D01*
X129055000Y-90975714D01*
X129126428Y-91261428D01*
X129126428Y-91475714D01*
X129055000Y-91761428D01*
X128983571Y-91904285D01*
X128840714Y-92047142D01*
X128626428Y-92118571D01*
X128483571Y-92118571D01*
X128269285Y-92047142D01*
X128197857Y-91975714D01*
X128197857Y-91475714D01*
X128483571Y-91475714D01*
X127626428Y-90761428D02*
X127555000Y-90690000D01*
X127412142Y-90618571D01*
X127055000Y-90618571D01*
X126912142Y-90690000D01*
X126840714Y-90761428D01*
X126769285Y-90904285D01*
X126769285Y-91047142D01*
X126840714Y-91261428D01*
X127697857Y-92118571D01*
X126769285Y-92118571D01*
X125269285Y-92118571D02*
X125769285Y-91404285D01*
X126126428Y-92118571D02*
X126126428Y-90618571D01*
X125555000Y-90618571D01*
X125412142Y-90690000D01*
X125340714Y-90761428D01*
X125269285Y-90904285D01*
X125269285Y-91118571D01*
X125340714Y-91261428D01*
X125412142Y-91332857D01*
X125555000Y-91404285D01*
X126126428Y-91404285D01*
X123697857Y-90618571D02*
X123197857Y-92118571D01*
X122697857Y-90618571D01*
X121626428Y-92047142D02*
X121769285Y-92118571D01*
X122055000Y-92118571D01*
X122197857Y-92047142D01*
X122269285Y-91904285D01*
X122269285Y-91332857D01*
X122197857Y-91190000D01*
X122055000Y-91118571D01*
X121769285Y-91118571D01*
X121626428Y-91190000D01*
X121555000Y-91332857D01*
X121555000Y-91475714D01*
X122269285Y-91618571D01*
X120912142Y-92118571D02*
X120912142Y-91118571D01*
X120912142Y-91404285D02*
X120840714Y-91261428D01*
X120769285Y-91190000D01*
X120626428Y-91118571D01*
X120483571Y-91118571D01*
X120055000Y-92047142D02*
X119912142Y-92118571D01*
X119626428Y-92118571D01*
X119483571Y-92047142D01*
X119412142Y-91904285D01*
X119412142Y-91832857D01*
X119483571Y-91690000D01*
X119626428Y-91618571D01*
X119840714Y-91618571D01*
X119983571Y-91547142D01*
X120055000Y-91404285D01*
X120055000Y-91332857D01*
X119983571Y-91190000D01*
X119840714Y-91118571D01*
X119626428Y-91118571D01*
X119483571Y-91190000D01*
X118769285Y-92118571D02*
X118769285Y-91118571D01*
X118769285Y-90618571D02*
X118840714Y-90690000D01*
X118769285Y-90761428D01*
X118697857Y-90690000D01*
X118769285Y-90618571D01*
X118769285Y-90761428D01*
X117840714Y-92118571D02*
X117983571Y-92047142D01*
X118055000Y-91975714D01*
X118126428Y-91832857D01*
X118126428Y-91404285D01*
X118055000Y-91261428D01*
X117983571Y-91190000D01*
X117840714Y-91118571D01*
X117626428Y-91118571D01*
X117483571Y-91190000D01*
X117412142Y-91261428D01*
X117340714Y-91404285D01*
X117340714Y-91832857D01*
X117412142Y-91975714D01*
X117483571Y-92047142D01*
X117626428Y-92118571D01*
X117840714Y-92118571D01*
X116697857Y-91118571D02*
X116697857Y-92118571D01*
X116697857Y-91261428D02*
X116626428Y-91190000D01*
X116483571Y-91118571D01*
X116269285Y-91118571D01*
X116126428Y-91190000D01*
X116055000Y-91332857D01*
X116055000Y-92118571D01*
X126146428Y-96563571D02*
X126646428Y-95849285D01*
X127003571Y-96563571D02*
X127003571Y-95063571D01*
X126432142Y-95063571D01*
X126289285Y-95135000D01*
X126217857Y-95206428D01*
X126146428Y-95349285D01*
X126146428Y-95563571D01*
X126217857Y-95706428D01*
X126289285Y-95777857D01*
X126432142Y-95849285D01*
X127003571Y-95849285D01*
X124932142Y-96492142D02*
X125075000Y-96563571D01*
X125360714Y-96563571D01*
X125503571Y-96492142D01*
X125575000Y-96349285D01*
X125575000Y-95777857D01*
X125503571Y-95635000D01*
X125360714Y-95563571D01*
X125075000Y-95563571D01*
X124932142Y-95635000D01*
X124860714Y-95777857D01*
X124860714Y-95920714D01*
X125575000Y-96063571D01*
X124360714Y-95563571D02*
X124003571Y-96563571D01*
X123646428Y-95563571D01*
X123075000Y-96420714D02*
X123003571Y-96492142D01*
X123075000Y-96563571D01*
X123146428Y-96492142D01*
X123075000Y-96420714D01*
X123075000Y-96563571D01*
X121289285Y-96135000D02*
X120575000Y-96135000D01*
X121432142Y-96563571D02*
X120932142Y-95063571D01*
X120432142Y-96563571D01*
X128555000Y-99738571D02*
X128555000Y-98238571D01*
X128197857Y-98238571D01*
X127983571Y-98310000D01*
X127840714Y-98452857D01*
X127769285Y-98595714D01*
X127697857Y-98881428D01*
X127697857Y-99095714D01*
X127769285Y-99381428D01*
X127840714Y-99524285D01*
X127983571Y-99667142D01*
X128197857Y-99738571D01*
X128555000Y-99738571D01*
X127055000Y-99738571D02*
X127055000Y-98238571D01*
X126555000Y-99310000D01*
X126055000Y-98238571D01*
X126055000Y-99738571D01*
X124840714Y-98952857D02*
X125340714Y-98952857D01*
X125340714Y-99738571D02*
X125340714Y-98238571D01*
X124626428Y-98238571D01*
X124055000Y-98952857D02*
X123555000Y-98952857D01*
X123340714Y-99738571D02*
X124055000Y-99738571D01*
X124055000Y-98238571D01*
X123340714Y-98238571D01*
X121626428Y-98381428D02*
X121555000Y-98310000D01*
X121412142Y-98238571D01*
X121055000Y-98238571D01*
X120912142Y-98310000D01*
X120840714Y-98381428D01*
X120769285Y-98524285D01*
X120769285Y-98667142D01*
X120840714Y-98881428D01*
X121697857Y-99738571D01*
X120769285Y-99738571D01*
X119840714Y-98238571D02*
X119697857Y-98238571D01*
X119555000Y-98310000D01*
X119483571Y-98381428D01*
X119412142Y-98524285D01*
X119340714Y-98810000D01*
X119340714Y-99167142D01*
X119412142Y-99452857D01*
X119483571Y-99595714D01*
X119555000Y-99667142D01*
X119697857Y-99738571D01*
X119840714Y-99738571D01*
X119983571Y-99667142D01*
X120055000Y-99595714D01*
X120126428Y-99452857D01*
X120197857Y-99167142D01*
X120197857Y-98810000D01*
X120126428Y-98524285D01*
X120055000Y-98381428D01*
X119983571Y-98310000D01*
X119840714Y-98238571D01*
X117912142Y-99738571D02*
X118769285Y-99738571D01*
X118340714Y-99738571D02*
X118340714Y-98238571D01*
X118483571Y-98452857D01*
X118626428Y-98595714D01*
X118769285Y-98667142D01*
X117412142Y-98238571D02*
X116412142Y-98238571D01*
X117055000Y-99738571D01*
X106660000Y-103953571D02*
X105731428Y-103953571D01*
X106231428Y-104525000D01*
X106017142Y-104525000D01*
X105874285Y-104596428D01*
X105802857Y-104667857D01*
X105731428Y-104810714D01*
X105731428Y-105167857D01*
X105802857Y-105310714D01*
X105874285Y-105382142D01*
X106017142Y-105453571D01*
X106445714Y-105453571D01*
X106588571Y-105382142D01*
X106660000Y-105310714D01*
X104231428Y-105453571D02*
X104731428Y-104739285D01*
X105088571Y-105453571D02*
X105088571Y-103953571D01*
X104517142Y-103953571D01*
X104374285Y-104025000D01*
X104302857Y-104096428D01*
X104231428Y-104239285D01*
X104231428Y-104453571D01*
X104302857Y-104596428D01*
X104374285Y-104667857D01*
X104517142Y-104739285D01*
X105088571Y-104739285D01*
X106279000Y-100143571D02*
X105350428Y-100143571D01*
X105850428Y-100715000D01*
X105636142Y-100715000D01*
X105493285Y-100786428D01*
X105421857Y-100857857D01*
X105350428Y-101000714D01*
X105350428Y-101357857D01*
X105421857Y-101500714D01*
X105493285Y-101572142D01*
X105636142Y-101643571D01*
X106064714Y-101643571D01*
X106207571Y-101572142D01*
X106279000Y-101500714D01*
X103850428Y-101500714D02*
X103921857Y-101572142D01*
X104136142Y-101643571D01*
X104279000Y-101643571D01*
X104493285Y-101572142D01*
X104636142Y-101429285D01*
X104707571Y-101286428D01*
X104779000Y-101000714D01*
X104779000Y-100786428D01*
X104707571Y-100500714D01*
X104636142Y-100357857D01*
X104493285Y-100215000D01*
X104279000Y-100143571D01*
X104136142Y-100143571D01*
X103921857Y-100215000D01*
X103850428Y-100286428D01*
X106695714Y-96333571D02*
X105767142Y-96333571D01*
X106267142Y-96905000D01*
X106052857Y-96905000D01*
X105910000Y-96976428D01*
X105838571Y-97047857D01*
X105767142Y-97190714D01*
X105767142Y-97547857D01*
X105838571Y-97690714D01*
X105910000Y-97762142D01*
X106052857Y-97833571D01*
X106481428Y-97833571D01*
X106624285Y-97762142D01*
X106695714Y-97690714D01*
X105124285Y-97833571D02*
X105124285Y-96333571D01*
X104267142Y-97833571D01*
X104267142Y-96333571D01*
X106334571Y-92666428D02*
X106263142Y-92595000D01*
X106120285Y-92523571D01*
X105763142Y-92523571D01*
X105620285Y-92595000D01*
X105548857Y-92666428D01*
X105477428Y-92809285D01*
X105477428Y-92952142D01*
X105548857Y-93166428D01*
X106406000Y-94023571D01*
X105477428Y-94023571D01*
X103977428Y-94023571D02*
X104477428Y-93309285D01*
X104834571Y-94023571D02*
X104834571Y-92523571D01*
X104263142Y-92523571D01*
X104120285Y-92595000D01*
X104048857Y-92666428D01*
X103977428Y-92809285D01*
X103977428Y-93023571D01*
X104048857Y-93166428D01*
X104120285Y-93237857D01*
X104263142Y-93309285D01*
X104834571Y-93309285D01*
X106461571Y-88856428D02*
X106390142Y-88785000D01*
X106247285Y-88713571D01*
X105890142Y-88713571D01*
X105747285Y-88785000D01*
X105675857Y-88856428D01*
X105604428Y-88999285D01*
X105604428Y-89142142D01*
X105675857Y-89356428D01*
X106533000Y-90213571D01*
X105604428Y-90213571D01*
X104104428Y-90070714D02*
X104175857Y-90142142D01*
X104390142Y-90213571D01*
X104533000Y-90213571D01*
X104747285Y-90142142D01*
X104890142Y-89999285D01*
X104961571Y-89856428D01*
X105033000Y-89570714D01*
X105033000Y-89356428D01*
X104961571Y-89070714D01*
X104890142Y-88927857D01*
X104747285Y-88785000D01*
X104533000Y-88713571D01*
X104390142Y-88713571D01*
X104175857Y-88785000D01*
X104104428Y-88856428D01*
X106370285Y-85046428D02*
X106298857Y-84975000D01*
X106156000Y-84903571D01*
X105798857Y-84903571D01*
X105656000Y-84975000D01*
X105584571Y-85046428D01*
X105513142Y-85189285D01*
X105513142Y-85332142D01*
X105584571Y-85546428D01*
X106441714Y-86403571D01*
X105513142Y-86403571D01*
X104870285Y-86403571D02*
X104870285Y-84903571D01*
X104013142Y-86403571D01*
X104013142Y-84903571D01*
X105731428Y-82593571D02*
X106588571Y-82593571D01*
X106160000Y-82593571D02*
X106160000Y-81093571D01*
X106302857Y-81307857D01*
X106445714Y-81450714D01*
X106588571Y-81522142D01*
X104231428Y-82593571D02*
X104731428Y-81879285D01*
X105088571Y-82593571D02*
X105088571Y-81093571D01*
X104517142Y-81093571D01*
X104374285Y-81165000D01*
X104302857Y-81236428D01*
X104231428Y-81379285D01*
X104231428Y-81593571D01*
X104302857Y-81736428D01*
X104374285Y-81807857D01*
X104517142Y-81879285D01*
X105088571Y-81879285D01*
X105477428Y-78783571D02*
X106334571Y-78783571D01*
X105906000Y-78783571D02*
X105906000Y-77283571D01*
X106048857Y-77497857D01*
X106191714Y-77640714D01*
X106334571Y-77712142D01*
X103977428Y-78640714D02*
X104048857Y-78712142D01*
X104263142Y-78783571D01*
X104406000Y-78783571D01*
X104620285Y-78712142D01*
X104763142Y-78569285D01*
X104834571Y-78426428D01*
X104906000Y-78140714D01*
X104906000Y-77926428D01*
X104834571Y-77640714D01*
X104763142Y-77497857D01*
X104620285Y-77355000D01*
X104406000Y-77283571D01*
X104263142Y-77283571D01*
X104048857Y-77355000D01*
X103977428Y-77426428D01*
X105640142Y-74973571D02*
X106497285Y-74973571D01*
X106068714Y-74973571D02*
X106068714Y-73473571D01*
X106211571Y-73687857D01*
X106354428Y-73830714D01*
X106497285Y-73902142D01*
X104997285Y-74973571D02*
X104997285Y-73473571D01*
X104140142Y-74973571D01*
X104140142Y-73473571D01*
X115478000Y-65909000D02*
X114763714Y-65909000D01*
X115620857Y-66337571D02*
X115120857Y-64837571D01*
X114620857Y-66337571D01*
X114120857Y-64837571D02*
X114120857Y-66051857D01*
X114049428Y-66194714D01*
X113978000Y-66266142D01*
X113835142Y-66337571D01*
X113549428Y-66337571D01*
X113406571Y-66266142D01*
X113335142Y-66194714D01*
X113263714Y-66051857D01*
X113263714Y-64837571D01*
X112692285Y-64837571D02*
X111692285Y-66337571D01*
X111692285Y-64837571D02*
X112692285Y-66337571D01*
X111192285Y-64980428D02*
X111120857Y-64909000D01*
X110978000Y-64837571D01*
X110620857Y-64837571D01*
X110478000Y-64909000D01*
X110406571Y-64980428D01*
X110335142Y-65123285D01*
X110335142Y-65266142D01*
X110406571Y-65480428D01*
X111263714Y-66337571D01*
X110335142Y-66337571D01*
X109049428Y-65337571D02*
X109049428Y-66337571D01*
X109406571Y-64766142D02*
X109763714Y-65837571D01*
X108835142Y-65837571D01*
X106835142Y-64837571D02*
X106549428Y-64837571D01*
X106406571Y-64909000D01*
X106263714Y-65051857D01*
X106192285Y-65337571D01*
X106192285Y-65837571D01*
X106263714Y-66123285D01*
X106406571Y-66266142D01*
X106549428Y-66337571D01*
X106835142Y-66337571D01*
X106978000Y-66266142D01*
X107120857Y-66123285D01*
X107192285Y-65837571D01*
X107192285Y-65337571D01*
X107120857Y-65051857D01*
X106978000Y-64909000D01*
X106835142Y-64837571D01*
X104906571Y-65337571D02*
X104906571Y-66337571D01*
X105549428Y-65337571D02*
X105549428Y-66123285D01*
X105478000Y-66266142D01*
X105335142Y-66337571D01*
X105120857Y-66337571D01*
X104978000Y-66266142D01*
X104906571Y-66194714D01*
X104406571Y-65337571D02*
X103835142Y-65337571D01*
X104192285Y-64837571D02*
X104192285Y-66123285D01*
X104120857Y-66266142D01*
X103978000Y-66337571D01*
X103835142Y-66337571D01*
X105818714Y-62757857D02*
X106318714Y-62757857D01*
X106318714Y-63543571D02*
X106318714Y-62043571D01*
X105604428Y-62043571D01*
X104533000Y-62757857D02*
X104318714Y-62829285D01*
X104247285Y-62900714D01*
X104175857Y-63043571D01*
X104175857Y-63257857D01*
X104247285Y-63400714D01*
X104318714Y-63472142D01*
X104461571Y-63543571D01*
X105033000Y-63543571D01*
X105033000Y-62043571D01*
X104533000Y-62043571D01*
X104390142Y-62115000D01*
X104318714Y-62186428D01*
X104247285Y-62329285D01*
X104247285Y-62472142D01*
X104318714Y-62615000D01*
X104390142Y-62686428D01*
X104533000Y-62757857D01*
X105033000Y-62757857D01*
X106739428Y-59590714D02*
X106810857Y-59662142D01*
X107025142Y-59733571D01*
X107168000Y-59733571D01*
X107382285Y-59662142D01*
X107525142Y-59519285D01*
X107596571Y-59376428D01*
X107668000Y-59090714D01*
X107668000Y-58876428D01*
X107596571Y-58590714D01*
X107525142Y-58447857D01*
X107382285Y-58305000D01*
X107168000Y-58233571D01*
X107025142Y-58233571D01*
X106810857Y-58305000D01*
X106739428Y-58376428D01*
X106310857Y-58733571D02*
X105739428Y-58733571D01*
X106096571Y-58233571D02*
X106096571Y-59519285D01*
X106025142Y-59662142D01*
X105882285Y-59733571D01*
X105739428Y-59733571D01*
X105239428Y-59733571D02*
X105239428Y-58733571D01*
X105239428Y-59019285D02*
X105168000Y-58876428D01*
X105096571Y-58805000D01*
X104953714Y-58733571D01*
X104810857Y-58733571D01*
X104096571Y-59733571D02*
X104239428Y-59662142D01*
X104310857Y-59519285D01*
X104310857Y-58233571D01*
X107314857Y-54495000D02*
X107457714Y-54423571D01*
X107672000Y-54423571D01*
X107886285Y-54495000D01*
X108029142Y-54637857D01*
X108100571Y-54780714D01*
X108172000Y-55066428D01*
X108172000Y-55280714D01*
X108100571Y-55566428D01*
X108029142Y-55709285D01*
X107886285Y-55852142D01*
X107672000Y-55923571D01*
X107529142Y-55923571D01*
X107314857Y-55852142D01*
X107243428Y-55780714D01*
X107243428Y-55280714D01*
X107529142Y-55280714D01*
X106600571Y-55923571D02*
X106600571Y-54423571D01*
X105743428Y-55923571D01*
X105743428Y-54423571D01*
X105029142Y-55923571D02*
X105029142Y-54423571D01*
X104672000Y-54423571D01*
X104457714Y-54495000D01*
X104314857Y-54637857D01*
X104243428Y-54780714D01*
X104172000Y-55066428D01*
X104172000Y-55280714D01*
X104243428Y-55566428D01*
X104314857Y-55709285D01*
X104457714Y-55852142D01*
X104672000Y-55923571D01*
X105029142Y-55923571D01*
X108172000Y-51542142D02*
X107029142Y-51542142D01*
X107600571Y-52113571D02*
X107600571Y-50970714D01*
X106386285Y-50756428D02*
X106314857Y-50685000D01*
X106172000Y-50613571D01*
X105814857Y-50613571D01*
X105672000Y-50685000D01*
X105600571Y-50756428D01*
X105529142Y-50899285D01*
X105529142Y-51042142D01*
X105600571Y-51256428D01*
X106457714Y-52113571D01*
X105529142Y-52113571D01*
X104243428Y-51113571D02*
X104243428Y-52113571D01*
X104600571Y-50542142D02*
X104957714Y-51613571D01*
X104029142Y-51613571D01*
X129174285Y-83858571D02*
X129674285Y-83144285D01*
X130031428Y-83858571D02*
X130031428Y-82358571D01*
X129460000Y-82358571D01*
X129317142Y-82430000D01*
X129245714Y-82501428D01*
X129174285Y-82644285D01*
X129174285Y-82858571D01*
X129245714Y-83001428D01*
X129317142Y-83072857D01*
X129460000Y-83144285D01*
X130031428Y-83144285D01*
X127460000Y-82287142D02*
X128745714Y-84215714D01*
X126102857Y-83715714D02*
X126174285Y-83787142D01*
X126388571Y-83858571D01*
X126531428Y-83858571D01*
X126745714Y-83787142D01*
X126888571Y-83644285D01*
X126960000Y-83501428D01*
X127031428Y-83215714D01*
X127031428Y-83001428D01*
X126960000Y-82715714D01*
X126888571Y-82572857D01*
X126745714Y-82430000D01*
X126531428Y-82358571D01*
X126388571Y-82358571D01*
X126174285Y-82430000D01*
X126102857Y-82501428D01*
X124388571Y-83787142D02*
X124174285Y-83858571D01*
X123817142Y-83858571D01*
X123674285Y-83787142D01*
X123602857Y-83715714D01*
X123531428Y-83572857D01*
X123531428Y-83430000D01*
X123602857Y-83287142D01*
X123674285Y-83215714D01*
X123817142Y-83144285D01*
X124102857Y-83072857D01*
X124245714Y-83001428D01*
X124317142Y-82930000D01*
X124388571Y-82787142D01*
X124388571Y-82644285D01*
X124317142Y-82501428D01*
X124245714Y-82430000D01*
X124102857Y-82358571D01*
X123745714Y-82358571D01*
X123531428Y-82430000D01*
X122317142Y-83787142D02*
X122460000Y-83858571D01*
X122745714Y-83858571D01*
X122888571Y-83787142D01*
X122960000Y-83644285D01*
X122960000Y-83072857D01*
X122888571Y-82930000D01*
X122745714Y-82858571D01*
X122460000Y-82858571D01*
X122317142Y-82930000D01*
X122245714Y-83072857D01*
X122245714Y-83215714D01*
X122960000Y-83358571D01*
X121602857Y-83858571D02*
X121602857Y-82858571D01*
X121602857Y-83144285D02*
X121531428Y-83001428D01*
X121460000Y-82930000D01*
X121317142Y-82858571D01*
X121174285Y-82858571D01*
X120817142Y-82858571D02*
X120460000Y-83858571D01*
X120102857Y-82858571D01*
X119317142Y-83858571D02*
X119460000Y-83787142D01*
X119531428Y-83715714D01*
X119602857Y-83572857D01*
X119602857Y-83144285D01*
X119531428Y-83001428D01*
X119460000Y-82930000D01*
X119317142Y-82858571D01*
X119102857Y-82858571D01*
X118960000Y-82930000D01*
X118888571Y-83001428D01*
X118817142Y-83144285D01*
X118817142Y-83572857D01*
X118888571Y-83715714D01*
X118960000Y-83787142D01*
X119102857Y-83858571D01*
X119317142Y-83858571D01*
X139031428Y-86337142D02*
X138817142Y-86408571D01*
X138460000Y-86408571D01*
X138317142Y-86337142D01*
X138245714Y-86265714D01*
X138174285Y-86122857D01*
X138174285Y-85980000D01*
X138245714Y-85837142D01*
X138317142Y-85765714D01*
X138460000Y-85694285D01*
X138745714Y-85622857D01*
X138888571Y-85551428D01*
X138960000Y-85480000D01*
X139031428Y-85337142D01*
X139031428Y-85194285D01*
X138960000Y-85051428D01*
X138888571Y-84980000D01*
X138745714Y-84908571D01*
X138388571Y-84908571D01*
X138174285Y-84980000D01*
X137674285Y-85408571D02*
X137388571Y-86408571D01*
X137102857Y-85694285D01*
X136817142Y-86408571D01*
X136531428Y-85408571D01*
X135960000Y-86408571D02*
X135960000Y-85408571D01*
X135960000Y-84908571D02*
X136031428Y-84980000D01*
X135960000Y-85051428D01*
X135888571Y-84980000D01*
X135960000Y-84908571D01*
X135960000Y-85051428D01*
X135460000Y-85408571D02*
X134888571Y-85408571D01*
X135245714Y-84908571D02*
X135245714Y-86194285D01*
X135174285Y-86337142D01*
X135031428Y-86408571D01*
X134888571Y-86408571D01*
X133745714Y-86337142D02*
X133888571Y-86408571D01*
X134174285Y-86408571D01*
X134317142Y-86337142D01*
X134388571Y-86265714D01*
X134460000Y-86122857D01*
X134460000Y-85694285D01*
X134388571Y-85551428D01*
X134317142Y-85480000D01*
X134174285Y-85408571D01*
X133888571Y-85408571D01*
X133745714Y-85480000D01*
X133102857Y-86408571D02*
X133102857Y-84908571D01*
X132460000Y-86408571D02*
X132460000Y-85622857D01*
X132531428Y-85480000D01*
X132674285Y-85408571D01*
X132888571Y-85408571D01*
X133031428Y-85480000D01*
X133102857Y-85551428D01*
X130602857Y-86408571D02*
X130602857Y-84908571D01*
X130102857Y-85980000D01*
X129602857Y-84908571D01*
X129602857Y-86408571D01*
X128245714Y-86408571D02*
X128245714Y-85622857D01*
X128317142Y-85480000D01*
X128460000Y-85408571D01*
X128745714Y-85408571D01*
X128888571Y-85480000D01*
X128245714Y-86337142D02*
X128388571Y-86408571D01*
X128745714Y-86408571D01*
X128888571Y-86337142D01*
X128960000Y-86194285D01*
X128960000Y-86051428D01*
X128888571Y-85908571D01*
X128745714Y-85837142D01*
X128388571Y-85837142D01*
X128245714Y-85765714D01*
X126888571Y-86337142D02*
X127031428Y-86408571D01*
X127317142Y-86408571D01*
X127460000Y-86337142D01*
X127531428Y-86265714D01*
X127602857Y-86122857D01*
X127602857Y-85694285D01*
X127531428Y-85551428D01*
X127460000Y-85480000D01*
X127317142Y-85408571D01*
X127031428Y-85408571D01*
X126888571Y-85480000D01*
X126245714Y-86408571D02*
X126245714Y-84908571D01*
X125602857Y-86408571D02*
X125602857Y-85622857D01*
X125674285Y-85480000D01*
X125817142Y-85408571D01*
X126031428Y-85408571D01*
X126174285Y-85480000D01*
X126245714Y-85551428D01*
X124888571Y-86408571D02*
X124888571Y-85408571D01*
X124888571Y-84908571D02*
X124960000Y-84980000D01*
X124888571Y-85051428D01*
X124817142Y-84980000D01*
X124888571Y-84908571D01*
X124888571Y-85051428D01*
X124174285Y-85408571D02*
X124174285Y-86408571D01*
X124174285Y-85551428D02*
X124102857Y-85480000D01*
X123960000Y-85408571D01*
X123745714Y-85408571D01*
X123602857Y-85480000D01*
X123531428Y-85622857D01*
X123531428Y-86408571D01*
X122245714Y-86337142D02*
X122388571Y-86408571D01*
X122674285Y-86408571D01*
X122817142Y-86337142D01*
X122888571Y-86194285D01*
X122888571Y-85622857D01*
X122817142Y-85480000D01*
X122674285Y-85408571D01*
X122388571Y-85408571D01*
X122245714Y-85480000D01*
X122174285Y-85622857D01*
X122174285Y-85765714D01*
X122888571Y-85908571D01*
X119531428Y-86265714D02*
X119602857Y-86337142D01*
X119817142Y-86408571D01*
X119960000Y-86408571D01*
X120174285Y-86337142D01*
X120317142Y-86194285D01*
X120388571Y-86051428D01*
X120460000Y-85765714D01*
X120460000Y-85551428D01*
X120388571Y-85265714D01*
X120317142Y-85122857D01*
X120174285Y-84980000D01*
X119960000Y-84908571D01*
X119817142Y-84908571D01*
X119602857Y-84980000D01*
X119531428Y-85051428D01*
X118674285Y-86408571D02*
X118817142Y-86337142D01*
X118888571Y-86265714D01*
X118960000Y-86122857D01*
X118960000Y-85694285D01*
X118888571Y-85551428D01*
X118817142Y-85480000D01*
X118674285Y-85408571D01*
X118460000Y-85408571D01*
X118317142Y-85480000D01*
X118245714Y-85551428D01*
X118174285Y-85694285D01*
X118174285Y-86122857D01*
X118245714Y-86265714D01*
X118317142Y-86337142D01*
X118460000Y-86408571D01*
X118674285Y-86408571D01*
X117531428Y-85408571D02*
X117531428Y-86408571D01*
X117531428Y-85551428D02*
X117460000Y-85480000D01*
X117317142Y-85408571D01*
X117102857Y-85408571D01*
X116960000Y-85480000D01*
X116888571Y-85622857D01*
X116888571Y-86408571D01*
X116388571Y-85408571D02*
X115817142Y-85408571D01*
X116174285Y-84908571D02*
X116174285Y-86194285D01*
X116102857Y-86337142D01*
X115960000Y-86408571D01*
X115817142Y-86408571D01*
X115317142Y-86408571D02*
X115317142Y-85408571D01*
X115317142Y-85694285D02*
X115245714Y-85551428D01*
X115174285Y-85480000D01*
X115031428Y-85408571D01*
X114888571Y-85408571D01*
X114174285Y-86408571D02*
X114317142Y-86337142D01*
X114388571Y-86265714D01*
X114460000Y-86122857D01*
X114460000Y-85694285D01*
X114388571Y-85551428D01*
X114317142Y-85480000D01*
X114174285Y-85408571D01*
X113960000Y-85408571D01*
X113817142Y-85480000D01*
X113745714Y-85551428D01*
X113674285Y-85694285D01*
X113674285Y-86122857D01*
X113745714Y-86265714D01*
X113817142Y-86337142D01*
X113960000Y-86408571D01*
X114174285Y-86408571D01*
X112817142Y-86408571D02*
X112960000Y-86337142D01*
X113031428Y-86194285D01*
X113031428Y-84908571D01*
X112031428Y-86408571D02*
X112174285Y-86337142D01*
X112245714Y-86194285D01*
X112245714Y-84908571D01*
X110888571Y-86337142D02*
X111031428Y-86408571D01*
X111317142Y-86408571D01*
X111460000Y-86337142D01*
X111531428Y-86194285D01*
X111531428Y-85622857D01*
X111460000Y-85480000D01*
X111317142Y-85408571D01*
X111031428Y-85408571D01*
X110888571Y-85480000D01*
X110817142Y-85622857D01*
X110817142Y-85765714D01*
X111531428Y-85908571D01*
X110174285Y-86408571D02*
X110174285Y-85408571D01*
X110174285Y-85694285D02*
X110102857Y-85551428D01*
X110031428Y-85480000D01*
X109888571Y-85408571D01*
X109745714Y-85408571D01*
M02*
