G04 #@! TF.GenerationSoftware,KiCad,Pcbnew,(2017-08-02 revision 9760937)-master*
G04 #@! TF.CreationDate,2017-09-16T10:46:18-07:00*
G04 #@! TF.ProjectId,RCSMCtrl,5243534D4374726C2E6B696361645F70,NC*
G04 #@! TF.SameCoordinates,Original*
G04 #@! TF.FileFunction,Legend,Top*
G04 #@! TF.FilePolarity,Positive*
%FSLAX46Y46*%
G04 Gerber Fmt 4.6, Leading zero omitted, Abs format (unit mm)*
G04 Created by KiCad (PCBNEW (2017-08-02 revision 9760937)-master) date Saturday, September 16, 2017 'AMt' 10:46:18 AM*
%MOMM*%
%LPD*%
G01*
G04 APERTURE LIST*
%ADD10C,0.300000*%
%ADD11C,0.120000*%
%ADD12C,0.150000*%
G04 APERTURE END LIST*
D10*
X135009285Y-50772142D02*
X135223571Y-50843571D01*
X135580714Y-50843571D01*
X135723571Y-50772142D01*
X135795000Y-50700714D01*
X135866428Y-50557857D01*
X135866428Y-50415000D01*
X135795000Y-50272142D01*
X135723571Y-50200714D01*
X135580714Y-50129285D01*
X135295000Y-50057857D01*
X135152142Y-49986428D01*
X135080714Y-49915000D01*
X135009285Y-49772142D01*
X135009285Y-49629285D01*
X135080714Y-49486428D01*
X135152142Y-49415000D01*
X135295000Y-49343571D01*
X135652142Y-49343571D01*
X135866428Y-49415000D01*
X137080714Y-50772142D02*
X136937857Y-50843571D01*
X136652142Y-50843571D01*
X136509285Y-50772142D01*
X136437857Y-50629285D01*
X136437857Y-50057857D01*
X136509285Y-49915000D01*
X136652142Y-49843571D01*
X136937857Y-49843571D01*
X137080714Y-49915000D01*
X137152142Y-50057857D01*
X137152142Y-50200714D01*
X136437857Y-50343571D01*
X137795000Y-50843571D02*
X137795000Y-49843571D01*
X137795000Y-50129285D02*
X137866428Y-49986428D01*
X137937857Y-49915000D01*
X138080714Y-49843571D01*
X138223571Y-49843571D01*
X138580714Y-49843571D02*
X138937857Y-50843571D01*
X139295000Y-49843571D01*
X140080714Y-50843571D02*
X139937857Y-50772142D01*
X139866428Y-50700714D01*
X139795000Y-50557857D01*
X139795000Y-50129285D01*
X139866428Y-49986428D01*
X139937857Y-49915000D01*
X140080714Y-49843571D01*
X140295000Y-49843571D01*
X140437857Y-49915000D01*
X140509285Y-49986428D01*
X140580714Y-50129285D01*
X140580714Y-50557857D01*
X140509285Y-50700714D01*
X140437857Y-50772142D01*
X140295000Y-50843571D01*
X140080714Y-50843571D01*
X121079428Y-72433571D02*
X121079428Y-70933571D01*
X121650857Y-70933571D01*
X121793714Y-71005000D01*
X121865142Y-71076428D01*
X121936571Y-71219285D01*
X121936571Y-71433571D01*
X121865142Y-71576428D01*
X121793714Y-71647857D01*
X121650857Y-71719285D01*
X121079428Y-71719285D01*
X122579428Y-72433571D02*
X122579428Y-70933571D01*
X124150857Y-72290714D02*
X124079428Y-72362142D01*
X123865142Y-72433571D01*
X123722285Y-72433571D01*
X123508000Y-72362142D01*
X123365142Y-72219285D01*
X123293714Y-72076428D01*
X123222285Y-71790714D01*
X123222285Y-71576428D01*
X123293714Y-71290714D01*
X123365142Y-71147857D01*
X123508000Y-71005000D01*
X123722285Y-70933571D01*
X123865142Y-70933571D01*
X124079428Y-71005000D01*
X124150857Y-71076428D01*
X125579428Y-72433571D02*
X124722285Y-72433571D01*
X125150857Y-72433571D02*
X125150857Y-70933571D01*
X125008000Y-71147857D01*
X124865142Y-71290714D01*
X124722285Y-71362142D01*
X126150857Y-71076428D02*
X126222285Y-71005000D01*
X126365142Y-70933571D01*
X126722285Y-70933571D01*
X126865142Y-71005000D01*
X126936571Y-71076428D01*
X127008000Y-71219285D01*
X127008000Y-71362142D01*
X126936571Y-71576428D01*
X126079428Y-72433571D01*
X127008000Y-72433571D01*
X128150857Y-71647857D02*
X127650857Y-71647857D01*
X127650857Y-72433571D02*
X127650857Y-70933571D01*
X128365142Y-70933571D01*
X129722285Y-72433571D02*
X128865142Y-72433571D01*
X129293714Y-72433571D02*
X129293714Y-70933571D01*
X129150857Y-71147857D01*
X129008000Y-71290714D01*
X128865142Y-71362142D01*
X130579428Y-71576428D02*
X130436571Y-71505000D01*
X130365142Y-71433571D01*
X130293714Y-71290714D01*
X130293714Y-71219285D01*
X130365142Y-71076428D01*
X130436571Y-71005000D01*
X130579428Y-70933571D01*
X130865142Y-70933571D01*
X131008000Y-71005000D01*
X131079428Y-71076428D01*
X131150857Y-71219285D01*
X131150857Y-71290714D01*
X131079428Y-71433571D01*
X131008000Y-71505000D01*
X130865142Y-71576428D01*
X130579428Y-71576428D01*
X130436571Y-71647857D01*
X130365142Y-71719285D01*
X130293714Y-71862142D01*
X130293714Y-72147857D01*
X130365142Y-72290714D01*
X130436571Y-72362142D01*
X130579428Y-72433571D01*
X130865142Y-72433571D01*
X131008000Y-72362142D01*
X131079428Y-72290714D01*
X131150857Y-72147857D01*
X131150857Y-71862142D01*
X131079428Y-71719285D01*
X131008000Y-71647857D01*
X130865142Y-71576428D01*
X131722285Y-71076428D02*
X131793714Y-71005000D01*
X131936571Y-70933571D01*
X132293714Y-70933571D01*
X132436571Y-71005000D01*
X132508000Y-71076428D01*
X132579428Y-71219285D01*
X132579428Y-71362142D01*
X132508000Y-71576428D01*
X131650857Y-72433571D01*
X132579428Y-72433571D01*
X133150857Y-71076428D02*
X133222285Y-71005000D01*
X133365142Y-70933571D01*
X133722285Y-70933571D01*
X133865142Y-71005000D01*
X133936571Y-71076428D01*
X134008000Y-71219285D01*
X134008000Y-71362142D01*
X133936571Y-71576428D01*
X133079428Y-72433571D01*
X134008000Y-72433571D01*
X143593571Y-87673571D02*
X143593571Y-86173571D01*
X143950714Y-86173571D01*
X144165000Y-86245000D01*
X144307857Y-86387857D01*
X144379285Y-86530714D01*
X144450714Y-86816428D01*
X144450714Y-87030714D01*
X144379285Y-87316428D01*
X144307857Y-87459285D01*
X144165000Y-87602142D01*
X143950714Y-87673571D01*
X143593571Y-87673571D01*
X145093571Y-86887857D02*
X145593571Y-86887857D01*
X145807857Y-87673571D02*
X145093571Y-87673571D01*
X145093571Y-86173571D01*
X145807857Y-86173571D01*
X147307857Y-87530714D02*
X147236428Y-87602142D01*
X147022142Y-87673571D01*
X146879285Y-87673571D01*
X146665000Y-87602142D01*
X146522142Y-87459285D01*
X146450714Y-87316428D01*
X146379285Y-87030714D01*
X146379285Y-86816428D01*
X146450714Y-86530714D01*
X146522142Y-86387857D01*
X146665000Y-86245000D01*
X146879285Y-86173571D01*
X147022142Y-86173571D01*
X147236428Y-86245000D01*
X147307857Y-86316428D01*
X143879285Y-62273571D02*
X143879285Y-60773571D01*
X144593571Y-62273571D02*
X144593571Y-60773571D01*
X145450714Y-62273571D01*
X145450714Y-60773571D01*
X147022142Y-62130714D02*
X146950714Y-62202142D01*
X146736428Y-62273571D01*
X146593571Y-62273571D01*
X146379285Y-62202142D01*
X146236428Y-62059285D01*
X146165000Y-61916428D01*
X146093571Y-61630714D01*
X146093571Y-61416428D01*
X146165000Y-61130714D01*
X146236428Y-60987857D01*
X146379285Y-60845000D01*
X146593571Y-60773571D01*
X146736428Y-60773571D01*
X146950714Y-60845000D01*
X147022142Y-60916428D01*
D11*
X105680000Y-91530000D02*
X134480000Y-91530000D01*
X134480000Y-91530000D02*
X134480000Y-78530000D01*
X134480000Y-78530000D02*
X105680000Y-78530000D01*
X105680000Y-78530000D02*
X105680000Y-91530000D01*
X131880000Y-84680000D02*
X132280000Y-85380000D01*
X131480000Y-85380000D02*
X132680000Y-85380000D01*
X132680000Y-85380000D02*
X132680000Y-84680000D01*
X132680000Y-84680000D02*
X131480000Y-84680000D01*
X131480000Y-84680000D02*
X131480000Y-85380000D01*
X132380000Y-78290000D02*
X134720000Y-78290000D01*
X134720000Y-78290000D02*
X134720000Y-80630000D01*
D12*
X127770000Y-59905000D02*
X128770000Y-59905000D01*
X128770000Y-58205000D02*
X127770000Y-58205000D01*
X113459260Y-56149240D02*
X113459260Y-56649620D01*
X113459260Y-56149240D02*
X113959640Y-56149240D01*
X113459260Y-55648860D02*
X113459260Y-56149240D01*
X113459260Y-56149240D02*
X113060480Y-56149240D01*
X113060480Y-56149240D02*
X112958880Y-56149240D01*
X114909600Y-57150000D02*
G75*
G03X114909600Y-57150000I-3149600J0D01*
G01*
X116340000Y-54825000D02*
X117340000Y-54825000D01*
X117340000Y-53125000D02*
X116340000Y-53125000D01*
X123690000Y-63920000D02*
X122690000Y-63920000D01*
X122690000Y-65620000D02*
X123690000Y-65620000D01*
X140720000Y-91440000D02*
X141270000Y-90990000D01*
X141270000Y-90990000D02*
X141270000Y-91890000D01*
X141270000Y-91890000D02*
X140720000Y-91440000D01*
X140720000Y-90890000D02*
X140720000Y-91990000D01*
X139170860Y-93190060D02*
X139170860Y-92839540D01*
X139170860Y-89689940D02*
X139170860Y-90040460D01*
X143220440Y-93190060D02*
X143220440Y-92839540D01*
X138719560Y-93190060D02*
X138719560Y-92839540D01*
X138719560Y-89689940D02*
X138719560Y-90040460D01*
X143220440Y-89689940D02*
X143220440Y-90040460D01*
X138719560Y-93190060D02*
X143220440Y-93190060D01*
X138719560Y-89689940D02*
X143220440Y-89689940D01*
X140720000Y-95250000D02*
X141270000Y-94800000D01*
X141270000Y-94800000D02*
X141270000Y-95700000D01*
X141270000Y-95700000D02*
X140720000Y-95250000D01*
X140720000Y-94700000D02*
X140720000Y-95800000D01*
X139170860Y-97000060D02*
X139170860Y-96649540D01*
X139170860Y-93499940D02*
X139170860Y-93850460D01*
X143220440Y-97000060D02*
X143220440Y-96649540D01*
X138719560Y-97000060D02*
X138719560Y-96649540D01*
X138719560Y-93499940D02*
X138719560Y-93850460D01*
X143220440Y-93499940D02*
X143220440Y-93850460D01*
X138719560Y-97000060D02*
X143220440Y-97000060D01*
X138719560Y-93499940D02*
X143220440Y-93499940D01*
X120359360Y-60325000D02*
X120909360Y-59875000D01*
X120909360Y-59875000D02*
X120909360Y-60775000D01*
X120909360Y-60775000D02*
X120359360Y-60325000D01*
X120359360Y-59775000D02*
X120359360Y-60875000D01*
X118810220Y-62075060D02*
X118810220Y-61724540D01*
X118810220Y-58574940D02*
X118810220Y-58925460D01*
X122859800Y-62075060D02*
X122859800Y-61724540D01*
X118358920Y-62075060D02*
X118358920Y-61724540D01*
X118358920Y-58574940D02*
X118358920Y-58925460D01*
X122859800Y-58574940D02*
X122859800Y-58925460D01*
X118358920Y-62075060D02*
X122859800Y-62075060D01*
X118358920Y-58574940D02*
X122859800Y-58574940D01*
X109429360Y-51435000D02*
X108879360Y-51885000D01*
X108879360Y-51885000D02*
X108879360Y-50985000D01*
X108879360Y-50985000D02*
X109429360Y-51435000D01*
X109429360Y-51985000D02*
X109429360Y-50885000D01*
X110978500Y-49684940D02*
X110978500Y-50035460D01*
X110978500Y-53185060D02*
X110978500Y-52834540D01*
X106928920Y-49684940D02*
X106928920Y-50035460D01*
X111429800Y-49684940D02*
X111429800Y-50035460D01*
X111429800Y-53185060D02*
X111429800Y-52834540D01*
X106928920Y-53185060D02*
X106928920Y-52834540D01*
X111429800Y-49684940D02*
X106928920Y-49684940D01*
X111429800Y-53185060D02*
X106928920Y-53185060D01*
X135794860Y-70900000D02*
X139394860Y-70900000D01*
X135794860Y-68800000D02*
X139394860Y-68800000D01*
X137844860Y-69550000D02*
X137844860Y-70150000D01*
X137844860Y-70150000D02*
X137544860Y-69850000D01*
X137544860Y-69850000D02*
X137744860Y-69650000D01*
X137744860Y-69650000D02*
X137744860Y-69900000D01*
X137744860Y-69900000D02*
X137694860Y-69850000D01*
X137444860Y-69350000D02*
X137444860Y-70350000D01*
X137944860Y-69850000D02*
X138444860Y-69850000D01*
X137444860Y-69850000D02*
X137944860Y-69350000D01*
X137944860Y-69350000D02*
X137944860Y-70350000D01*
X137944860Y-70350000D02*
X137444860Y-69850000D01*
X135794860Y-79155000D02*
X139394860Y-79155000D01*
X135794860Y-77055000D02*
X139394860Y-77055000D01*
X137844860Y-77805000D02*
X137844860Y-78405000D01*
X137844860Y-78405000D02*
X137544860Y-78105000D01*
X137544860Y-78105000D02*
X137744860Y-77905000D01*
X137744860Y-77905000D02*
X137744860Y-78155000D01*
X137744860Y-78155000D02*
X137694860Y-78105000D01*
X137444860Y-77605000D02*
X137444860Y-78605000D01*
X137944860Y-78105000D02*
X138444860Y-78105000D01*
X137444860Y-78105000D02*
X137944860Y-77605000D01*
X137944860Y-77605000D02*
X137944860Y-78605000D01*
X137944860Y-78605000D02*
X137444860Y-78105000D01*
X108929360Y-62865000D02*
X109479360Y-62415000D01*
X109479360Y-62415000D02*
X109479360Y-63315000D01*
X109479360Y-63315000D02*
X108929360Y-62865000D01*
X108929360Y-62315000D02*
X108929360Y-63415000D01*
X107380220Y-64615060D02*
X107380220Y-64264540D01*
X107380220Y-61114940D02*
X107380220Y-61465460D01*
X111429800Y-64615060D02*
X111429800Y-64264540D01*
X106928920Y-64615060D02*
X106928920Y-64264540D01*
X106928920Y-61114940D02*
X106928920Y-61465460D01*
X111429800Y-61114940D02*
X111429800Y-61465460D01*
X106928920Y-64615060D02*
X111429800Y-64615060D01*
X106928920Y-61114940D02*
X111429800Y-61114940D01*
X108929360Y-67310000D02*
X109479360Y-66860000D01*
X109479360Y-66860000D02*
X109479360Y-67760000D01*
X109479360Y-67760000D02*
X108929360Y-67310000D01*
X108929360Y-66760000D02*
X108929360Y-67860000D01*
X107380220Y-69060060D02*
X107380220Y-68709540D01*
X107380220Y-65559940D02*
X107380220Y-65910460D01*
X111429800Y-69060060D02*
X111429800Y-68709540D01*
X106928920Y-69060060D02*
X106928920Y-68709540D01*
X106928920Y-65559940D02*
X106928920Y-65910460D01*
X111429800Y-65559940D02*
X111429800Y-65910460D01*
X106928920Y-69060060D02*
X111429800Y-69060060D01*
X106928920Y-65559940D02*
X111429800Y-65559940D01*
X121530000Y-76065000D02*
X122800000Y-76065000D01*
X121530000Y-68715000D02*
X122800000Y-68715000D01*
X133740000Y-68715000D02*
X132470000Y-68715000D01*
X133740000Y-76065000D02*
X132470000Y-76065000D01*
X121530000Y-76065000D02*
X121530000Y-68715000D01*
X133740000Y-76065000D02*
X133740000Y-68715000D01*
X122800000Y-76065000D02*
X122800000Y-77000000D01*
X135255000Y-53975000D02*
X140335000Y-53975000D01*
X140335000Y-53975000D02*
X140335000Y-51435000D01*
X140335000Y-51435000D02*
X135255000Y-51435000D01*
X132435000Y-51155000D02*
X133985000Y-51155000D01*
X135255000Y-51435000D02*
X135255000Y-53975000D01*
X133985000Y-54255000D02*
X132435000Y-54255000D01*
X132435000Y-54255000D02*
X132435000Y-51155000D01*
X138000000Y-89330000D02*
X141400000Y-89330000D01*
X138002944Y-89327056D02*
G75*
G02X139700000Y-85230000I1697056J1697056D01*
G01*
X141397056Y-89327056D02*
G75*
G03X139700000Y-85230000I-1697056J1697056D01*
G01*
X136730000Y-62025000D02*
X140130000Y-62025000D01*
X136732944Y-62022056D02*
G75*
G02X138430000Y-57925000I1697056J1697056D01*
G01*
X140127056Y-62022056D02*
G75*
G03X138430000Y-57925000I-1697056J1697056D01*
G01*
X115140000Y-69010000D02*
X118540000Y-69010000D01*
X115142944Y-69007056D02*
G75*
G02X116840000Y-64910000I1697056J1697056D01*
G01*
X118537056Y-69007056D02*
G75*
G03X116840000Y-64910000I-1697056J1697056D01*
G01*
X137910000Y-82945000D02*
X139110000Y-82945000D01*
X139110000Y-84695000D02*
X137910000Y-84695000D01*
X127670000Y-60720000D02*
X128870000Y-60720000D01*
X128870000Y-62470000D02*
X127670000Y-62470000D01*
X139030000Y-82790000D02*
X137830000Y-82790000D01*
X137830000Y-81040000D02*
X139030000Y-81040000D01*
X132830000Y-60720000D02*
X134030000Y-60720000D01*
X134030000Y-62470000D02*
X132830000Y-62470000D01*
X134030000Y-59930000D02*
X132830000Y-59930000D01*
X132830000Y-58180000D02*
X134030000Y-58180000D01*
X138465000Y-55005000D02*
X139665000Y-55005000D01*
X139665000Y-56755000D02*
X138465000Y-56755000D01*
X139110000Y-65010000D02*
X137910000Y-65010000D01*
X137910000Y-63260000D02*
X139110000Y-63260000D01*
X139110000Y-67550000D02*
X137910000Y-67550000D01*
X137910000Y-65800000D02*
X139110000Y-65800000D01*
X139110000Y-73265000D02*
X137910000Y-73265000D01*
X137910000Y-71515000D02*
X139110000Y-71515000D01*
X139110000Y-76440000D02*
X137910000Y-76440000D01*
X137910000Y-74690000D02*
X139110000Y-74690000D01*
X129655000Y-63260000D02*
X130855000Y-63260000D01*
X130855000Y-65010000D02*
X129655000Y-65010000D01*
X112510000Y-69610000D02*
X113710000Y-69610000D01*
X113710000Y-71360000D02*
X112510000Y-71360000D01*
X117590000Y-69610000D02*
X118790000Y-69610000D01*
X118790000Y-71360000D02*
X117590000Y-71360000D01*
X146875714Y-68415000D02*
G75*
G03X146875714Y-68415000I-1750714J0D01*
G01*
X141900000Y-65190000D02*
X142025000Y-65190000D01*
X148350000Y-65190000D02*
X148225000Y-65190000D01*
X148350000Y-71640000D02*
X148225000Y-71640000D01*
X142025000Y-71640000D02*
X141900000Y-71640000D01*
X143725000Y-65190000D02*
X146525000Y-65190000D01*
X141900000Y-71640000D02*
X141900000Y-65190000D01*
X143725000Y-71640000D02*
X146525000Y-71640000D01*
X148350000Y-71640000D02*
X148350000Y-65190000D01*
X146875714Y-79845000D02*
G75*
G03X146875714Y-79845000I-1750714J0D01*
G01*
X141900000Y-76620000D02*
X142025000Y-76620000D01*
X148350000Y-76620000D02*
X148225000Y-76620000D01*
X148350000Y-83070000D02*
X148225000Y-83070000D01*
X142025000Y-83070000D02*
X141900000Y-83070000D01*
X143725000Y-76620000D02*
X146525000Y-76620000D01*
X141900000Y-83070000D02*
X141900000Y-76620000D01*
X143725000Y-83070000D02*
X146525000Y-83070000D01*
X148350000Y-83070000D02*
X148350000Y-76620000D01*
D11*
X134720000Y-92260000D02*
X134720000Y-94600000D01*
X132380000Y-92260000D02*
X134720000Y-92260000D01*
X131480000Y-98650000D02*
X131480000Y-99350000D01*
X132680000Y-98650000D02*
X131480000Y-98650000D01*
X132680000Y-99350000D02*
X132680000Y-98650000D01*
X131480000Y-99350000D02*
X132680000Y-99350000D01*
X131880000Y-98650000D02*
X132280000Y-99350000D01*
X105680000Y-92500000D02*
X105680000Y-105500000D01*
X134480000Y-92500000D02*
X105680000Y-92500000D01*
X134480000Y-105500000D02*
X134480000Y-92500000D01*
X105680000Y-105500000D02*
X134480000Y-105500000D01*
X123065000Y-56520000D02*
X121965000Y-56520000D01*
X123065000Y-56790000D02*
X123065000Y-56520000D01*
X124565000Y-56790000D02*
X123065000Y-56790000D01*
X123065000Y-50160000D02*
X120235000Y-50160000D01*
X123065000Y-49890000D02*
X123065000Y-50160000D01*
X124565000Y-49890000D02*
X123065000Y-49890000D01*
D12*
X123086904Y-80462380D02*
X123086904Y-79462380D01*
X123658333Y-80462380D02*
X123229761Y-79890952D01*
X123658333Y-79462380D02*
X123086904Y-80033809D01*
X124610714Y-80462380D02*
X124039285Y-80462380D01*
X124325000Y-80462380D02*
X124325000Y-79462380D01*
X124229761Y-79605238D01*
X124134523Y-79700476D01*
X124039285Y-79748095D01*
X105941904Y-74112380D02*
X105941904Y-73112380D01*
X106322857Y-73112380D01*
X106418095Y-73160000D01*
X106465714Y-73207619D01*
X106513333Y-73302857D01*
X106513333Y-73445714D01*
X106465714Y-73540952D01*
X106418095Y-73588571D01*
X106322857Y-73636190D01*
X105941904Y-73636190D01*
X107465714Y-74112380D02*
X106894285Y-74112380D01*
X107180000Y-74112380D02*
X107180000Y-73112380D01*
X107084761Y-73255238D01*
X106989523Y-73350476D01*
X106894285Y-73398095D01*
X125055333Y-58650142D02*
X125007714Y-58697761D01*
X124864857Y-58745380D01*
X124769619Y-58745380D01*
X124626761Y-58697761D01*
X124531523Y-58602523D01*
X124483904Y-58507285D01*
X124436285Y-58316809D01*
X124436285Y-58173952D01*
X124483904Y-57983476D01*
X124531523Y-57888238D01*
X124626761Y-57793000D01*
X124769619Y-57745380D01*
X124864857Y-57745380D01*
X125007714Y-57793000D01*
X125055333Y-57840619D01*
X126007714Y-58745380D02*
X125436285Y-58745380D01*
X125722000Y-58745380D02*
X125722000Y-57745380D01*
X125626761Y-57888238D01*
X125531523Y-57983476D01*
X125436285Y-58031095D01*
X107148333Y-55602142D02*
X107100714Y-55649761D01*
X106957857Y-55697380D01*
X106862619Y-55697380D01*
X106719761Y-55649761D01*
X106624523Y-55554523D01*
X106576904Y-55459285D01*
X106529285Y-55268809D01*
X106529285Y-55125952D01*
X106576904Y-54935476D01*
X106624523Y-54840238D01*
X106719761Y-54745000D01*
X106862619Y-54697380D01*
X106957857Y-54697380D01*
X107100714Y-54745000D01*
X107148333Y-54792619D01*
X107529285Y-54792619D02*
X107576904Y-54745000D01*
X107672142Y-54697380D01*
X107910238Y-54697380D01*
X108005476Y-54745000D01*
X108053095Y-54792619D01*
X108100714Y-54887857D01*
X108100714Y-54983095D01*
X108053095Y-55125952D01*
X107481666Y-55697380D01*
X108100714Y-55697380D01*
X116058333Y-56237142D02*
X116010714Y-56284761D01*
X115867857Y-56332380D01*
X115772619Y-56332380D01*
X115629761Y-56284761D01*
X115534523Y-56189523D01*
X115486904Y-56094285D01*
X115439285Y-55903809D01*
X115439285Y-55760952D01*
X115486904Y-55570476D01*
X115534523Y-55475238D01*
X115629761Y-55380000D01*
X115772619Y-55332380D01*
X115867857Y-55332380D01*
X116010714Y-55380000D01*
X116058333Y-55427619D01*
X116391666Y-55332380D02*
X117010714Y-55332380D01*
X116677380Y-55713333D01*
X116820238Y-55713333D01*
X116915476Y-55760952D01*
X116963095Y-55808571D01*
X117010714Y-55903809D01*
X117010714Y-56141904D01*
X116963095Y-56237142D01*
X116915476Y-56284761D01*
X116820238Y-56332380D01*
X116534523Y-56332380D01*
X116439285Y-56284761D01*
X116391666Y-56237142D01*
X120483333Y-63222142D02*
X120435714Y-63269761D01*
X120292857Y-63317380D01*
X120197619Y-63317380D01*
X120054761Y-63269761D01*
X119959523Y-63174523D01*
X119911904Y-63079285D01*
X119864285Y-62888809D01*
X119864285Y-62745952D01*
X119911904Y-62555476D01*
X119959523Y-62460238D01*
X120054761Y-62365000D01*
X120197619Y-62317380D01*
X120292857Y-62317380D01*
X120435714Y-62365000D01*
X120483333Y-62412619D01*
X121340476Y-62650714D02*
X121340476Y-63317380D01*
X121102380Y-62269761D02*
X120864285Y-62984047D01*
X121483333Y-62984047D01*
X145946904Y-89987380D02*
X145946904Y-88987380D01*
X146185000Y-88987380D01*
X146327857Y-89035000D01*
X146423095Y-89130238D01*
X146470714Y-89225476D01*
X146518333Y-89415952D01*
X146518333Y-89558809D01*
X146470714Y-89749285D01*
X146423095Y-89844523D01*
X146327857Y-89939761D01*
X146185000Y-89987380D01*
X145946904Y-89987380D01*
X147470714Y-89987380D02*
X146899285Y-89987380D01*
X147185000Y-89987380D02*
X147185000Y-88987380D01*
X147089761Y-89130238D01*
X146994523Y-89225476D01*
X146899285Y-89273095D01*
X135628095Y-91892380D02*
X135628095Y-90892380D01*
X136199523Y-91892380D02*
X135770952Y-91320952D01*
X136199523Y-90892380D02*
X135628095Y-91463809D01*
X145811904Y-91606666D02*
X146288095Y-91606666D01*
X145716666Y-91892380D02*
X146050000Y-90892380D01*
X146383333Y-91892380D01*
X145946904Y-93797380D02*
X145946904Y-92797380D01*
X146185000Y-92797380D01*
X146327857Y-92845000D01*
X146423095Y-92940238D01*
X146470714Y-93035476D01*
X146518333Y-93225952D01*
X146518333Y-93368809D01*
X146470714Y-93559285D01*
X146423095Y-93654523D01*
X146327857Y-93749761D01*
X146185000Y-93797380D01*
X145946904Y-93797380D01*
X146899285Y-92892619D02*
X146946904Y-92845000D01*
X147042142Y-92797380D01*
X147280238Y-92797380D01*
X147375476Y-92845000D01*
X147423095Y-92892619D01*
X147470714Y-92987857D01*
X147470714Y-93083095D01*
X147423095Y-93225952D01*
X146851666Y-93797380D01*
X147470714Y-93797380D01*
X135628095Y-95702380D02*
X135628095Y-94702380D01*
X136199523Y-95702380D02*
X135770952Y-95130952D01*
X136199523Y-94702380D02*
X135628095Y-95273809D01*
X145811904Y-95416666D02*
X146288095Y-95416666D01*
X145716666Y-95702380D02*
X146050000Y-94702380D01*
X146383333Y-95702380D01*
X116101904Y-57927380D02*
X116101904Y-56927380D01*
X116340000Y-56927380D01*
X116482857Y-56975000D01*
X116578095Y-57070238D01*
X116625714Y-57165476D01*
X116673333Y-57355952D01*
X116673333Y-57498809D01*
X116625714Y-57689285D01*
X116578095Y-57784523D01*
X116482857Y-57879761D01*
X116340000Y-57927380D01*
X116101904Y-57927380D01*
X117006666Y-56927380D02*
X117625714Y-56927380D01*
X117292380Y-57308333D01*
X117435238Y-57308333D01*
X117530476Y-57355952D01*
X117578095Y-57403571D01*
X117625714Y-57498809D01*
X117625714Y-57736904D01*
X117578095Y-57832142D01*
X117530476Y-57879761D01*
X117435238Y-57927380D01*
X117149523Y-57927380D01*
X117054285Y-57879761D01*
X117006666Y-57832142D01*
X115308095Y-60777380D02*
X115308095Y-59777380D01*
X115879523Y-60777380D02*
X115450952Y-60205952D01*
X115879523Y-59777380D02*
X115308095Y-60348809D01*
X123421264Y-62396666D02*
X123897455Y-62396666D01*
X123326026Y-62682380D02*
X123659360Y-61682380D01*
X123992693Y-62682380D01*
X114196904Y-51887380D02*
X114196904Y-50887380D01*
X114435000Y-50887380D01*
X114577857Y-50935000D01*
X114673095Y-51030238D01*
X114720714Y-51125476D01*
X114768333Y-51315952D01*
X114768333Y-51458809D01*
X114720714Y-51649285D01*
X114673095Y-51744523D01*
X114577857Y-51839761D01*
X114435000Y-51887380D01*
X114196904Y-51887380D01*
X115625476Y-51220714D02*
X115625476Y-51887380D01*
X115387380Y-50839761D02*
X115149285Y-51554047D01*
X115768333Y-51554047D01*
X112768095Y-53792380D02*
X112768095Y-52792380D01*
X113339523Y-53792380D02*
X112910952Y-53220952D01*
X113339523Y-52792380D02*
X112768095Y-53363809D01*
X105171904Y-53506666D02*
X105648095Y-53506666D01*
X105076666Y-53792380D02*
X105410000Y-52792380D01*
X105743333Y-53792380D01*
X133881904Y-69032380D02*
X133881904Y-68032380D01*
X134120000Y-68032380D01*
X134262857Y-68080000D01*
X134358095Y-68175238D01*
X134405714Y-68270476D01*
X134453333Y-68460952D01*
X134453333Y-68603809D01*
X134405714Y-68794285D01*
X134358095Y-68889523D01*
X134262857Y-68984761D01*
X134120000Y-69032380D01*
X133881904Y-69032380D01*
X135358095Y-68032380D02*
X134881904Y-68032380D01*
X134834285Y-68508571D01*
X134881904Y-68460952D01*
X134977142Y-68413333D01*
X135215238Y-68413333D01*
X135310476Y-68460952D01*
X135358095Y-68508571D01*
X135405714Y-68603809D01*
X135405714Y-68841904D01*
X135358095Y-68937142D01*
X135310476Y-68984761D01*
X135215238Y-69032380D01*
X134977142Y-69032380D01*
X134881904Y-68984761D01*
X134834285Y-68937142D01*
X138199904Y-80589380D02*
X138199904Y-79589380D01*
X138438000Y-79589380D01*
X138580857Y-79637000D01*
X138676095Y-79732238D01*
X138723714Y-79827476D01*
X138771333Y-80017952D01*
X138771333Y-80160809D01*
X138723714Y-80351285D01*
X138676095Y-80446523D01*
X138580857Y-80541761D01*
X138438000Y-80589380D01*
X138199904Y-80589380D01*
X139628476Y-79589380D02*
X139438000Y-79589380D01*
X139342761Y-79637000D01*
X139295142Y-79684619D01*
X139199904Y-79827476D01*
X139152285Y-80017952D01*
X139152285Y-80398904D01*
X139199904Y-80494142D01*
X139247523Y-80541761D01*
X139342761Y-80589380D01*
X139533238Y-80589380D01*
X139628476Y-80541761D01*
X139676095Y-80494142D01*
X139723714Y-80398904D01*
X139723714Y-80160809D01*
X139676095Y-80065571D01*
X139628476Y-80017952D01*
X139533238Y-79970333D01*
X139342761Y-79970333D01*
X139247523Y-80017952D01*
X139199904Y-80065571D01*
X139152285Y-80160809D01*
X105306904Y-60142380D02*
X105306904Y-59142380D01*
X105545000Y-59142380D01*
X105687857Y-59190000D01*
X105783095Y-59285238D01*
X105830714Y-59380476D01*
X105878333Y-59570952D01*
X105878333Y-59713809D01*
X105830714Y-59904285D01*
X105783095Y-59999523D01*
X105687857Y-60094761D01*
X105545000Y-60142380D01*
X105306904Y-60142380D01*
X106211666Y-59142380D02*
X106878333Y-59142380D01*
X106449761Y-60142380D01*
X105667455Y-66217380D02*
X105667455Y-65217380D01*
X106238883Y-66217380D02*
X105810312Y-65645952D01*
X106238883Y-65217380D02*
X105667455Y-65788809D01*
X111991264Y-65881666D02*
X112467455Y-65881666D01*
X111896026Y-66167380D02*
X112229360Y-65167380D01*
X112562693Y-66167380D01*
X107211904Y-70937380D02*
X107211904Y-69937380D01*
X107450000Y-69937380D01*
X107592857Y-69985000D01*
X107688095Y-70080238D01*
X107735714Y-70175476D01*
X107783333Y-70365952D01*
X107783333Y-70508809D01*
X107735714Y-70699285D01*
X107688095Y-70794523D01*
X107592857Y-70889761D01*
X107450000Y-70937380D01*
X107211904Y-70937380D01*
X108354761Y-70365952D02*
X108259523Y-70318333D01*
X108211904Y-70270714D01*
X108164285Y-70175476D01*
X108164285Y-70127857D01*
X108211904Y-70032619D01*
X108259523Y-69985000D01*
X108354761Y-69937380D01*
X108545238Y-69937380D01*
X108640476Y-69985000D01*
X108688095Y-70032619D01*
X108735714Y-70127857D01*
X108735714Y-70175476D01*
X108688095Y-70270714D01*
X108640476Y-70318333D01*
X108545238Y-70365952D01*
X108354761Y-70365952D01*
X108259523Y-70413571D01*
X108211904Y-70461190D01*
X108164285Y-70556428D01*
X108164285Y-70746904D01*
X108211904Y-70842142D01*
X108259523Y-70889761D01*
X108354761Y-70937380D01*
X108545238Y-70937380D01*
X108640476Y-70889761D01*
X108688095Y-70842142D01*
X108735714Y-70746904D01*
X108735714Y-70556428D01*
X108688095Y-70461190D01*
X108640476Y-70413571D01*
X108545238Y-70365952D01*
X105667455Y-70662380D02*
X105667455Y-69662380D01*
X106238883Y-70662380D02*
X105810312Y-70090952D01*
X106238883Y-69662380D02*
X105667455Y-70233809D01*
X111991264Y-70326666D02*
X112467455Y-70326666D01*
X111896026Y-70612380D02*
X112229360Y-69612380D01*
X112562693Y-70612380D01*
X119038809Y-76652380D02*
X119038809Y-75652380D01*
X120086428Y-76557142D02*
X120038809Y-76604761D01*
X119895952Y-76652380D01*
X119800714Y-76652380D01*
X119657857Y-76604761D01*
X119562619Y-76509523D01*
X119515000Y-76414285D01*
X119467380Y-76223809D01*
X119467380Y-76080952D01*
X119515000Y-75890476D01*
X119562619Y-75795238D01*
X119657857Y-75700000D01*
X119800714Y-75652380D01*
X119895952Y-75652380D01*
X120038809Y-75700000D01*
X120086428Y-75747619D01*
X121038809Y-76652380D02*
X120467380Y-76652380D01*
X120753095Y-76652380D02*
X120753095Y-75652380D01*
X120657857Y-75795238D01*
X120562619Y-75890476D01*
X120467380Y-75938095D01*
X132611904Y-50617380D02*
X132611904Y-49617380D01*
X132992857Y-49617380D01*
X133088095Y-49665000D01*
X133135714Y-49712619D01*
X133183333Y-49807857D01*
X133183333Y-49950714D01*
X133135714Y-50045952D01*
X133088095Y-50093571D01*
X132992857Y-50141190D01*
X132611904Y-50141190D01*
X133564285Y-49712619D02*
X133611904Y-49665000D01*
X133707142Y-49617380D01*
X133945238Y-49617380D01*
X134040476Y-49665000D01*
X134088095Y-49712619D01*
X134135714Y-49807857D01*
X134135714Y-49903095D01*
X134088095Y-50045952D01*
X133516666Y-50617380D01*
X134135714Y-50617380D01*
X139604761Y-86272619D02*
X139509523Y-86225000D01*
X139414285Y-86129761D01*
X139271428Y-85986904D01*
X139176190Y-85939285D01*
X139080952Y-85939285D01*
X139128571Y-86177380D02*
X139033333Y-86129761D01*
X138938095Y-86034523D01*
X138890476Y-85844047D01*
X138890476Y-85510714D01*
X138938095Y-85320238D01*
X139033333Y-85225000D01*
X139128571Y-85177380D01*
X139319047Y-85177380D01*
X139414285Y-85225000D01*
X139509523Y-85320238D01*
X139557142Y-85510714D01*
X139557142Y-85844047D01*
X139509523Y-86034523D01*
X139414285Y-86129761D01*
X139319047Y-86177380D01*
X139128571Y-86177380D01*
X140509523Y-86177380D02*
X139938095Y-86177380D01*
X140223809Y-86177380D02*
X140223809Y-85177380D01*
X140128571Y-85320238D01*
X140033333Y-85415476D01*
X139938095Y-85463095D01*
X140493761Y-58205619D02*
X140398523Y-58158000D01*
X140303285Y-58062761D01*
X140160428Y-57919904D01*
X140065190Y-57872285D01*
X139969952Y-57872285D01*
X140017571Y-58110380D02*
X139922333Y-58062761D01*
X139827095Y-57967523D01*
X139779476Y-57777047D01*
X139779476Y-57443714D01*
X139827095Y-57253238D01*
X139922333Y-57158000D01*
X140017571Y-57110380D01*
X140208047Y-57110380D01*
X140303285Y-57158000D01*
X140398523Y-57253238D01*
X140446142Y-57443714D01*
X140446142Y-57777047D01*
X140398523Y-57967523D01*
X140303285Y-58062761D01*
X140208047Y-58110380D01*
X140017571Y-58110380D01*
X140827095Y-57205619D02*
X140874714Y-57158000D01*
X140969952Y-57110380D01*
X141208047Y-57110380D01*
X141303285Y-57158000D01*
X141350904Y-57205619D01*
X141398523Y-57300857D01*
X141398523Y-57396095D01*
X141350904Y-57538952D01*
X140779476Y-58110380D01*
X141398523Y-58110380D01*
X114839761Y-64682619D02*
X114744523Y-64635000D01*
X114649285Y-64539761D01*
X114506428Y-64396904D01*
X114411190Y-64349285D01*
X114315952Y-64349285D01*
X114363571Y-64587380D02*
X114268333Y-64539761D01*
X114173095Y-64444523D01*
X114125476Y-64254047D01*
X114125476Y-63920714D01*
X114173095Y-63730238D01*
X114268333Y-63635000D01*
X114363571Y-63587380D01*
X114554047Y-63587380D01*
X114649285Y-63635000D01*
X114744523Y-63730238D01*
X114792142Y-63920714D01*
X114792142Y-64254047D01*
X114744523Y-64444523D01*
X114649285Y-64539761D01*
X114554047Y-64587380D01*
X114363571Y-64587380D01*
X115125476Y-63587380D02*
X115744523Y-63587380D01*
X115411190Y-63968333D01*
X115554047Y-63968333D01*
X115649285Y-64015952D01*
X115696904Y-64063571D01*
X115744523Y-64158809D01*
X115744523Y-64396904D01*
X115696904Y-64492142D01*
X115649285Y-64539761D01*
X115554047Y-64587380D01*
X115268333Y-64587380D01*
X115173095Y-64539761D01*
X115125476Y-64492142D01*
X135883333Y-86177380D02*
X135550000Y-85701190D01*
X135311904Y-86177380D02*
X135311904Y-85177380D01*
X135692857Y-85177380D01*
X135788095Y-85225000D01*
X135835714Y-85272619D01*
X135883333Y-85367857D01*
X135883333Y-85510714D01*
X135835714Y-85605952D01*
X135788095Y-85653571D01*
X135692857Y-85701190D01*
X135311904Y-85701190D01*
X136835714Y-86177380D02*
X136264285Y-86177380D01*
X136550000Y-86177380D02*
X136550000Y-85177380D01*
X136454761Y-85320238D01*
X136359523Y-85415476D01*
X136264285Y-85463095D01*
X126198333Y-63952380D02*
X125865000Y-63476190D01*
X125626904Y-63952380D02*
X125626904Y-62952380D01*
X126007857Y-62952380D01*
X126103095Y-63000000D01*
X126150714Y-63047619D01*
X126198333Y-63142857D01*
X126198333Y-63285714D01*
X126150714Y-63380952D01*
X126103095Y-63428571D01*
X126007857Y-63476190D01*
X125626904Y-63476190D01*
X126579285Y-63047619D02*
X126626904Y-63000000D01*
X126722142Y-62952380D01*
X126960238Y-62952380D01*
X127055476Y-63000000D01*
X127103095Y-63047619D01*
X127150714Y-63142857D01*
X127150714Y-63238095D01*
X127103095Y-63380952D01*
X126531666Y-63952380D01*
X127150714Y-63952380D01*
X136723778Y-80505029D02*
X136390445Y-80028839D01*
X136152349Y-80505029D02*
X136152349Y-79505029D01*
X136533302Y-79505029D01*
X136628540Y-79552649D01*
X136676159Y-79600268D01*
X136723778Y-79695506D01*
X136723778Y-79838363D01*
X136676159Y-79933601D01*
X136628540Y-79981220D01*
X136533302Y-80028839D01*
X136152349Y-80028839D01*
X137057111Y-79505029D02*
X137676159Y-79505029D01*
X137342825Y-79885982D01*
X137485683Y-79885982D01*
X137580921Y-79933601D01*
X137628540Y-79981220D01*
X137676159Y-80076458D01*
X137676159Y-80314553D01*
X137628540Y-80409791D01*
X137580921Y-80457410D01*
X137485683Y-80505029D01*
X137199968Y-80505029D01*
X137104730Y-80457410D01*
X137057111Y-80409791D01*
X133564333Y-63825380D02*
X133231000Y-63349190D01*
X132992904Y-63825380D02*
X132992904Y-62825380D01*
X133373857Y-62825380D01*
X133469095Y-62873000D01*
X133516714Y-62920619D01*
X133564333Y-63015857D01*
X133564333Y-63158714D01*
X133516714Y-63253952D01*
X133469095Y-63301571D01*
X133373857Y-63349190D01*
X132992904Y-63349190D01*
X134421476Y-63158714D02*
X134421476Y-63825380D01*
X134183380Y-62777761D02*
X133945285Y-63492047D01*
X134564333Y-63492047D01*
X131913333Y-57856380D02*
X131580000Y-57380190D01*
X131341904Y-57856380D02*
X131341904Y-56856380D01*
X131722857Y-56856380D01*
X131818095Y-56904000D01*
X131865714Y-56951619D01*
X131913333Y-57046857D01*
X131913333Y-57189714D01*
X131865714Y-57284952D01*
X131818095Y-57332571D01*
X131722857Y-57380190D01*
X131341904Y-57380190D01*
X132818095Y-56856380D02*
X132341904Y-56856380D01*
X132294285Y-57332571D01*
X132341904Y-57284952D01*
X132437142Y-57237333D01*
X132675238Y-57237333D01*
X132770476Y-57284952D01*
X132818095Y-57332571D01*
X132865714Y-57427809D01*
X132865714Y-57665904D01*
X132818095Y-57761142D01*
X132770476Y-57808761D01*
X132675238Y-57856380D01*
X132437142Y-57856380D01*
X132341904Y-57808761D01*
X132294285Y-57761142D01*
X135088333Y-56332380D02*
X134755000Y-55856190D01*
X134516904Y-56332380D02*
X134516904Y-55332380D01*
X134897857Y-55332380D01*
X134993095Y-55380000D01*
X135040714Y-55427619D01*
X135088333Y-55522857D01*
X135088333Y-55665714D01*
X135040714Y-55760952D01*
X134993095Y-55808571D01*
X134897857Y-55856190D01*
X134516904Y-55856190D01*
X135945476Y-55332380D02*
X135755000Y-55332380D01*
X135659761Y-55380000D01*
X135612142Y-55427619D01*
X135516904Y-55570476D01*
X135469285Y-55760952D01*
X135469285Y-56141904D01*
X135516904Y-56237142D01*
X135564523Y-56284761D01*
X135659761Y-56332380D01*
X135850238Y-56332380D01*
X135945476Y-56284761D01*
X135993095Y-56237142D01*
X136040714Y-56141904D01*
X136040714Y-55903809D01*
X135993095Y-55808571D01*
X135945476Y-55760952D01*
X135850238Y-55713333D01*
X135659761Y-55713333D01*
X135564523Y-55760952D01*
X135516904Y-55808571D01*
X135469285Y-55903809D01*
X134961333Y-65095380D02*
X134628000Y-64619190D01*
X134389904Y-65095380D02*
X134389904Y-64095380D01*
X134770857Y-64095380D01*
X134866095Y-64143000D01*
X134913714Y-64190619D01*
X134961333Y-64285857D01*
X134961333Y-64428714D01*
X134913714Y-64523952D01*
X134866095Y-64571571D01*
X134770857Y-64619190D01*
X134389904Y-64619190D01*
X135294666Y-64095380D02*
X135961333Y-64095380D01*
X135532761Y-65095380D01*
X134834333Y-67381380D02*
X134501000Y-66905190D01*
X134262904Y-67381380D02*
X134262904Y-66381380D01*
X134643857Y-66381380D01*
X134739095Y-66429000D01*
X134786714Y-66476619D01*
X134834333Y-66571857D01*
X134834333Y-66714714D01*
X134786714Y-66809952D01*
X134739095Y-66857571D01*
X134643857Y-66905190D01*
X134262904Y-66905190D01*
X135405761Y-66809952D02*
X135310523Y-66762333D01*
X135262904Y-66714714D01*
X135215285Y-66619476D01*
X135215285Y-66571857D01*
X135262904Y-66476619D01*
X135310523Y-66429000D01*
X135405761Y-66381380D01*
X135596238Y-66381380D01*
X135691476Y-66429000D01*
X135739095Y-66476619D01*
X135786714Y-66571857D01*
X135786714Y-66619476D01*
X135739095Y-66714714D01*
X135691476Y-66762333D01*
X135596238Y-66809952D01*
X135405761Y-66809952D01*
X135310523Y-66857571D01*
X135262904Y-66905190D01*
X135215285Y-67000428D01*
X135215285Y-67190904D01*
X135262904Y-67286142D01*
X135310523Y-67333761D01*
X135405761Y-67381380D01*
X135596238Y-67381380D01*
X135691476Y-67333761D01*
X135739095Y-67286142D01*
X135786714Y-67190904D01*
X135786714Y-67000428D01*
X135739095Y-66905190D01*
X135691476Y-66857571D01*
X135596238Y-66809952D01*
X134867333Y-72715380D02*
X134534000Y-72239190D01*
X134295904Y-72715380D02*
X134295904Y-71715380D01*
X134676857Y-71715380D01*
X134772095Y-71763000D01*
X134819714Y-71810619D01*
X134867333Y-71905857D01*
X134867333Y-72048714D01*
X134819714Y-72143952D01*
X134772095Y-72191571D01*
X134676857Y-72239190D01*
X134295904Y-72239190D01*
X135343523Y-72715380D02*
X135534000Y-72715380D01*
X135629238Y-72667761D01*
X135676857Y-72620142D01*
X135772095Y-72477285D01*
X135819714Y-72286809D01*
X135819714Y-71905857D01*
X135772095Y-71810619D01*
X135724476Y-71763000D01*
X135629238Y-71715380D01*
X135438761Y-71715380D01*
X135343523Y-71763000D01*
X135295904Y-71810619D01*
X135248285Y-71905857D01*
X135248285Y-72143952D01*
X135295904Y-72239190D01*
X135343523Y-72286809D01*
X135438761Y-72334428D01*
X135629238Y-72334428D01*
X135724476Y-72286809D01*
X135772095Y-72239190D01*
X135819714Y-72143952D01*
X134057142Y-75636380D02*
X133723809Y-75160190D01*
X133485714Y-75636380D02*
X133485714Y-74636380D01*
X133866666Y-74636380D01*
X133961904Y-74684000D01*
X134009523Y-74731619D01*
X134057142Y-74826857D01*
X134057142Y-74969714D01*
X134009523Y-75064952D01*
X133961904Y-75112571D01*
X133866666Y-75160190D01*
X133485714Y-75160190D01*
X135009523Y-75636380D02*
X134438095Y-75636380D01*
X134723809Y-75636380D02*
X134723809Y-74636380D01*
X134628571Y-74779238D01*
X134533333Y-74874476D01*
X134438095Y-74922095D01*
X135628571Y-74636380D02*
X135723809Y-74636380D01*
X135819047Y-74684000D01*
X135866666Y-74731619D01*
X135914285Y-74826857D01*
X135961904Y-75017333D01*
X135961904Y-75255428D01*
X135914285Y-75445904D01*
X135866666Y-75541142D01*
X135819047Y-75588761D01*
X135723809Y-75636380D01*
X135628571Y-75636380D01*
X135533333Y-75588761D01*
X135485714Y-75541142D01*
X135438095Y-75445904D01*
X135390476Y-75255428D01*
X135390476Y-75017333D01*
X135438095Y-74826857D01*
X135485714Y-74731619D01*
X135533333Y-74684000D01*
X135628571Y-74636380D01*
X129405142Y-65984380D02*
X129071809Y-65508190D01*
X128833714Y-65984380D02*
X128833714Y-64984380D01*
X129214666Y-64984380D01*
X129309904Y-65032000D01*
X129357523Y-65079619D01*
X129405142Y-65174857D01*
X129405142Y-65317714D01*
X129357523Y-65412952D01*
X129309904Y-65460571D01*
X129214666Y-65508190D01*
X128833714Y-65508190D01*
X130357523Y-65984380D02*
X129786095Y-65984380D01*
X130071809Y-65984380D02*
X130071809Y-64984380D01*
X129976571Y-65127238D01*
X129881333Y-65222476D01*
X129786095Y-65270095D01*
X131309904Y-65984380D02*
X130738476Y-65984380D01*
X131024190Y-65984380D02*
X131024190Y-64984380D01*
X130928952Y-65127238D01*
X130833714Y-65222476D01*
X130738476Y-65270095D01*
X112467142Y-73037380D02*
X112133809Y-72561190D01*
X111895714Y-73037380D02*
X111895714Y-72037380D01*
X112276666Y-72037380D01*
X112371904Y-72085000D01*
X112419523Y-72132619D01*
X112467142Y-72227857D01*
X112467142Y-72370714D01*
X112419523Y-72465952D01*
X112371904Y-72513571D01*
X112276666Y-72561190D01*
X111895714Y-72561190D01*
X113419523Y-73037380D02*
X112848095Y-73037380D01*
X113133809Y-73037380D02*
X113133809Y-72037380D01*
X113038571Y-72180238D01*
X112943333Y-72275476D01*
X112848095Y-72323095D01*
X113800476Y-72132619D02*
X113848095Y-72085000D01*
X113943333Y-72037380D01*
X114181428Y-72037380D01*
X114276666Y-72085000D01*
X114324285Y-72132619D01*
X114371904Y-72227857D01*
X114371904Y-72323095D01*
X114324285Y-72465952D01*
X113752857Y-73037380D01*
X114371904Y-73037380D01*
X117547142Y-73037380D02*
X117213809Y-72561190D01*
X116975714Y-73037380D02*
X116975714Y-72037380D01*
X117356666Y-72037380D01*
X117451904Y-72085000D01*
X117499523Y-72132619D01*
X117547142Y-72227857D01*
X117547142Y-72370714D01*
X117499523Y-72465952D01*
X117451904Y-72513571D01*
X117356666Y-72561190D01*
X116975714Y-72561190D01*
X118499523Y-73037380D02*
X117928095Y-73037380D01*
X118213809Y-73037380D02*
X118213809Y-72037380D01*
X118118571Y-72180238D01*
X118023333Y-72275476D01*
X117928095Y-72323095D01*
X118832857Y-72037380D02*
X119451904Y-72037380D01*
X119118571Y-72418333D01*
X119261428Y-72418333D01*
X119356666Y-72465952D01*
X119404285Y-72513571D01*
X119451904Y-72608809D01*
X119451904Y-72846904D01*
X119404285Y-72942142D01*
X119356666Y-72989761D01*
X119261428Y-73037380D01*
X118975714Y-73037380D01*
X118880476Y-72989761D01*
X118832857Y-72942142D01*
X144729761Y-69748333D02*
X144777380Y-69605476D01*
X144777380Y-69367380D01*
X144729761Y-69272142D01*
X144682142Y-69224523D01*
X144586904Y-69176904D01*
X144491666Y-69176904D01*
X144396428Y-69224523D01*
X144348809Y-69272142D01*
X144301190Y-69367380D01*
X144253571Y-69557857D01*
X144205952Y-69653095D01*
X144158333Y-69700714D01*
X144063095Y-69748333D01*
X143967857Y-69748333D01*
X143872619Y-69700714D01*
X143825000Y-69653095D01*
X143777380Y-69557857D01*
X143777380Y-69319761D01*
X143825000Y-69176904D01*
X143777380Y-68843571D02*
X144777380Y-68605476D01*
X144063095Y-68415000D01*
X144777380Y-68224523D01*
X143777380Y-67986428D01*
X144777380Y-67081666D02*
X144777380Y-67653095D01*
X144777380Y-67367380D02*
X143777380Y-67367380D01*
X143920238Y-67462619D01*
X144015476Y-67557857D01*
X144063095Y-67653095D01*
X144729761Y-81178333D02*
X144777380Y-81035476D01*
X144777380Y-80797380D01*
X144729761Y-80702142D01*
X144682142Y-80654523D01*
X144586904Y-80606904D01*
X144491666Y-80606904D01*
X144396428Y-80654523D01*
X144348809Y-80702142D01*
X144301190Y-80797380D01*
X144253571Y-80987857D01*
X144205952Y-81083095D01*
X144158333Y-81130714D01*
X144063095Y-81178333D01*
X143967857Y-81178333D01*
X143872619Y-81130714D01*
X143825000Y-81083095D01*
X143777380Y-80987857D01*
X143777380Y-80749761D01*
X143825000Y-80606904D01*
X143777380Y-80273571D02*
X144777380Y-80035476D01*
X144063095Y-79845000D01*
X144777380Y-79654523D01*
X143777380Y-79416428D01*
X143872619Y-79083095D02*
X143825000Y-79035476D01*
X143777380Y-78940238D01*
X143777380Y-78702142D01*
X143825000Y-78606904D01*
X143872619Y-78559285D01*
X143967857Y-78511666D01*
X144063095Y-78511666D01*
X144205952Y-78559285D01*
X144777380Y-79130714D01*
X144777380Y-78511666D01*
X123086904Y-94432380D02*
X123086904Y-93432380D01*
X123658333Y-94432380D02*
X123229761Y-93860952D01*
X123658333Y-93432380D02*
X123086904Y-94003809D01*
X124039285Y-93527619D02*
X124086904Y-93480000D01*
X124182142Y-93432380D01*
X124420238Y-93432380D01*
X124515476Y-93480000D01*
X124563095Y-93527619D01*
X124610714Y-93622857D01*
X124610714Y-93718095D01*
X124563095Y-93860952D01*
X123991666Y-94432380D01*
X124610714Y-94432380D01*
X121158095Y-52792380D02*
X121158095Y-53601904D01*
X121205714Y-53697142D01*
X121253333Y-53744761D01*
X121348571Y-53792380D01*
X121539047Y-53792380D01*
X121634285Y-53744761D01*
X121681904Y-53697142D01*
X121729523Y-53601904D01*
X121729523Y-52792380D01*
X122729523Y-53792380D02*
X122158095Y-53792380D01*
X122443809Y-53792380D02*
X122443809Y-52792380D01*
X122348571Y-52935238D01*
X122253333Y-53030476D01*
X122158095Y-53078095D01*
M02*
