G04 #@! TF.GenerationSoftware,KiCad,Pcbnew,(2017-08-02 revision 9760937)-master*
G04 #@! TF.CreationDate,2017-09-16T10:46:18-07:00*
G04 #@! TF.ProjectId,RCSMCtrl,5243534D4374726C2E6B696361645F70,NC*
G04 #@! TF.SameCoordinates,Original*
G04 #@! TF.FileFunction,Copper,L2,Bot,Signal*
G04 #@! TF.FilePolarity,Positive*
%FSLAX46Y46*%
G04 Gerber Fmt 4.6, Leading zero omitted, Abs format (unit mm)*
G04 Created by KiCad (PCBNEW (2017-08-02 revision 9760937)-master) date Saturday, September 16, 2017 'AMt' 10:46:18 AM*
%MOMM*%
%LPD*%
G01*
G04 APERTURE LIST*
%ADD10R,2.500000X2.500000*%
%ADD11O,2.500000X2.500000*%
%ADD12O,5.080000X3.175000*%
%ADD13C,1.501140*%
%ADD14O,1.600000X1.600000*%
%ADD15R,1.727200X2.032000*%
%ADD16O,1.727200X2.032000*%
%ADD17O,0.899160X1.501140*%
%ADD18C,1.016000*%
%ADD19C,0.635000*%
%ADD20C,2.032000*%
%ADD21C,1.270000*%
%ADD22C,0.508000*%
%ADD23C,1.016000*%
G04 APERTURE END LIST*
D10*
X132080000Y-81280000D03*
D11*
X117080000Y-81280000D03*
X112080000Y-81280000D03*
X107080000Y-81280000D03*
X107080000Y-88780000D03*
X112080000Y-88780000D03*
X117080000Y-88780000D03*
X132080000Y-88780000D03*
D12*
X100965000Y-51435000D03*
X100965000Y-55245000D03*
X100965000Y-59055000D03*
X100965000Y-62865000D03*
X100965000Y-66675000D03*
X100965000Y-70485000D03*
X100965000Y-74295000D03*
X100965000Y-78105000D03*
X100965000Y-81915000D03*
X100965000Y-85725000D03*
X100965000Y-89535000D03*
X100965000Y-93345000D03*
X100965000Y-97155000D03*
X100965000Y-100965000D03*
X100965000Y-104775000D03*
D13*
X111760000Y-58420000D03*
X111760000Y-55880000D03*
D14*
X123825000Y-76200000D03*
X126365000Y-76200000D03*
X128905000Y-76200000D03*
X131445000Y-76200000D03*
X131445000Y-68580000D03*
X128905000Y-68580000D03*
X126365000Y-68580000D03*
X123825000Y-68580000D03*
D15*
X133985000Y-52705000D03*
D16*
X136525000Y-52705000D03*
X139065000Y-52705000D03*
D17*
X139700000Y-87630000D03*
X140970000Y-87630000D03*
X138430000Y-87630000D03*
X138430000Y-60325000D03*
X139700000Y-60325000D03*
X137160000Y-60325000D03*
X116840000Y-67310000D03*
X118110000Y-67310000D03*
X115570000Y-67310000D03*
D11*
X132080000Y-102750000D03*
X117080000Y-102750000D03*
X112080000Y-102750000D03*
X107080000Y-102750000D03*
X107080000Y-95250000D03*
X112080000Y-95250000D03*
X117080000Y-95250000D03*
D10*
X132080000Y-95250000D03*
D18*
X142875000Y-93980000D03*
X107315000Y-60325000D03*
X140335000Y-69850000D03*
X140335000Y-78105000D03*
X120650000Y-64135000D03*
X132080000Y-58420000D03*
X120650000Y-56515000D03*
X127000000Y-62865000D03*
X123825000Y-61595000D03*
X120015000Y-66675000D03*
D19*
X138430000Y-87630000D02*
X138430000Y-86244430D01*
X138430000Y-86244430D02*
X139584430Y-85090000D01*
X139065000Y-55245000D02*
X139065000Y-52705000D01*
X139584430Y-85090000D02*
X144780000Y-85090000D01*
X144780000Y-85090000D02*
X146050000Y-83820000D01*
X146050000Y-83820000D02*
X146050000Y-62230000D01*
X146050000Y-62230000D02*
X139065000Y-55245000D01*
X112510569Y-60440569D02*
X115570000Y-63500000D01*
X115570000Y-63500000D02*
X115570000Y-67310000D01*
X111760000Y-58420000D02*
X112510569Y-59170569D01*
X112510569Y-59170569D02*
X112510569Y-60440569D01*
X138430000Y-87630000D02*
X138430000Y-89535000D01*
X138430000Y-89535000D02*
X142875000Y-93980000D01*
X132080000Y-88780000D02*
X107315000Y-64015000D01*
X107315000Y-64015000D02*
X107315000Y-60325000D01*
D20*
X107315000Y-60325000D02*
X107315000Y-55880000D01*
X107315000Y-55880000D02*
X111760000Y-55880000D01*
D19*
X142875000Y-60325000D02*
X139065000Y-56515000D01*
X139065000Y-56515000D02*
X135001000Y-56515000D01*
X142875000Y-61595000D02*
X142875000Y-60325000D01*
X140335000Y-64135000D02*
X142875000Y-61595000D01*
X140335000Y-69850000D02*
X140335000Y-64135000D01*
X140335000Y-78105000D02*
X140335000Y-69850000D01*
X120650000Y-64135000D02*
X120650000Y-56515000D01*
D21*
X135001000Y-56515000D02*
X132080000Y-56515000D01*
X132080000Y-56515000D02*
X120650000Y-56515000D01*
D19*
X132080000Y-58420000D02*
X132080000Y-56515000D01*
X137160000Y-60325000D02*
X137160000Y-58939430D01*
X137160000Y-58939430D02*
X135001000Y-56780430D01*
X135001000Y-56780430D02*
X135001000Y-56515000D01*
D21*
X136525000Y-52705000D02*
X136525000Y-54991000D01*
X136525000Y-54991000D02*
X135001000Y-56515000D01*
D19*
X132080000Y-81280000D02*
X133965000Y-81280000D01*
X133965000Y-81280000D02*
X135255000Y-82570000D01*
X135255000Y-82570000D02*
X135255000Y-93960000D01*
X135255000Y-93960000D02*
X133965000Y-95250000D01*
X133965000Y-95250000D02*
X132080000Y-95250000D01*
D22*
X123825000Y-61595000D02*
X125730000Y-61595000D01*
X125730000Y-61595000D02*
X127000000Y-62865000D01*
D23*
X112080000Y-95250000D02*
X114935000Y-92395000D01*
X114935000Y-92395000D02*
X114935000Y-75565000D01*
X114935000Y-75565000D02*
X105410000Y-66040000D01*
X105410000Y-66040000D02*
X105410000Y-52705000D01*
X105410000Y-52705000D02*
X104140000Y-51435000D01*
X104140000Y-51435000D02*
X100965000Y-51435000D01*
D19*
X134620000Y-67354902D02*
X134620000Y-73025000D01*
X134620000Y-73025000D02*
X131445000Y-76200000D01*
X139700000Y-60325000D02*
X139700000Y-62274902D01*
X139700000Y-62274902D02*
X134620000Y-67354902D01*
D22*
X121285000Y-66675000D02*
X120015000Y-66675000D01*
X128131370Y-66675000D02*
X121285000Y-66675000D01*
X128905000Y-68580000D02*
X128905000Y-67448630D01*
X128905000Y-67448630D02*
X128131370Y-66675000D01*
D20*
X107080000Y-88780000D02*
X107080000Y-90547766D01*
X107080000Y-90547766D02*
X104282766Y-93345000D01*
X104282766Y-93345000D02*
X100965000Y-93345000D01*
X112062766Y-100965000D02*
X112062766Y-100632766D01*
X112062766Y-100632766D02*
X110490000Y-99060000D01*
X100965000Y-100965000D02*
X103505000Y-100965000D01*
X103505000Y-100965000D02*
X105410000Y-99060000D01*
X105410000Y-99060000D02*
X110490000Y-99060000D01*
X112080000Y-100982234D02*
X112080000Y-102750000D01*
X112062766Y-100965000D02*
X112080000Y-100982234D01*
D23*
X109620000Y-92710000D02*
X109620000Y-74377500D01*
X109620000Y-74377500D02*
X101917500Y-66675000D01*
X101917500Y-66675000D02*
X100965000Y-66675000D01*
X107080000Y-95250000D02*
X109620000Y-92710000D01*
M02*
