G04 #@! TF.GenerationSoftware,KiCad,Pcbnew,(2017-08-02 revision 9760937)-master*
G04 #@! TF.CreationDate,2017-09-16T10:46:18-07:00*
G04 #@! TF.ProjectId,RCSMCtrl,5243534D4374726C2E6B696361645F70,NC*
G04 #@! TF.SameCoordinates,Original*
G04 #@! TF.FileFunction,Soldermask,Bot*
G04 #@! TF.FilePolarity,Negative*
%FSLAX46Y46*%
G04 Gerber Fmt 4.6, Leading zero omitted, Abs format (unit mm)*
G04 Created by KiCad (PCBNEW (2017-08-02 revision 9760937)-master) date Saturday, September 16, 2017 'AMt' 10:46:18 AM*
%MOMM*%
%LPD*%
G01*
G04 APERTURE LIST*
%ADD10C,0.300000*%
%ADD11R,2.500000X2.500000*%
%ADD12O,2.500000X2.500000*%
%ADD13O,5.080000X3.175000*%
%ADD14C,1.501140*%
%ADD15O,1.600000X1.600000*%
%ADD16R,1.727200X2.032000*%
%ADD17O,1.727200X2.032000*%
%ADD18O,0.899160X1.501140*%
G04 APERTURE END LIST*
D10*
X109570000Y-117518571D02*
X109570000Y-116018571D01*
X109927142Y-116018571D01*
X110141428Y-116090000D01*
X110284285Y-116232857D01*
X110355714Y-116375714D01*
X110427142Y-116661428D01*
X110427142Y-116875714D01*
X110355714Y-117161428D01*
X110284285Y-117304285D01*
X110141428Y-117447142D01*
X109927142Y-117518571D01*
X109570000Y-117518571D01*
X111070000Y-117518571D02*
X111070000Y-116018571D01*
X111570000Y-117090000D01*
X112070000Y-116018571D01*
X112070000Y-117518571D01*
X113284285Y-116732857D02*
X112784285Y-116732857D01*
X112784285Y-117518571D02*
X112784285Y-116018571D01*
X113498571Y-116018571D01*
X114070000Y-116732857D02*
X114570000Y-116732857D01*
X114784285Y-117518571D02*
X114070000Y-117518571D01*
X114070000Y-116018571D01*
X114784285Y-116018571D01*
X116498571Y-116161428D02*
X116570000Y-116090000D01*
X116712857Y-116018571D01*
X117070000Y-116018571D01*
X117212857Y-116090000D01*
X117284285Y-116161428D01*
X117355714Y-116304285D01*
X117355714Y-116447142D01*
X117284285Y-116661428D01*
X116427142Y-117518571D01*
X117355714Y-117518571D01*
X118284285Y-116018571D02*
X118427142Y-116018571D01*
X118570000Y-116090000D01*
X118641428Y-116161428D01*
X118712857Y-116304285D01*
X118784285Y-116590000D01*
X118784285Y-116947142D01*
X118712857Y-117232857D01*
X118641428Y-117375714D01*
X118570000Y-117447142D01*
X118427142Y-117518571D01*
X118284285Y-117518571D01*
X118141428Y-117447142D01*
X118070000Y-117375714D01*
X117998571Y-117232857D01*
X117927142Y-116947142D01*
X117927142Y-116590000D01*
X117998571Y-116304285D01*
X118070000Y-116161428D01*
X118141428Y-116090000D01*
X118284285Y-116018571D01*
X120212857Y-117518571D02*
X119355714Y-117518571D01*
X119784285Y-117518571D02*
X119784285Y-116018571D01*
X119641428Y-116232857D01*
X119498571Y-116375714D01*
X119355714Y-116447142D01*
X120712857Y-116018571D02*
X121712857Y-116018571D01*
X121070000Y-117518571D01*
D11*
X132080000Y-81280000D03*
D12*
X117080000Y-81280000D03*
X112080000Y-81280000D03*
X107080000Y-81280000D03*
X107080000Y-88780000D03*
X112080000Y-88780000D03*
X117080000Y-88780000D03*
X132080000Y-88780000D03*
D13*
X100965000Y-51435000D03*
X100965000Y-55245000D03*
X100965000Y-59055000D03*
X100965000Y-62865000D03*
X100965000Y-66675000D03*
X100965000Y-70485000D03*
X100965000Y-74295000D03*
X100965000Y-78105000D03*
X100965000Y-81915000D03*
X100965000Y-85725000D03*
X100965000Y-89535000D03*
X100965000Y-93345000D03*
X100965000Y-97155000D03*
X100965000Y-100965000D03*
X100965000Y-104775000D03*
D14*
X111760000Y-58420000D03*
X111760000Y-55880000D03*
D15*
X123825000Y-76200000D03*
X126365000Y-76200000D03*
X128905000Y-76200000D03*
X131445000Y-76200000D03*
X131445000Y-68580000D03*
X128905000Y-68580000D03*
X126365000Y-68580000D03*
X123825000Y-68580000D03*
D16*
X133985000Y-52705000D03*
D17*
X136525000Y-52705000D03*
X139065000Y-52705000D03*
D18*
X139700000Y-87630000D03*
X140970000Y-87630000D03*
X138430000Y-87630000D03*
X138430000Y-60325000D03*
X139700000Y-60325000D03*
X137160000Y-60325000D03*
X116840000Y-67310000D03*
X118110000Y-67310000D03*
X115570000Y-67310000D03*
D12*
X132080000Y-102750000D03*
X117080000Y-102750000D03*
X112080000Y-102750000D03*
X107080000Y-102750000D03*
X107080000Y-95250000D03*
X112080000Y-95250000D03*
X117080000Y-95250000D03*
D11*
X132080000Y-95250000D03*
M02*
