G04 #@! TF.GenerationSoftware,KiCad,Pcbnew,(2017-08-02 revision 9760937)-master*
G04 #@! TF.CreationDate,2017-09-16T10:46:18-07:00*
G04 #@! TF.ProjectId,RCSMCtrl,5243534D4374726C2E6B696361645F70,NC*
G04 #@! TF.SameCoordinates,Original*
G04 #@! TF.FileFunction,Soldermask,Top*
G04 #@! TF.FilePolarity,Negative*
%FSLAX46Y46*%
G04 Gerber Fmt 4.6, Leading zero omitted, Abs format (unit mm)*
G04 Created by KiCad (PCBNEW (2017-08-02 revision 9760937)-master) date Saturday, September 16, 2017 'AMt' 10:46:18 AM*
%MOMM*%
%LPD*%
G01*
G04 APERTURE LIST*
%ADD10R,2.500000X2.500000*%
%ADD11O,2.500000X2.500000*%
%ADD12O,5.080000X3.175000*%
%ADD13R,1.500000X1.250000*%
%ADD14C,1.501140*%
%ADD15R,3.500120X1.800860*%
%ADD16R,1.597660X1.800860*%
%ADD17O,1.600000X1.600000*%
%ADD18R,1.727200X2.032000*%
%ADD19O,1.727200X2.032000*%
%ADD20O,0.899160X1.501140*%
%ADD21R,1.500000X1.300000*%
%ADD22R,1.300000X1.550000*%
%ADD23R,6.400000X5.800000*%
%ADD24R,2.200000X1.200000*%
G04 APERTURE END LIST*
D10*
X132080000Y-81280000D03*
D11*
X117080000Y-81280000D03*
X112080000Y-81280000D03*
X107080000Y-81280000D03*
X107080000Y-88780000D03*
X112080000Y-88780000D03*
X117080000Y-88780000D03*
X132080000Y-88780000D03*
D12*
X100965000Y-51435000D03*
X100965000Y-55245000D03*
X100965000Y-59055000D03*
X100965000Y-62865000D03*
X100965000Y-66675000D03*
X100965000Y-70485000D03*
X100965000Y-74295000D03*
X100965000Y-78105000D03*
X100965000Y-81915000D03*
X100965000Y-85725000D03*
X100965000Y-89535000D03*
X100965000Y-93345000D03*
X100965000Y-97155000D03*
X100965000Y-100965000D03*
X100965000Y-104775000D03*
D13*
X129520000Y-59055000D03*
X127020000Y-59055000D03*
D14*
X111760000Y-58420000D03*
X111760000Y-55880000D03*
D13*
X118090000Y-53975000D03*
X115590000Y-53975000D03*
X121940000Y-64770000D03*
X124440000Y-64770000D03*
D15*
X138470640Y-91440000D03*
X143469360Y-91440000D03*
X138470640Y-95250000D03*
X143469360Y-95250000D03*
X118110000Y-60325000D03*
X123108720Y-60325000D03*
X111678720Y-51435000D03*
X106680000Y-51435000D03*
D16*
X139364720Y-69850000D03*
X136525000Y-69850000D03*
X139364720Y-78105000D03*
X136525000Y-78105000D03*
D15*
X106680000Y-62865000D03*
X111678720Y-62865000D03*
X106680000Y-67310000D03*
X111678720Y-67310000D03*
D17*
X123825000Y-76200000D03*
X126365000Y-76200000D03*
X128905000Y-76200000D03*
X131445000Y-76200000D03*
X131445000Y-68580000D03*
X128905000Y-68580000D03*
X126365000Y-68580000D03*
X123825000Y-68580000D03*
D18*
X133985000Y-52705000D03*
D19*
X136525000Y-52705000D03*
X139065000Y-52705000D03*
D20*
X139700000Y-87630000D03*
X140970000Y-87630000D03*
X138430000Y-87630000D03*
X138430000Y-60325000D03*
X139700000Y-60325000D03*
X137160000Y-60325000D03*
X116840000Y-67310000D03*
X118110000Y-67310000D03*
X115570000Y-67310000D03*
D21*
X139860000Y-83820000D03*
X137160000Y-83820000D03*
X129620000Y-61595000D03*
X126920000Y-61595000D03*
X137080000Y-81915000D03*
X139780000Y-81915000D03*
X134780000Y-61595000D03*
X132080000Y-61595000D03*
X132080000Y-59055000D03*
X134780000Y-59055000D03*
X140415000Y-55880000D03*
X137715000Y-55880000D03*
X137160000Y-64135000D03*
X139860000Y-64135000D03*
X137160000Y-66675000D03*
X139860000Y-66675000D03*
X137160000Y-72390000D03*
X139860000Y-72390000D03*
X137160000Y-75565000D03*
X139860000Y-75565000D03*
X131605000Y-64135000D03*
X128905000Y-64135000D03*
X114460000Y-70485000D03*
X111760000Y-70485000D03*
X119540000Y-70485000D03*
X116840000Y-70485000D03*
D22*
X147375000Y-72390000D03*
X142875000Y-72390000D03*
X142875000Y-64440000D03*
X147375000Y-64440000D03*
X147375000Y-83820000D03*
X142875000Y-83820000D03*
X142875000Y-75870000D03*
X147375000Y-75870000D03*
D11*
X132080000Y-102750000D03*
X117080000Y-102750000D03*
X112080000Y-102750000D03*
X107080000Y-102750000D03*
X107080000Y-95250000D03*
X112080000Y-95250000D03*
X117080000Y-95250000D03*
D10*
X132080000Y-95250000D03*
D23*
X127635000Y-53340000D03*
D24*
X121335000Y-55620000D03*
X121335000Y-51060000D03*
M02*
