M48
; DRILL file {KiCad (5.99.0-218-g4a79b08ca)} date Thursday, October 24, 2019 at 05:33:35 PM
; FORMAT={-:-/ absolute / metric / decimal}
; #@! TF.CreationDate,2019-10-24T17:33:35-07:00
; #@! TF.GenerationSoftware,Kicad,Pcbnew,(5.99.0-218-g4a79b08ca)
FMAT,2
METRIC
T1C0.559
T2C0.600
T3C0.800
T4C0.800
T5C1.000
T6C1.016
T7C1.397
T8C1.500
T9C3.500
%
G90
G05
T1
X114.3Y-61.595
X115.57Y-50.165
X115.57Y-51.435
X115.57Y-52.705
X116.108Y-55.148
X116.205Y-73.66
X116.84Y-50.165
X116.84Y-51.435
X116.84Y-52.705
X117.475Y-54.61
X117.475Y-57.15
X118.11Y-50.165
X118.11Y-51.435
X118.33Y-52.925
X118.745Y-54.61
X119.38Y-50.165
X119.575Y-53.145
X119.6Y-51.655
X120.015Y-54.61
X120.65Y-50.8
X121.92Y-56.515
X121.92Y-59.055
X122.555Y-50.8
X122.555Y-52.705
X122.769Y-54.396
X124.46Y-50.8
X124.46Y-52.705
X124.46Y-54.61
X124.46Y-55.88
X125.73Y-57.15
X126.365Y-52.705
X126.365Y-54.61
X127.0Y-50.8
X127.0Y-63.5
X128.27Y-57.15
X128.905Y-50.8
X128.905Y-53.34
X128.905Y-55.245
X134.62Y-70.485
X135.89Y-73.66
X139.105Y-82.59
X141.77Y-79.21
T2
X114.3Y-73.66
X114.3Y-74.93
X114.3Y-76.2
X121.285Y-62.865
X121.285Y-64.135
X121.285Y-65.405
X140.97Y-90.17
X140.97Y-91.44
X140.97Y-92.71
T3
X133.985Y-59.055
X136.485Y-59.055
X123.825Y-68.58
X123.825Y-76.2
X126.365Y-68.58
X126.365Y-76.2
X128.905Y-68.58
X128.905Y-76.2
X131.445Y-68.58
X131.445Y-76.2
T4
X106.68Y-56.515
X109.22Y-56.515
T5
X136.525Y-65.405
X139.065Y-65.405
X141.605Y-65.405
T6
X131.445Y-53.34
X133.985Y-53.34
X136.525Y-53.34
T7
X100.965Y-51.435
X100.965Y-55.245
X100.965Y-59.055
X100.965Y-62.865
X100.965Y-66.675
X100.965Y-70.485
X100.965Y-74.295
X100.965Y-78.105
X100.965Y-81.915
X100.965Y-85.725
X100.965Y-89.535
X100.965Y-93.345
X100.965Y-97.155
X100.965Y-100.965
X100.965Y-104.775
T8
X107.08Y-81.28
X107.08Y-88.78
X112.08Y-81.28
X112.08Y-88.78
X117.08Y-81.28
X117.08Y-88.78
X132.08Y-81.28
X132.08Y-88.78
X107.08Y-95.25
X107.08Y-102.75
X112.08Y-95.25
X112.08Y-102.75
X117.08Y-95.25
X117.08Y-102.75
X132.08Y-95.25
X132.08Y-102.75
T9
X146.05Y-100.965
X146.05Y-55.245
T0
M30
