G04 #@! TF.GenerationSoftware,KiCad,Pcbnew,(5.99.0-218-g4a79b08ca)*
G04 #@! TF.CreationDate,2019-10-24T17:32:45-07:00*
G04 #@! TF.ProjectId,RCSMCtrl,5243534d-4374-4726-9c2e-6b696361645f,NC*
G04 #@! TF.SameCoordinates,Original*
G04 #@! TF.FileFunction,Legend,Bot*
G04 #@! TF.FilePolarity,Positive*
%FSLAX46Y46*%
G04 Gerber Fmt 4.6, Leading zero omitted, Abs format (unit mm)*
G04 Created by KiCad (PCBNEW (5.99.0-218-g4a79b08ca)) date 2019-10-24 17:32:45*
%MOMM*%
%LPD*%
G04 APERTURE LIST*
%ADD10C,0.300000*%
G04 APERTURE END LIST*
D10*
X128269285Y-90690000D02*
X128412142Y-90618571D01*
X128626428Y-90618571D01*
X128840714Y-90690000D01*
X128983571Y-90832857D01*
X129055000Y-90975714D01*
X129126428Y-91261428D01*
X129126428Y-91475714D01*
X129055000Y-91761428D01*
X128983571Y-91904285D01*
X128840714Y-92047142D01*
X128626428Y-92118571D01*
X128483571Y-92118571D01*
X128269285Y-92047142D01*
X128197857Y-91975714D01*
X128197857Y-91475714D01*
X128483571Y-91475714D01*
X127626428Y-90761428D02*
X127555000Y-90690000D01*
X127412142Y-90618571D01*
X127055000Y-90618571D01*
X126912142Y-90690000D01*
X126840714Y-90761428D01*
X126769285Y-90904285D01*
X126769285Y-91047142D01*
X126840714Y-91261428D01*
X127697857Y-92118571D01*
X126769285Y-92118571D01*
X125269285Y-92118571D02*
X125769285Y-91404285D01*
X126126428Y-92118571D02*
X126126428Y-90618571D01*
X125555000Y-90618571D01*
X125412142Y-90690000D01*
X125340714Y-90761428D01*
X125269285Y-90904285D01*
X125269285Y-91118571D01*
X125340714Y-91261428D01*
X125412142Y-91332857D01*
X125555000Y-91404285D01*
X126126428Y-91404285D01*
X123697857Y-90618571D02*
X123197857Y-92118571D01*
X122697857Y-90618571D01*
X121626428Y-92047142D02*
X121769285Y-92118571D01*
X122055000Y-92118571D01*
X122197857Y-92047142D01*
X122269285Y-91904285D01*
X122269285Y-91332857D01*
X122197857Y-91190000D01*
X122055000Y-91118571D01*
X121769285Y-91118571D01*
X121626428Y-91190000D01*
X121555000Y-91332857D01*
X121555000Y-91475714D01*
X122269285Y-91618571D01*
X120912142Y-92118571D02*
X120912142Y-91118571D01*
X120912142Y-91404285D02*
X120840714Y-91261428D01*
X120769285Y-91190000D01*
X120626428Y-91118571D01*
X120483571Y-91118571D01*
X120055000Y-92047142D02*
X119912142Y-92118571D01*
X119626428Y-92118571D01*
X119483571Y-92047142D01*
X119412142Y-91904285D01*
X119412142Y-91832857D01*
X119483571Y-91690000D01*
X119626428Y-91618571D01*
X119840714Y-91618571D01*
X119983571Y-91547142D01*
X120055000Y-91404285D01*
X120055000Y-91332857D01*
X119983571Y-91190000D01*
X119840714Y-91118571D01*
X119626428Y-91118571D01*
X119483571Y-91190000D01*
X118769285Y-92118571D02*
X118769285Y-91118571D01*
X118769285Y-90618571D02*
X118840714Y-90690000D01*
X118769285Y-90761428D01*
X118697857Y-90690000D01*
X118769285Y-90618571D01*
X118769285Y-90761428D01*
X117840714Y-92118571D02*
X117983571Y-92047142D01*
X118055000Y-91975714D01*
X118126428Y-91832857D01*
X118126428Y-91404285D01*
X118055000Y-91261428D01*
X117983571Y-91190000D01*
X117840714Y-91118571D01*
X117626428Y-91118571D01*
X117483571Y-91190000D01*
X117412142Y-91261428D01*
X117340714Y-91404285D01*
X117340714Y-91832857D01*
X117412142Y-91975714D01*
X117483571Y-92047142D01*
X117626428Y-92118571D01*
X117840714Y-92118571D01*
X116697857Y-91118571D02*
X116697857Y-92118571D01*
X116697857Y-91261428D02*
X116626428Y-91190000D01*
X116483571Y-91118571D01*
X116269285Y-91118571D01*
X116126428Y-91190000D01*
X116055000Y-91332857D01*
X116055000Y-92118571D01*
X126253571Y-96563571D02*
X126753571Y-95849285D01*
X127110714Y-96563571D02*
X127110714Y-95063571D01*
X126539285Y-95063571D01*
X126396428Y-95135000D01*
X126325000Y-95206428D01*
X126253571Y-95349285D01*
X126253571Y-95563571D01*
X126325000Y-95706428D01*
X126396428Y-95777857D01*
X126539285Y-95849285D01*
X127110714Y-95849285D01*
X125039285Y-96492142D02*
X125182142Y-96563571D01*
X125467857Y-96563571D01*
X125610714Y-96492142D01*
X125682142Y-96349285D01*
X125682142Y-95777857D01*
X125610714Y-95635000D01*
X125467857Y-95563571D01*
X125182142Y-95563571D01*
X125039285Y-95635000D01*
X124967857Y-95777857D01*
X124967857Y-95920714D01*
X125682142Y-96063571D01*
X124467857Y-95563571D02*
X124110714Y-96563571D01*
X123753571Y-95563571D01*
X123182142Y-96420714D02*
X123110714Y-96492142D01*
X123182142Y-96563571D01*
X123253571Y-96492142D01*
X123182142Y-96420714D01*
X123182142Y-96563571D01*
X120825000Y-95777857D02*
X120610714Y-95849285D01*
X120539285Y-95920714D01*
X120467857Y-96063571D01*
X120467857Y-96277857D01*
X120539285Y-96420714D01*
X120610714Y-96492142D01*
X120753571Y-96563571D01*
X121325000Y-96563571D01*
X121325000Y-95063571D01*
X120825000Y-95063571D01*
X120682142Y-95135000D01*
X120610714Y-95206428D01*
X120539285Y-95349285D01*
X120539285Y-95492142D01*
X120610714Y-95635000D01*
X120682142Y-95706428D01*
X120825000Y-95777857D01*
X121325000Y-95777857D01*
X128555000Y-99738571D02*
X128555000Y-98238571D01*
X128197857Y-98238571D01*
X127983571Y-98310000D01*
X127840714Y-98452857D01*
X127769285Y-98595714D01*
X127697857Y-98881428D01*
X127697857Y-99095714D01*
X127769285Y-99381428D01*
X127840714Y-99524285D01*
X127983571Y-99667142D01*
X128197857Y-99738571D01*
X128555000Y-99738571D01*
X127055000Y-99738571D02*
X127055000Y-98238571D01*
X126555000Y-99310000D01*
X126055000Y-98238571D01*
X126055000Y-99738571D01*
X124840714Y-98952857D02*
X125340714Y-98952857D01*
X125340714Y-99738571D02*
X125340714Y-98238571D01*
X124626428Y-98238571D01*
X124055000Y-98952857D02*
X123555000Y-98952857D01*
X123340714Y-99738571D02*
X124055000Y-99738571D01*
X124055000Y-98238571D01*
X123340714Y-98238571D01*
X121626428Y-98381428D02*
X121555000Y-98310000D01*
X121412142Y-98238571D01*
X121055000Y-98238571D01*
X120912142Y-98310000D01*
X120840714Y-98381428D01*
X120769285Y-98524285D01*
X120769285Y-98667142D01*
X120840714Y-98881428D01*
X121697857Y-99738571D01*
X120769285Y-99738571D01*
X119840714Y-98238571D02*
X119697857Y-98238571D01*
X119555000Y-98310000D01*
X119483571Y-98381428D01*
X119412142Y-98524285D01*
X119340714Y-98810000D01*
X119340714Y-99167142D01*
X119412142Y-99452857D01*
X119483571Y-99595714D01*
X119555000Y-99667142D01*
X119697857Y-99738571D01*
X119840714Y-99738571D01*
X119983571Y-99667142D01*
X120055000Y-99595714D01*
X120126428Y-99452857D01*
X120197857Y-99167142D01*
X120197857Y-98810000D01*
X120126428Y-98524285D01*
X120055000Y-98381428D01*
X119983571Y-98310000D01*
X119840714Y-98238571D01*
X117912142Y-99738571D02*
X118769285Y-99738571D01*
X118340714Y-99738571D02*
X118340714Y-98238571D01*
X118483571Y-98452857D01*
X118626428Y-98595714D01*
X118769285Y-98667142D01*
X117197857Y-99738571D02*
X116912142Y-99738571D01*
X116769285Y-99667142D01*
X116697857Y-99595714D01*
X116555000Y-99381428D01*
X116483571Y-99095714D01*
X116483571Y-98524285D01*
X116555000Y-98381428D01*
X116626428Y-98310000D01*
X116769285Y-98238571D01*
X117055000Y-98238571D01*
X117197857Y-98310000D01*
X117269285Y-98381428D01*
X117340714Y-98524285D01*
X117340714Y-98881428D01*
X117269285Y-99024285D01*
X117197857Y-99095714D01*
X117055000Y-99167142D01*
X116769285Y-99167142D01*
X116626428Y-99095714D01*
X116555000Y-99024285D01*
X116483571Y-98881428D01*
X106660000Y-104588571D02*
X105731428Y-104588571D01*
X106231428Y-105160000D01*
X106017142Y-105160000D01*
X105874285Y-105231428D01*
X105802857Y-105302857D01*
X105731428Y-105445714D01*
X105731428Y-105802857D01*
X105802857Y-105945714D01*
X105874285Y-106017142D01*
X106017142Y-106088571D01*
X106445714Y-106088571D01*
X106588571Y-106017142D01*
X106660000Y-105945714D01*
X104231428Y-106088571D02*
X104731428Y-105374285D01*
X105088571Y-106088571D02*
X105088571Y-104588571D01*
X104517142Y-104588571D01*
X104374285Y-104660000D01*
X104302857Y-104731428D01*
X104231428Y-104874285D01*
X104231428Y-105088571D01*
X104302857Y-105231428D01*
X104374285Y-105302857D01*
X104517142Y-105374285D01*
X105088571Y-105374285D01*
X106660000Y-99508571D02*
X105731428Y-99508571D01*
X106231428Y-100080000D01*
X106017142Y-100080000D01*
X105874285Y-100151428D01*
X105802857Y-100222857D01*
X105731428Y-100365714D01*
X105731428Y-100722857D01*
X105802857Y-100865714D01*
X105874285Y-100937142D01*
X106017142Y-101008571D01*
X106445714Y-101008571D01*
X106588571Y-100937142D01*
X106660000Y-100865714D01*
X104231428Y-100865714D02*
X104302857Y-100937142D01*
X104517142Y-101008571D01*
X104660000Y-101008571D01*
X104874285Y-100937142D01*
X105017142Y-100794285D01*
X105088571Y-100651428D01*
X105160000Y-100365714D01*
X105160000Y-100151428D01*
X105088571Y-99865714D01*
X105017142Y-99722857D01*
X104874285Y-99580000D01*
X104660000Y-99508571D01*
X104517142Y-99508571D01*
X104302857Y-99580000D01*
X104231428Y-99651428D01*
X106695714Y-96968571D02*
X105767142Y-96968571D01*
X106267142Y-97540000D01*
X106052857Y-97540000D01*
X105910000Y-97611428D01*
X105838571Y-97682857D01*
X105767142Y-97825714D01*
X105767142Y-98182857D01*
X105838571Y-98325714D01*
X105910000Y-98397142D01*
X106052857Y-98468571D01*
X106481428Y-98468571D01*
X106624285Y-98397142D01*
X106695714Y-98325714D01*
X105124285Y-98468571D02*
X105124285Y-96968571D01*
X104267142Y-98468571D01*
X104267142Y-96968571D01*
X106334571Y-92666428D02*
X106263142Y-92595000D01*
X106120285Y-92523571D01*
X105763142Y-92523571D01*
X105620285Y-92595000D01*
X105548857Y-92666428D01*
X105477428Y-92809285D01*
X105477428Y-92952142D01*
X105548857Y-93166428D01*
X106406000Y-94023571D01*
X105477428Y-94023571D01*
X103977428Y-94023571D02*
X104477428Y-93309285D01*
X104834571Y-94023571D02*
X104834571Y-92523571D01*
X104263142Y-92523571D01*
X104120285Y-92595000D01*
X104048857Y-92666428D01*
X103977428Y-92809285D01*
X103977428Y-93023571D01*
X104048857Y-93166428D01*
X104120285Y-93237857D01*
X104263142Y-93309285D01*
X104834571Y-93309285D01*
X106461571Y-90761428D02*
X106390142Y-90690000D01*
X106247285Y-90618571D01*
X105890142Y-90618571D01*
X105747285Y-90690000D01*
X105675857Y-90761428D01*
X105604428Y-90904285D01*
X105604428Y-91047142D01*
X105675857Y-91261428D01*
X106533000Y-92118571D01*
X105604428Y-92118571D01*
X104104428Y-91975714D02*
X104175857Y-92047142D01*
X104390142Y-92118571D01*
X104533000Y-92118571D01*
X104747285Y-92047142D01*
X104890142Y-91904285D01*
X104961571Y-91761428D01*
X105033000Y-91475714D01*
X105033000Y-91261428D01*
X104961571Y-90975714D01*
X104890142Y-90832857D01*
X104747285Y-90690000D01*
X104533000Y-90618571D01*
X104390142Y-90618571D01*
X104175857Y-90690000D01*
X104104428Y-90761428D01*
X106624285Y-83776428D02*
X106552857Y-83705000D01*
X106410000Y-83633571D01*
X106052857Y-83633571D01*
X105910000Y-83705000D01*
X105838571Y-83776428D01*
X105767142Y-83919285D01*
X105767142Y-84062142D01*
X105838571Y-84276428D01*
X106695714Y-85133571D01*
X105767142Y-85133571D01*
X105124285Y-85133571D02*
X105124285Y-83633571D01*
X104267142Y-85133571D01*
X104267142Y-83633571D01*
X105731428Y-82593571D02*
X106588571Y-82593571D01*
X106160000Y-82593571D02*
X106160000Y-81093571D01*
X106302857Y-81307857D01*
X106445714Y-81450714D01*
X106588571Y-81522142D01*
X104231428Y-82593571D02*
X104731428Y-81879285D01*
X105088571Y-82593571D02*
X105088571Y-81093571D01*
X104517142Y-81093571D01*
X104374285Y-81165000D01*
X104302857Y-81236428D01*
X104231428Y-81379285D01*
X104231428Y-81593571D01*
X104302857Y-81736428D01*
X104374285Y-81807857D01*
X104517142Y-81879285D01*
X105088571Y-81879285D01*
X105477428Y-78783571D02*
X106334571Y-78783571D01*
X105906000Y-78783571D02*
X105906000Y-77283571D01*
X106048857Y-77497857D01*
X106191714Y-77640714D01*
X106334571Y-77712142D01*
X103977428Y-78640714D02*
X104048857Y-78712142D01*
X104263142Y-78783571D01*
X104406000Y-78783571D01*
X104620285Y-78712142D01*
X104763142Y-78569285D01*
X104834571Y-78426428D01*
X104906000Y-78140714D01*
X104906000Y-77926428D01*
X104834571Y-77640714D01*
X104763142Y-77497857D01*
X104620285Y-77355000D01*
X104406000Y-77283571D01*
X104263142Y-77283571D01*
X104048857Y-77355000D01*
X103977428Y-77426428D01*
X105640142Y-74973571D02*
X106497285Y-74973571D01*
X106068714Y-74973571D02*
X106068714Y-73473571D01*
X106211571Y-73687857D01*
X106354428Y-73830714D01*
X106497285Y-73902142D01*
X104997285Y-74973571D02*
X104997285Y-73473571D01*
X104140142Y-74973571D01*
X104140142Y-73473571D01*
X116240000Y-66925000D02*
X115525714Y-66925000D01*
X116382857Y-67353571D02*
X115882857Y-65853571D01*
X115382857Y-67353571D01*
X114882857Y-65853571D02*
X114882857Y-67067857D01*
X114811428Y-67210714D01*
X114740000Y-67282142D01*
X114597142Y-67353571D01*
X114311428Y-67353571D01*
X114168571Y-67282142D01*
X114097142Y-67210714D01*
X114025714Y-67067857D01*
X114025714Y-65853571D01*
X113454285Y-65853571D02*
X112454285Y-67353571D01*
X112454285Y-65853571D02*
X113454285Y-67353571D01*
X111954285Y-65996428D02*
X111882857Y-65925000D01*
X111740000Y-65853571D01*
X111382857Y-65853571D01*
X111240000Y-65925000D01*
X111168571Y-65996428D01*
X111097142Y-66139285D01*
X111097142Y-66282142D01*
X111168571Y-66496428D01*
X112025714Y-67353571D01*
X111097142Y-67353571D01*
X109811428Y-66353571D02*
X109811428Y-67353571D01*
X110168571Y-65782142D02*
X110525714Y-66853571D01*
X109597142Y-66853571D01*
X107597142Y-65853571D02*
X107311428Y-65853571D01*
X107168571Y-65925000D01*
X107025714Y-66067857D01*
X106954285Y-66353571D01*
X106954285Y-66853571D01*
X107025714Y-67139285D01*
X107168571Y-67282142D01*
X107311428Y-67353571D01*
X107597142Y-67353571D01*
X107740000Y-67282142D01*
X107882857Y-67139285D01*
X107954285Y-66853571D01*
X107954285Y-66353571D01*
X107882857Y-66067857D01*
X107740000Y-65925000D01*
X107597142Y-65853571D01*
X105668571Y-66353571D02*
X105668571Y-67353571D01*
X106311428Y-66353571D02*
X106311428Y-67139285D01*
X106240000Y-67282142D01*
X106097142Y-67353571D01*
X105882857Y-67353571D01*
X105740000Y-67282142D01*
X105668571Y-67210714D01*
X105168571Y-66353571D02*
X104597142Y-66353571D01*
X104954285Y-65853571D02*
X104954285Y-67139285D01*
X104882857Y-67282142D01*
X104740000Y-67353571D01*
X104597142Y-67353571D01*
X105818714Y-62757857D02*
X106318714Y-62757857D01*
X106318714Y-63543571D02*
X106318714Y-62043571D01*
X105604428Y-62043571D01*
X104533000Y-62757857D02*
X104318714Y-62829285D01*
X104247285Y-62900714D01*
X104175857Y-63043571D01*
X104175857Y-63257857D01*
X104247285Y-63400714D01*
X104318714Y-63472142D01*
X104461571Y-63543571D01*
X105033000Y-63543571D01*
X105033000Y-62043571D01*
X104533000Y-62043571D01*
X104390142Y-62115000D01*
X104318714Y-62186428D01*
X104247285Y-62329285D01*
X104247285Y-62472142D01*
X104318714Y-62615000D01*
X104390142Y-62686428D01*
X104533000Y-62757857D01*
X105033000Y-62757857D01*
X106739428Y-59590714D02*
X106810857Y-59662142D01*
X107025142Y-59733571D01*
X107168000Y-59733571D01*
X107382285Y-59662142D01*
X107525142Y-59519285D01*
X107596571Y-59376428D01*
X107668000Y-59090714D01*
X107668000Y-58876428D01*
X107596571Y-58590714D01*
X107525142Y-58447857D01*
X107382285Y-58305000D01*
X107168000Y-58233571D01*
X107025142Y-58233571D01*
X106810857Y-58305000D01*
X106739428Y-58376428D01*
X106310857Y-58733571D02*
X105739428Y-58733571D01*
X106096571Y-58233571D02*
X106096571Y-59519285D01*
X106025142Y-59662142D01*
X105882285Y-59733571D01*
X105739428Y-59733571D01*
X105239428Y-59733571D02*
X105239428Y-58733571D01*
X105239428Y-59019285D02*
X105168000Y-58876428D01*
X105096571Y-58805000D01*
X104953714Y-58733571D01*
X104810857Y-58733571D01*
X104096571Y-59733571D02*
X104239428Y-59662142D01*
X104310857Y-59519285D01*
X104310857Y-58233571D01*
X107187857Y-53860000D02*
X107330714Y-53788571D01*
X107545000Y-53788571D01*
X107759285Y-53860000D01*
X107902142Y-54002857D01*
X107973571Y-54145714D01*
X108045000Y-54431428D01*
X108045000Y-54645714D01*
X107973571Y-54931428D01*
X107902142Y-55074285D01*
X107759285Y-55217142D01*
X107545000Y-55288571D01*
X107402142Y-55288571D01*
X107187857Y-55217142D01*
X107116428Y-55145714D01*
X107116428Y-54645714D01*
X107402142Y-54645714D01*
X106473571Y-55288571D02*
X106473571Y-53788571D01*
X105616428Y-55288571D01*
X105616428Y-53788571D01*
X104902142Y-55288571D02*
X104902142Y-53788571D01*
X104545000Y-53788571D01*
X104330714Y-53860000D01*
X104187857Y-54002857D01*
X104116428Y-54145714D01*
X104045000Y-54431428D01*
X104045000Y-54645714D01*
X104116428Y-54931428D01*
X104187857Y-55074285D01*
X104330714Y-55217142D01*
X104545000Y-55288571D01*
X104902142Y-55288571D01*
X108172000Y-51542142D02*
X107029142Y-51542142D01*
X107600571Y-52113571D02*
X107600571Y-50970714D01*
X106386285Y-50756428D02*
X106314857Y-50685000D01*
X106172000Y-50613571D01*
X105814857Y-50613571D01*
X105672000Y-50685000D01*
X105600571Y-50756428D01*
X105529142Y-50899285D01*
X105529142Y-51042142D01*
X105600571Y-51256428D01*
X106457714Y-52113571D01*
X105529142Y-52113571D01*
X104243428Y-51113571D02*
X104243428Y-52113571D01*
X104600571Y-50542142D02*
X104957714Y-51613571D01*
X104029142Y-51613571D01*
X124729285Y-84561071D02*
X125229285Y-83846785D01*
X125586428Y-84561071D02*
X125586428Y-83061071D01*
X125015000Y-83061071D01*
X124872142Y-83132500D01*
X124800714Y-83203928D01*
X124729285Y-83346785D01*
X124729285Y-83561071D01*
X124800714Y-83703928D01*
X124872142Y-83775357D01*
X125015000Y-83846785D01*
X125586428Y-83846785D01*
X123015000Y-82989642D02*
X124300714Y-84918214D01*
X121657857Y-84418214D02*
X121729285Y-84489642D01*
X121943571Y-84561071D01*
X122086428Y-84561071D01*
X122300714Y-84489642D01*
X122443571Y-84346785D01*
X122515000Y-84203928D01*
X122586428Y-83918214D01*
X122586428Y-83703928D01*
X122515000Y-83418214D01*
X122443571Y-83275357D01*
X122300714Y-83132500D01*
X122086428Y-83061071D01*
X121943571Y-83061071D01*
X121729285Y-83132500D01*
X121657857Y-83203928D01*
X119943571Y-84489642D02*
X119729285Y-84561071D01*
X119372142Y-84561071D01*
X119229285Y-84489642D01*
X119157857Y-84418214D01*
X119086428Y-84275357D01*
X119086428Y-84132500D01*
X119157857Y-83989642D01*
X119229285Y-83918214D01*
X119372142Y-83846785D01*
X119657857Y-83775357D01*
X119800714Y-83703928D01*
X119872142Y-83632500D01*
X119943571Y-83489642D01*
X119943571Y-83346785D01*
X119872142Y-83203928D01*
X119800714Y-83132500D01*
X119657857Y-83061071D01*
X119300714Y-83061071D01*
X119086428Y-83132500D01*
X117872142Y-84489642D02*
X118015000Y-84561071D01*
X118300714Y-84561071D01*
X118443571Y-84489642D01*
X118515000Y-84346785D01*
X118515000Y-83775357D01*
X118443571Y-83632500D01*
X118300714Y-83561071D01*
X118015000Y-83561071D01*
X117872142Y-83632500D01*
X117800714Y-83775357D01*
X117800714Y-83918214D01*
X118515000Y-84061071D01*
X117157857Y-84561071D02*
X117157857Y-83561071D01*
X117157857Y-83846785D02*
X117086428Y-83703928D01*
X117015000Y-83632500D01*
X116872142Y-83561071D01*
X116729285Y-83561071D01*
X116372142Y-83561071D02*
X116015000Y-84561071D01*
X115657857Y-83561071D01*
X114872142Y-84561071D02*
X115015000Y-84489642D01*
X115086428Y-84418214D01*
X115157857Y-84275357D01*
X115157857Y-83846785D01*
X115086428Y-83703928D01*
X115015000Y-83632500D01*
X114872142Y-83561071D01*
X114657857Y-83561071D01*
X114515000Y-83632500D01*
X114443571Y-83703928D01*
X114372142Y-83846785D01*
X114372142Y-84275357D01*
X114443571Y-84418214D01*
X114515000Y-84489642D01*
X114657857Y-84561071D01*
X114872142Y-84561071D01*
X134586428Y-86904642D02*
X134372142Y-86976071D01*
X134015000Y-86976071D01*
X133872142Y-86904642D01*
X133800714Y-86833214D01*
X133729285Y-86690357D01*
X133729285Y-86547500D01*
X133800714Y-86404642D01*
X133872142Y-86333214D01*
X134015000Y-86261785D01*
X134300714Y-86190357D01*
X134443571Y-86118928D01*
X134515000Y-86047500D01*
X134586428Y-85904642D01*
X134586428Y-85761785D01*
X134515000Y-85618928D01*
X134443571Y-85547500D01*
X134300714Y-85476071D01*
X133943571Y-85476071D01*
X133729285Y-85547500D01*
X133229285Y-85976071D02*
X132943571Y-86976071D01*
X132657857Y-86261785D01*
X132372142Y-86976071D01*
X132086428Y-85976071D01*
X131515000Y-86976071D02*
X131515000Y-85976071D01*
X131515000Y-85476071D02*
X131586428Y-85547500D01*
X131515000Y-85618928D01*
X131443571Y-85547500D01*
X131515000Y-85476071D01*
X131515000Y-85618928D01*
X131015000Y-85976071D02*
X130443571Y-85976071D01*
X130800714Y-85476071D02*
X130800714Y-86761785D01*
X130729285Y-86904642D01*
X130586428Y-86976071D01*
X130443571Y-86976071D01*
X129300714Y-86904642D02*
X129443571Y-86976071D01*
X129729285Y-86976071D01*
X129872142Y-86904642D01*
X129943571Y-86833214D01*
X130015000Y-86690357D01*
X130015000Y-86261785D01*
X129943571Y-86118928D01*
X129872142Y-86047500D01*
X129729285Y-85976071D01*
X129443571Y-85976071D01*
X129300714Y-86047500D01*
X128657857Y-86976071D02*
X128657857Y-85476071D01*
X128015000Y-86976071D02*
X128015000Y-86190357D01*
X128086428Y-86047500D01*
X128229285Y-85976071D01*
X128443571Y-85976071D01*
X128586428Y-86047500D01*
X128657857Y-86118928D01*
X126157857Y-86976071D02*
X126157857Y-85476071D01*
X125657857Y-86547500D01*
X125157857Y-85476071D01*
X125157857Y-86976071D01*
X123800714Y-86976071D02*
X123800714Y-86190357D01*
X123872142Y-86047500D01*
X124015000Y-85976071D01*
X124300714Y-85976071D01*
X124443571Y-86047500D01*
X123800714Y-86904642D02*
X123943571Y-86976071D01*
X124300714Y-86976071D01*
X124443571Y-86904642D01*
X124515000Y-86761785D01*
X124515000Y-86618928D01*
X124443571Y-86476071D01*
X124300714Y-86404642D01*
X123943571Y-86404642D01*
X123800714Y-86333214D01*
X122443571Y-86904642D02*
X122586428Y-86976071D01*
X122872142Y-86976071D01*
X123015000Y-86904642D01*
X123086428Y-86833214D01*
X123157857Y-86690357D01*
X123157857Y-86261785D01*
X123086428Y-86118928D01*
X123015000Y-86047500D01*
X122872142Y-85976071D01*
X122586428Y-85976071D01*
X122443571Y-86047500D01*
X121800714Y-86976071D02*
X121800714Y-85476071D01*
X121157857Y-86976071D02*
X121157857Y-86190357D01*
X121229285Y-86047500D01*
X121372142Y-85976071D01*
X121586428Y-85976071D01*
X121729285Y-86047500D01*
X121800714Y-86118928D01*
X120443571Y-86976071D02*
X120443571Y-85976071D01*
X120443571Y-85476071D02*
X120515000Y-85547500D01*
X120443571Y-85618928D01*
X120372142Y-85547500D01*
X120443571Y-85476071D01*
X120443571Y-85618928D01*
X119729285Y-85976071D02*
X119729285Y-86976071D01*
X119729285Y-86118928D02*
X119657857Y-86047500D01*
X119515000Y-85976071D01*
X119300714Y-85976071D01*
X119157857Y-86047500D01*
X119086428Y-86190357D01*
X119086428Y-86976071D01*
X117800714Y-86904642D02*
X117943571Y-86976071D01*
X118229285Y-86976071D01*
X118372142Y-86904642D01*
X118443571Y-86761785D01*
X118443571Y-86190357D01*
X118372142Y-86047500D01*
X118229285Y-85976071D01*
X117943571Y-85976071D01*
X117800714Y-86047500D01*
X117729285Y-86190357D01*
X117729285Y-86333214D01*
X118443571Y-86476071D01*
X115086428Y-86833214D02*
X115157857Y-86904642D01*
X115372142Y-86976071D01*
X115515000Y-86976071D01*
X115729285Y-86904642D01*
X115872142Y-86761785D01*
X115943571Y-86618928D01*
X116015000Y-86333214D01*
X116015000Y-86118928D01*
X115943571Y-85833214D01*
X115872142Y-85690357D01*
X115729285Y-85547500D01*
X115515000Y-85476071D01*
X115372142Y-85476071D01*
X115157857Y-85547500D01*
X115086428Y-85618928D01*
X114229285Y-86976071D02*
X114372142Y-86904642D01*
X114443571Y-86833214D01*
X114515000Y-86690357D01*
X114515000Y-86261785D01*
X114443571Y-86118928D01*
X114372142Y-86047500D01*
X114229285Y-85976071D01*
X114015000Y-85976071D01*
X113872142Y-86047500D01*
X113800714Y-86118928D01*
X113729285Y-86261785D01*
X113729285Y-86690357D01*
X113800714Y-86833214D01*
X113872142Y-86904642D01*
X114015000Y-86976071D01*
X114229285Y-86976071D01*
X113086428Y-85976071D02*
X113086428Y-86976071D01*
X113086428Y-86118928D02*
X113015000Y-86047500D01*
X112872142Y-85976071D01*
X112657857Y-85976071D01*
X112515000Y-86047500D01*
X112443571Y-86190357D01*
X112443571Y-86976071D01*
X111943571Y-85976071D02*
X111372142Y-85976071D01*
X111729285Y-85476071D02*
X111729285Y-86761785D01*
X111657857Y-86904642D01*
X111515000Y-86976071D01*
X111372142Y-86976071D01*
X110872142Y-86976071D02*
X110872142Y-85976071D01*
X110872142Y-86261785D02*
X110800714Y-86118928D01*
X110729285Y-86047500D01*
X110586428Y-85976071D01*
X110443571Y-85976071D01*
X109729285Y-86976071D02*
X109872142Y-86904642D01*
X109943571Y-86833214D01*
X110015000Y-86690357D01*
X110015000Y-86261785D01*
X109943571Y-86118928D01*
X109872142Y-86047500D01*
X109729285Y-85976071D01*
X109515000Y-85976071D01*
X109372142Y-86047500D01*
X109300714Y-86118928D01*
X109229285Y-86261785D01*
X109229285Y-86690357D01*
X109300714Y-86833214D01*
X109372142Y-86904642D01*
X109515000Y-86976071D01*
X109729285Y-86976071D01*
X108372142Y-86976071D02*
X108515000Y-86904642D01*
X108586428Y-86761785D01*
X108586428Y-85476071D01*
X107586428Y-86976071D02*
X107729285Y-86904642D01*
X107800714Y-86761785D01*
X107800714Y-85476071D01*
X106443571Y-86904642D02*
X106586428Y-86976071D01*
X106872142Y-86976071D01*
X107015000Y-86904642D01*
X107086428Y-86761785D01*
X107086428Y-86190357D01*
X107015000Y-86047500D01*
X106872142Y-85976071D01*
X106586428Y-85976071D01*
X106443571Y-86047500D01*
X106372142Y-86190357D01*
X106372142Y-86333214D01*
X107086428Y-86476071D01*
X105729285Y-86976071D02*
X105729285Y-85976071D01*
X105729285Y-86261785D02*
X105657857Y-86118928D01*
X105586428Y-86047500D01*
X105443571Y-85976071D01*
X105300714Y-85976071D01*
M02*
