G04 #@! TF.GenerationSoftware,KiCad,Pcbnew,(5.99.0-218-g4a79b08ca)*
G04 #@! TF.CreationDate,2019-10-24T17:32:44-07:00*
G04 #@! TF.ProjectId,RCSMCtrl,5243534d-4374-4726-9c2e-6b696361645f,NC*
G04 #@! TF.SameCoordinates,Original*
G04 #@! TF.FileFunction,Copper,L1,Top*
G04 #@! TF.FilePolarity,Positive*
%FSLAX46Y46*%
G04 Gerber Fmt 4.6, Leading zero omitted, Abs format (unit mm)*
G04 Created by KiCad (PCBNEW (5.99.0-218-g4a79b08ca)) date 2019-10-24 17:32:44*
%MOMM*%
%LPD*%
G04 APERTURE LIST*
%ADD10R,1.250000X1.500000*%
%ADD11O,1.700000X1.700000*%
%ADD12R,1.700000X1.700000*%
%ADD13C,1.600000*%
%ADD14R,1.600000X1.600000*%
%ADD15R,2.500000X2.500000*%
%ADD16O,2.500000X2.500000*%
%ADD17O,5.080000X3.175000*%
%ADD18R,1.500000X1.250000*%
%ADD19C,1.501140*%
%ADD20R,1.800860X3.500120*%
%ADD21R,3.500120X1.800860*%
%ADD22R,1.800860X1.597660*%
%ADD23O,1.600000X1.600000*%
%ADD24R,1.727200X2.032000*%
%ADD25O,1.727200X2.032000*%
%ADD26O,1.501140X0.899160*%
%ADD27R,1.300000X1.500000*%
%ADD28R,1.500000X1.300000*%
%ADD29R,1.300000X1.550000*%
%ADD30R,2.750000X3.050000*%
%ADD31R,5.800000X6.400000*%
%ADD32R,1.200000X2.200000*%
%ADD33C,1.016000*%
%ADD34C,0.508000*%
%ADD35C,1.270000*%
%ADD36C,0.635000*%
%ADD37C,0.304800*%
%ADD38C,2.032000*%
%ADD39C,0.254000*%
G04 APERTURE END LIST*
D10*
X112395000Y-57765000D03*
X112395000Y-55265000D03*
D11*
X141605000Y-65405000D03*
X139065000Y-65405000D03*
D12*
X136525000Y-65405000D03*
D13*
X136485000Y-59055000D03*
D14*
X133985000Y-59055000D03*
D15*
X132080000Y-81280000D03*
D16*
X117080000Y-81280000D03*
X112080000Y-81280000D03*
X107080000Y-81280000D03*
X107080000Y-88780000D03*
X112080000Y-88780000D03*
X117080000Y-88780000D03*
X132080000Y-88780000D03*
D17*
X100965000Y-51435000D03*
X100965000Y-55245000D03*
X100965000Y-59055000D03*
X100965000Y-62865000D03*
X100965000Y-66675000D03*
X100965000Y-70485000D03*
X100965000Y-74295000D03*
X100965000Y-78105000D03*
X100965000Y-81915000D03*
X100965000Y-85725000D03*
X100965000Y-89535000D03*
X100965000Y-93345000D03*
X100965000Y-97155000D03*
X100965000Y-100965000D03*
X100965000Y-104775000D03*
D18*
X116225000Y-67945000D03*
X118725000Y-67945000D03*
D19*
X106680000Y-56515000D03*
X109220000Y-56515000D03*
D10*
X123190000Y-59670000D03*
X123190000Y-57170000D03*
D18*
X119995000Y-71120000D03*
X117495000Y-71120000D03*
D20*
X137160000Y-103464360D03*
X137160000Y-98465640D03*
X137160000Y-93939360D03*
X137160000Y-88940640D03*
D21*
X106720640Y-61595000D03*
X111719360Y-61595000D03*
X111678720Y-51435000D03*
X106680000Y-51435000D03*
D22*
X140335000Y-71605140D03*
X140335000Y-74444860D03*
X140335000Y-81765140D03*
X140335000Y-84604860D03*
D21*
X106720640Y-66040000D03*
X111719360Y-66040000D03*
X106720640Y-70485000D03*
X111719360Y-70485000D03*
D23*
X123825000Y-76200000D03*
X126365000Y-76200000D03*
X128905000Y-76200000D03*
X131445000Y-76200000D03*
X131445000Y-68580000D03*
X128905000Y-68580000D03*
X126365000Y-68580000D03*
X123825000Y-68580000D03*
D24*
X131445000Y-53340000D03*
D25*
X133985000Y-53340000D03*
X136525000Y-53340000D03*
D26*
X140970000Y-91440000D03*
X140970000Y-92710000D03*
X140970000Y-90170000D03*
X121285000Y-64135000D03*
X121285000Y-65405000D03*
X121285000Y-62865000D03*
X114300000Y-74930000D03*
X114300000Y-73660000D03*
X114300000Y-76200000D03*
D27*
X144145000Y-93425000D03*
X144145000Y-90725000D03*
D28*
X118190000Y-62865000D03*
X115490000Y-62865000D03*
D27*
X146685000Y-90725000D03*
X146685000Y-93425000D03*
D28*
X118190000Y-65405000D03*
X115490000Y-65405000D03*
D27*
X125095000Y-62785000D03*
X125095000Y-65485000D03*
X127635000Y-65485000D03*
X127635000Y-62785000D03*
X137160000Y-74375000D03*
X137160000Y-71675000D03*
D28*
X137715000Y-76835000D03*
X140415000Y-76835000D03*
D27*
X137160000Y-84535000D03*
X137160000Y-81835000D03*
D28*
X137715000Y-79375000D03*
X140415000Y-79375000D03*
D27*
X130175000Y-62785000D03*
X130175000Y-65485000D03*
D28*
X120095000Y-73660000D03*
X117395000Y-73660000D03*
X120095000Y-76200000D03*
X117395000Y-76200000D03*
D29*
X147665000Y-77000000D03*
X143165000Y-77000000D03*
X143165000Y-69050000D03*
X147665000Y-69050000D03*
X147665000Y-87160000D03*
X143165000Y-87160000D03*
X143165000Y-79210000D03*
X147665000Y-79210000D03*
D16*
X132080000Y-102750000D03*
X117080000Y-102750000D03*
X112080000Y-102750000D03*
X107080000Y-102750000D03*
X107080000Y-95250000D03*
X112080000Y-95250000D03*
X117080000Y-95250000D03*
D15*
X132080000Y-95250000D03*
D30*
X119635000Y-54820000D03*
X116585000Y-51470000D03*
X116585000Y-54820000D03*
X119635000Y-51470000D03*
D31*
X118110000Y-53145000D03*
D32*
X120390000Y-59445000D03*
X115830000Y-59445000D03*
D33*
X124460000Y-55880000D03*
X124460000Y-54610000D03*
X126365000Y-54610000D03*
X126365000Y-52705000D03*
X124460000Y-52705000D03*
X122555000Y-52705000D03*
X122769000Y-54396000D03*
X121920000Y-56515000D03*
X125730000Y-57150000D03*
X128270000Y-57150000D03*
X128905000Y-55245000D03*
X128905000Y-53340000D03*
X128905000Y-50800000D03*
X127000000Y-50800000D03*
X124460000Y-50800000D03*
X122555000Y-50800000D03*
X116840000Y-50165000D03*
X119380000Y-50165000D03*
X118110000Y-50165000D03*
X116107500Y-55147500D03*
X117475000Y-54610000D03*
X118745000Y-54610000D03*
X120015000Y-54610000D03*
X119575000Y-53145000D03*
X118330000Y-52925000D03*
X116840000Y-52705000D03*
X115570000Y-52705000D03*
X119600000Y-51655000D03*
X118110000Y-51435000D03*
X116840000Y-51435000D03*
X115570000Y-51435000D03*
X120650000Y-50800000D03*
X115570000Y-50165000D03*
X114300000Y-61595000D03*
X141770000Y-79210000D03*
X139105000Y-82590000D03*
X135890000Y-73660000D03*
X121920000Y-59055000D03*
X116205000Y-73660000D03*
X127000000Y-63500000D03*
X134620000Y-70485000D03*
X117475000Y-57150000D03*
D34*
X122769000Y-54396000D02*
X121518000Y-53145000D01*
D35*
X128905000Y-50800000D02*
X127000000Y-50800000D01*
X127000000Y-50800000D02*
X124460000Y-50800000D01*
X124460000Y-50800000D02*
X122555000Y-50800000D01*
X122555000Y-50800000D02*
X120650000Y-50800000D01*
X116107500Y-55147500D02*
X118110000Y-53145000D01*
X117475000Y-54610000D02*
X117475000Y-53780000D01*
D34*
X119575000Y-53145000D02*
X118110000Y-53145000D01*
D35*
X118330000Y-52925000D02*
X118110000Y-53145000D01*
X119600000Y-51655000D02*
X118330000Y-52925000D01*
X120650000Y-50800000D02*
X120455000Y-50800000D01*
D36*
X114300000Y-61595000D02*
X119975000Y-61595000D01*
X119975000Y-61595000D02*
X120390000Y-61180000D01*
X120390000Y-61180000D02*
X120390000Y-59445000D01*
D34*
X143165000Y-69050000D02*
X138527000Y-69050000D01*
X138527000Y-69050000D02*
X137160000Y-70417000D01*
X137160000Y-70417000D02*
X137160000Y-71675000D01*
X139929860Y-81765140D02*
X139105000Y-82590000D01*
X139105000Y-82590000D02*
X137160000Y-84535000D01*
D36*
X135890000Y-73660000D02*
X136445000Y-73660000D01*
X136445000Y-73660000D02*
X137160000Y-74375000D01*
D35*
X121920000Y-59055000D02*
X120780000Y-59055000D01*
X120780000Y-59055000D02*
X120390000Y-59445000D01*
D36*
X116205000Y-73660000D02*
X117395000Y-73660000D01*
D37*
X127000000Y-63500000D02*
X127000000Y-63420000D01*
X127000000Y-63420000D02*
X127635000Y-62785000D01*
X127635000Y-65485000D02*
X127635000Y-65585000D01*
X127635000Y-65585000D02*
X125439999Y-67780001D01*
X125439999Y-67780001D02*
X124624999Y-67780001D01*
X124624999Y-67780001D02*
X123825000Y-68580000D01*
X131445000Y-66874446D02*
X131445000Y-64720678D01*
X131445000Y-64720678D02*
X130611723Y-63887401D01*
X127635000Y-63839800D02*
X127635000Y-62785000D01*
X130611723Y-63887401D02*
X127682601Y-63887401D01*
X127682601Y-63887401D02*
X127635000Y-63839800D01*
X130175000Y-74930000D02*
X130175000Y-68144446D01*
X130175000Y-68144446D02*
X131445000Y-66874446D01*
X131445000Y-76200000D02*
X130175000Y-74930000D01*
X127635000Y-69015554D02*
X127635000Y-68125000D01*
X127635000Y-68125000D02*
X130175000Y-65585000D01*
X130175000Y-65585000D02*
X130175000Y-65485000D01*
X126365000Y-76200000D02*
X126365000Y-70285554D01*
X126365000Y-70285554D02*
X127635000Y-69015554D01*
D34*
X135347988Y-83912988D02*
X134620000Y-83185000D01*
X134620000Y-83185000D02*
X134620000Y-70485000D01*
X135347988Y-85725000D02*
X135347988Y-83912988D01*
D36*
X132080000Y-81280000D02*
X132080000Y-83764561D01*
D34*
X139307342Y-84604860D02*
X138173201Y-85739001D01*
D36*
X132080000Y-83764561D02*
X134620000Y-86304561D01*
D34*
X136055999Y-79776001D02*
X136457000Y-79375000D01*
X138173201Y-85739001D02*
X136146799Y-85739001D01*
X136146799Y-85739001D02*
X136055999Y-85648201D01*
D36*
X134620000Y-86304561D02*
X134620000Y-94595000D01*
D34*
X140459001Y-88389001D02*
X138517012Y-86447012D01*
X136055999Y-85648201D02*
X136055999Y-79776001D01*
X140335000Y-84604860D02*
X139307342Y-84604860D01*
X136457000Y-79375000D02*
X137715000Y-79375000D01*
X138517012Y-86447012D02*
X135853531Y-86447011D01*
X135347988Y-85941468D02*
X135347988Y-85725000D01*
X135853531Y-86447011D02*
X135347988Y-85941468D01*
X146685000Y-90725000D02*
X146685000Y-90625000D01*
X146685000Y-90625000D02*
X144449001Y-88389001D01*
X144449001Y-88389001D02*
X140459001Y-88389001D01*
X139700000Y-63500000D02*
X143398000Y-63500000D01*
X147665000Y-67767000D02*
X147665000Y-69050000D01*
X143398000Y-63500000D02*
X147665000Y-67767000D01*
X139065000Y-64135000D02*
X139700000Y-63500000D01*
X139065000Y-65405000D02*
X139065000Y-64135000D01*
X137160000Y-70417000D02*
X135323000Y-68580000D01*
X135323000Y-68580000D02*
X134708000Y-68580000D01*
X131445000Y-68580000D02*
X134708000Y-68580000D01*
X134708000Y-68580000D02*
X136525000Y-66763000D01*
X136525000Y-66763000D02*
X136525000Y-65405000D01*
D35*
X136525000Y-53340000D02*
X136525000Y-51435000D01*
X136525000Y-51435000D02*
X135890000Y-50800000D01*
X135890000Y-50800000D02*
X128905000Y-50800000D01*
X120455000Y-50800000D02*
X119600000Y-51655000D01*
X136525000Y-53340000D02*
X136525000Y-59015000D01*
X136525000Y-59015000D02*
X136485000Y-59055000D01*
X133985000Y-53340000D02*
X133985000Y-59055000D01*
D36*
X118725000Y-67945000D02*
X123190000Y-67945000D01*
X123190000Y-67945000D02*
X123825000Y-68580000D01*
X123825000Y-76200000D02*
X123825000Y-73565000D01*
X123825000Y-73565000D02*
X121380000Y-71120000D01*
X121380000Y-71120000D02*
X119995000Y-71120000D01*
X117495000Y-71120000D02*
X117495000Y-69175000D01*
X117495000Y-69175000D02*
X118725000Y-67945000D01*
X117395000Y-73660000D02*
X117395000Y-71220000D01*
X117395000Y-71220000D02*
X117495000Y-71120000D01*
D35*
X109220000Y-57576466D02*
X109220000Y-56515000D01*
D36*
X106720640Y-66040000D02*
X107570270Y-66040000D01*
X107570270Y-66040000D02*
X109220000Y-64390270D01*
X109220000Y-64390270D02*
X109220000Y-57576466D01*
D35*
X117475000Y-57150000D02*
X117475000Y-54610000D01*
X117475000Y-53780000D02*
X118110000Y-53145000D01*
X112395000Y-57765000D02*
X113490000Y-57765000D01*
X113490000Y-57765000D02*
X116107500Y-55147500D01*
X115830000Y-59445000D02*
X111088534Y-59445000D01*
X111088534Y-59445000D02*
X109220000Y-57576466D01*
X100965000Y-55245000D02*
X105410000Y-55245000D01*
X105410000Y-55245000D02*
X106680000Y-56515000D01*
X112395000Y-55265000D02*
X110470000Y-55265000D01*
X110470000Y-55265000D02*
X109220000Y-56515000D01*
X111678720Y-51435000D02*
X111678720Y-54548720D01*
X111678720Y-54548720D02*
X112395000Y-55265000D01*
D34*
X121285000Y-62865000D02*
X121285000Y-60340000D01*
X121285000Y-60340000D02*
X120390000Y-59445000D01*
X125095000Y-62785000D02*
X125095000Y-61575000D01*
X125095000Y-61575000D02*
X123190000Y-59670000D01*
X106720640Y-61595000D02*
X104462580Y-61595000D01*
X104462580Y-61595000D02*
X101922580Y-59055000D01*
X101922580Y-59055000D02*
X100965000Y-59055000D01*
X115490000Y-62865000D02*
X112989360Y-62865000D01*
X112989360Y-62865000D02*
X111719360Y-61595000D01*
X116225000Y-67945000D02*
X116225000Y-66140000D01*
X116225000Y-66140000D02*
X115490000Y-65405000D01*
X118190000Y-62865000D02*
X118030000Y-62865000D01*
X118030000Y-62865000D02*
X115490000Y-65405000D01*
X121285000Y-64135000D02*
X119460000Y-64135000D01*
X119460000Y-64135000D02*
X118190000Y-65405000D01*
X125095000Y-65485000D02*
X123745000Y-64135000D01*
X123745000Y-64135000D02*
X121285000Y-64135000D01*
X123190000Y-57170000D02*
X123190000Y-54817000D01*
X121518000Y-53145000D02*
X119575000Y-53145000D01*
X123190000Y-54817000D02*
X122769000Y-54396000D01*
X123190000Y-59670000D02*
X120615000Y-59670000D01*
X120615000Y-59670000D02*
X120390000Y-59445000D01*
X131445000Y-56515000D02*
X130175000Y-57785000D01*
X130175000Y-57785000D02*
X130175000Y-62785000D01*
X131445000Y-53340000D02*
X131445000Y-56515000D01*
X140415000Y-79375000D02*
X140315000Y-79375000D01*
X140315000Y-79375000D02*
X139113000Y-80577000D01*
X139113000Y-80577000D02*
X138318000Y-80577000D01*
X138318000Y-80577000D02*
X137160000Y-81735000D01*
X137160000Y-81735000D02*
X137160000Y-81835000D01*
X140335000Y-81765140D02*
X139929860Y-81765140D01*
X143165000Y-79210000D02*
X140580000Y-79210000D01*
X140580000Y-79210000D02*
X140415000Y-79375000D01*
X143165000Y-79210000D02*
X143165000Y-80493000D01*
X143165000Y-80493000D02*
X143165000Y-87160000D01*
X143165000Y-69050000D02*
X143165000Y-70333000D01*
X143165000Y-70333000D02*
X143165000Y-77000000D01*
X140335000Y-71605140D02*
X139929860Y-71605140D01*
X139929860Y-71605140D02*
X137160000Y-74375000D01*
X140335000Y-74444860D02*
X140105140Y-74444860D01*
X140105140Y-74444860D02*
X137715000Y-76835000D01*
X143165000Y-77000000D02*
X140580000Y-77000000D01*
X140580000Y-77000000D02*
X140415000Y-76835000D01*
X147665000Y-77000000D02*
X147665000Y-75717000D01*
X147665000Y-75717000D02*
X147665000Y-69050000D01*
X147665000Y-79210000D02*
X147665000Y-77000000D01*
X147665000Y-87160000D02*
X147665000Y-85877000D01*
X147665000Y-85877000D02*
X147665000Y-79210000D01*
X128905000Y-74344078D02*
X127619001Y-75630077D01*
X128905000Y-68580000D02*
X128905000Y-74344078D01*
X127619001Y-75630077D02*
X127619001Y-76801921D01*
X127619001Y-76801921D02*
X126966921Y-77454001D01*
X126966921Y-77454001D02*
X120191001Y-77454001D01*
X120191001Y-77454001D02*
X120095000Y-77358000D01*
X120095000Y-77358000D02*
X120095000Y-76200000D01*
X100965000Y-62865000D02*
X101917500Y-62865000D01*
X101917500Y-62865000D02*
X103959010Y-64906510D01*
X103959010Y-64906510D02*
X103959010Y-69981430D01*
X103959010Y-69981430D02*
X104462580Y-70485000D01*
X104462580Y-70485000D02*
X106720640Y-70485000D01*
X114300000Y-73660000D02*
X114300000Y-66362580D01*
X114300000Y-66362580D02*
X113977420Y-66040000D01*
X113977420Y-66040000D02*
X111719360Y-66040000D01*
X111719360Y-70485000D02*
X111719360Y-74877930D01*
X113041430Y-76200000D02*
X114300000Y-76200000D01*
X111719360Y-74877930D02*
X113041430Y-76200000D01*
X111719360Y-66040000D02*
X110869730Y-66040000D01*
X106720640Y-70189090D02*
X106720640Y-70485000D01*
X110869730Y-66040000D02*
X106720640Y-70189090D01*
X117395000Y-76200000D02*
X116125000Y-74930000D01*
X116125000Y-74930000D02*
X114300000Y-74930000D01*
X120095000Y-73660000D02*
X119935000Y-73660000D01*
X119935000Y-73660000D02*
X117395000Y-76200000D01*
D36*
X137160000Y-93939360D02*
X135624570Y-93939360D01*
X134968930Y-94595000D02*
X134620000Y-94595000D01*
X135624570Y-93939360D02*
X134968930Y-94595000D01*
X140970000Y-92710000D02*
X138389360Y-92710000D01*
X138389360Y-92710000D02*
X137160000Y-93939360D01*
X144145000Y-93425000D02*
X142160000Y-91440000D01*
X142160000Y-91440000D02*
X140970000Y-91440000D01*
X146685000Y-93425000D02*
X144145000Y-93425000D01*
X144145000Y-90725000D02*
X143590000Y-90170000D01*
X143590000Y-90170000D02*
X140970000Y-90170000D01*
X134620000Y-94595000D02*
X133965000Y-95250000D01*
X133965000Y-95250000D02*
X132080000Y-95250000D01*
X140970000Y-90170000D02*
X138389360Y-90170000D01*
X138389360Y-90170000D02*
X137160000Y-88940640D01*
X129540000Y-97790000D02*
X129540000Y-91320000D01*
X129540000Y-91320000D02*
X132080000Y-88780000D01*
X132080000Y-100330000D02*
X129540000Y-97790000D01*
X132080000Y-102750000D02*
X132080000Y-100330000D01*
X137160000Y-98465640D02*
X137160000Y-93939360D01*
X137160000Y-103464360D02*
X132794360Y-103464360D01*
X132794360Y-103464360D02*
X132080000Y-102750000D01*
D38*
X117080000Y-88780000D02*
X114613999Y-86313999D01*
X114613999Y-86313999D02*
X114613999Y-80164317D01*
X105537000Y-74295000D02*
X100965000Y-74295000D01*
X114613999Y-80164317D02*
X108744682Y-74295000D01*
X108744682Y-74295000D02*
X105537000Y-74295000D01*
X112080000Y-88780000D02*
X112080000Y-87012234D01*
X112080000Y-87012234D02*
X109546001Y-84478235D01*
X109546001Y-84478235D02*
X109546001Y-80096319D01*
X109546001Y-80096319D02*
X107554682Y-78105000D01*
X107554682Y-78105000D02*
X105537000Y-78105000D01*
X105537000Y-78105000D02*
X100965000Y-78105000D01*
X107080000Y-88780000D02*
X107080000Y-86922739D01*
X107080000Y-86922739D02*
X102072261Y-81915000D01*
X102072261Y-81915000D02*
X100965000Y-81915000D01*
X105312234Y-95250000D02*
X107080000Y-95250000D01*
X105321260Y-92783999D02*
X102072261Y-89535000D01*
X100965000Y-93345000D02*
X102725721Y-93345000D01*
X104630721Y-95250000D02*
X105312234Y-95250000D01*
X102725721Y-93345000D02*
X104630721Y-95250000D01*
X112080000Y-95250000D02*
X109613999Y-92783999D01*
X109613999Y-92783999D02*
X105321260Y-92783999D01*
X102072261Y-89535000D02*
X100965000Y-89535000D01*
X100965000Y-97155000D02*
X102870000Y-97155000D01*
X102870000Y-97155000D02*
X105410000Y-99695000D01*
X116205000Y-99695000D02*
X117080000Y-100570000D01*
X117080000Y-100570000D02*
X117080000Y-102750000D01*
X105410000Y-99695000D02*
X116205000Y-99695000D01*
D35*
X100965000Y-51435000D02*
X106680000Y-51435000D01*
D39*
G36*
X129414000Y-57316273D02*
G01*
X129409797Y-57325224D01*
X129388095Y-57354182D01*
X129355976Y-57439862D01*
X129316912Y-57523064D01*
X129311694Y-57557984D01*
X129298808Y-57592357D01*
X129293855Y-57659000D01*
X114426000Y-57659000D01*
X114426000Y-49656000D01*
X129414000Y-49656000D01*
X129414000Y-57316273D01*
X129414000Y-57316273D01*
G37*
X129414000Y-57316273D02*
X129409797Y-57325224D01*
X129388095Y-57354182D01*
X129355976Y-57439862D01*
X129316912Y-57523064D01*
X129311694Y-57557984D01*
X129298808Y-57592357D01*
X129293855Y-57659000D01*
X114426000Y-57659000D01*
X114426000Y-49656000D01*
X129414000Y-49656000D01*
X129414000Y-57316273D01*
M02*
