M48
; DRILL file {KiCad (5.1.0-1195-gcea9cd417)} date Saturday, July 13, 2019 at 11:42:53 PM
; FORMAT={-:-/ absolute / inch / decimal}
; #@! TF.CreationDate,2019-07-13T23:42:53-07:00
; #@! TF.GenerationSoftware,Kicad,Pcbnew,(5.1.0-1195-gcea9cd417)
; #@! TF.FileFunction,Plated,1,2,PTH
FMAT,2
INCH
T1C0.0220
T2C0.0295
T3C0.0315
T4C0.0394
T5C0.0551
T6C0.0591
%
G90
G05
T1
X3.025Y-1.95
X3.1Y-2.45
X3.225Y-1.7
X3.25Y-2.025
X3.4Y-1.55
X3.425Y-2.2
X3.45Y-1.975
X3.5Y-2.35
X3.875Y-2.075
X3.9715Y-1.8715
X4.0Y-1.925
X4.075Y-1.525
X4.175Y-1.65
X4.175Y-1.875
X4.25Y-1.575
X4.7Y-2.1
T2
X4.75Y-1.925
X4.8Y-1.925
X4.85Y-1.925
X3.65Y-2.0
X3.7Y-2.0
X3.75Y-2.0
X4.125Y-1.725
X4.175Y-1.725
X4.225Y-1.725
T3
X4.325Y-1.85
X4.325Y-1.95
X4.325Y-2.05
X4.325Y-2.15
X4.625Y-1.85
X4.625Y-1.95
X4.625Y-2.05
X4.625Y-2.15
X3.0Y-2.125
X3.0984Y-2.125
T4
X2.8Y-2.45
X2.8Y-2.55
X2.8Y-2.65
T5
X3.025Y-3.025
X3.225Y-3.025
X3.425Y-3.025
X3.625Y-3.025
X3.825Y-3.025
X4.025Y-3.025
X4.225Y-3.025
X4.425Y-3.025
X4.625Y-3.025
X4.825Y-3.025
T6
X3.85Y-2.3547
X3.85Y-2.65
X4.4406Y-2.3547
X4.4406Y-2.65
X4.6374Y-2.3547
X4.6374Y-2.65
X4.8343Y-2.3547
X4.8343Y-2.65
T0
M30
