G04 #@! TF.GenerationSoftware,KiCad,Pcbnew,(5.1.0-894-gde406e36d)*
G04 #@! TF.CreationDate,2019-08-24T10:53:01-07:00*
G04 #@! TF.ProjectId,RCSMCtrl,5243534d-4374-4726-9c2e-6b696361645f,A*
G04 #@! TF.SameCoordinates,Original*
G04 #@! TF.FileFunction,Soldermask,Bot*
G04 #@! TF.FilePolarity,Negative*
%FSLAX46Y46*%
G04 Gerber Fmt 4.6, Leading zero omitted, Abs format (unit mm)*
G04 Created by KiCad (PCBNEW (5.1.0-894-gde406e36d)) date 2019-08-24 10:53:01*
%MOMM*%
%LPD*%
G04 APERTURE LIST*
%ADD10C,0.300000*%
%ADD11O,1.700000X1.700000*%
%ADD12R,1.700000X1.700000*%
%ADD13C,3.200000*%
%ADD14R,1.050000X1.500000*%
%ADD15C,0.100000*%
%ADD16C,1.050000*%
%ADD17O,2.080000X3.600000*%
%ADD18C,2.080000*%
%ADD19O,2.400000X1.600000*%
%ADD20R,2.400000X1.600000*%
%ADD21C,1.600000*%
%ADD22R,1.600000X1.600000*%
%ADD23R,2.500000X2.500000*%
%ADD24O,2.500000X2.500000*%
G04 APERTURE END LIST*
D10*
X109570000Y-117518571D02*
X109570000Y-116018571D01*
X109927142Y-116018571D01*
X110141428Y-116090000D01*
X110284285Y-116232857D01*
X110355714Y-116375714D01*
X110427142Y-116661428D01*
X110427142Y-116875714D01*
X110355714Y-117161428D01*
X110284285Y-117304285D01*
X110141428Y-117447142D01*
X109927142Y-117518571D01*
X109570000Y-117518571D01*
X111070000Y-117518571D02*
X111070000Y-116018571D01*
X111570000Y-117090000D01*
X112070000Y-116018571D01*
X112070000Y-117518571D01*
X113284285Y-116732857D02*
X112784285Y-116732857D01*
X112784285Y-117518571D02*
X112784285Y-116018571D01*
X113498571Y-116018571D01*
X114070000Y-116732857D02*
X114570000Y-116732857D01*
X114784285Y-117518571D02*
X114070000Y-117518571D01*
X114070000Y-116018571D01*
X114784285Y-116018571D01*
X116498571Y-116161428D02*
X116570000Y-116090000D01*
X116712857Y-116018571D01*
X117070000Y-116018571D01*
X117212857Y-116090000D01*
X117284285Y-116161428D01*
X117355714Y-116304285D01*
X117355714Y-116447142D01*
X117284285Y-116661428D01*
X116427142Y-117518571D01*
X117355714Y-117518571D01*
X118284285Y-116018571D02*
X118427142Y-116018571D01*
X118570000Y-116090000D01*
X118641428Y-116161428D01*
X118712857Y-116304285D01*
X118784285Y-116590000D01*
X118784285Y-116947142D01*
X118712857Y-117232857D01*
X118641428Y-117375714D01*
X118570000Y-117447142D01*
X118427142Y-117518571D01*
X118284285Y-117518571D01*
X118141428Y-117447142D01*
X118070000Y-117375714D01*
X117998571Y-117232857D01*
X117927142Y-116947142D01*
X117927142Y-116590000D01*
X117998571Y-116304285D01*
X118070000Y-116161428D01*
X118141428Y-116090000D01*
X118284285Y-116018571D01*
X120212857Y-117518571D02*
X119355714Y-117518571D01*
X119784285Y-117518571D02*
X119784285Y-116018571D01*
X119641428Y-116232857D01*
X119498571Y-116375714D01*
X119355714Y-116447142D01*
X120712857Y-116018571D02*
X121712857Y-116018571D01*
X121070000Y-117518571D01*
D11*
X71120000Y-50165000D03*
X71120000Y-47625000D03*
D12*
X71120000Y-45085000D03*
D13*
X72390000Y-38100000D03*
X123190000Y-38100000D03*
D14*
X120650000Y-48895000D03*
D15*
G36*
X123552954Y-48164982D02*
G01*
X123638116Y-48221884D01*
X123695018Y-48307046D01*
X123715000Y-48407500D01*
X123715000Y-49382500D01*
X123695018Y-49482954D01*
X123638116Y-49568116D01*
X123552954Y-49625018D01*
X123452500Y-49645000D01*
X122927500Y-49645000D01*
X122827046Y-49625018D01*
X122741884Y-49568116D01*
X122684982Y-49482954D01*
X122665000Y-49382500D01*
X122665000Y-48407500D01*
X122684982Y-48307046D01*
X122741884Y-48221884D01*
X122827046Y-48164982D01*
X122927500Y-48145000D01*
X123452500Y-48145000D01*
X123552954Y-48164982D01*
X123552954Y-48164982D01*
G37*
D16*
X123190000Y-48895000D03*
D15*
G36*
X122282954Y-48164982D02*
G01*
X122368116Y-48221884D01*
X122425018Y-48307046D01*
X122445000Y-48407500D01*
X122445000Y-49382500D01*
X122425018Y-49482954D01*
X122368116Y-49568116D01*
X122282954Y-49625018D01*
X122182500Y-49645000D01*
X121657500Y-49645000D01*
X121557046Y-49625018D01*
X121471884Y-49568116D01*
X121414982Y-49482954D01*
X121395000Y-49382500D01*
X121395000Y-48407500D01*
X121414982Y-48307046D01*
X121471884Y-48221884D01*
X121557046Y-48164982D01*
X121657500Y-48145000D01*
X122182500Y-48145000D01*
X122282954Y-48164982D01*
X122282954Y-48164982D01*
G37*
D16*
X121920000Y-48895000D03*
D14*
X92710000Y-50800000D03*
D15*
G36*
X95612954Y-50069982D02*
G01*
X95698116Y-50126884D01*
X95755018Y-50212046D01*
X95775000Y-50312500D01*
X95775000Y-51287500D01*
X95755018Y-51387954D01*
X95698116Y-51473116D01*
X95612954Y-51530018D01*
X95512500Y-51550000D01*
X94987500Y-51550000D01*
X94887046Y-51530018D01*
X94801884Y-51473116D01*
X94744982Y-51387954D01*
X94725000Y-51287500D01*
X94725000Y-50312500D01*
X94744982Y-50212046D01*
X94801884Y-50126884D01*
X94887046Y-50069982D01*
X94987500Y-50050000D01*
X95512500Y-50050000D01*
X95612954Y-50069982D01*
X95612954Y-50069982D01*
G37*
D16*
X95250000Y-50800000D03*
D15*
G36*
X94342954Y-50069982D02*
G01*
X94428116Y-50126884D01*
X94485018Y-50212046D01*
X94505000Y-50312500D01*
X94505000Y-51287500D01*
X94485018Y-51387954D01*
X94428116Y-51473116D01*
X94342954Y-51530018D01*
X94242500Y-51550000D01*
X93717500Y-51550000D01*
X93617046Y-51530018D01*
X93531884Y-51473116D01*
X93474982Y-51387954D01*
X93455000Y-51287500D01*
X93455000Y-50312500D01*
X93474982Y-50212046D01*
X93531884Y-50126884D01*
X93617046Y-50069982D01*
X93717500Y-50050000D01*
X94242500Y-50050000D01*
X94342954Y-50069982D01*
X94342954Y-50069982D01*
G37*
D16*
X93980000Y-50800000D03*
D14*
X104775000Y-43815000D03*
D15*
G36*
X107677954Y-43084982D02*
G01*
X107763116Y-43141884D01*
X107820018Y-43227046D01*
X107840000Y-43327500D01*
X107840000Y-44302500D01*
X107820018Y-44402954D01*
X107763116Y-44488116D01*
X107677954Y-44545018D01*
X107577500Y-44565000D01*
X107052500Y-44565000D01*
X106952046Y-44545018D01*
X106866884Y-44488116D01*
X106809982Y-44402954D01*
X106790000Y-44302500D01*
X106790000Y-43327500D01*
X106809982Y-43227046D01*
X106866884Y-43141884D01*
X106952046Y-43084982D01*
X107052500Y-43065000D01*
X107577500Y-43065000D01*
X107677954Y-43084982D01*
X107677954Y-43084982D01*
G37*
D16*
X107315000Y-43815000D03*
D15*
G36*
X106407954Y-43084982D02*
G01*
X106493116Y-43141884D01*
X106550018Y-43227046D01*
X106570000Y-43327500D01*
X106570000Y-44302500D01*
X106550018Y-44402954D01*
X106493116Y-44488116D01*
X106407954Y-44545018D01*
X106307500Y-44565000D01*
X105782500Y-44565000D01*
X105682046Y-44545018D01*
X105596884Y-44488116D01*
X105539982Y-44402954D01*
X105520000Y-44302500D01*
X105520000Y-43327500D01*
X105539982Y-43227046D01*
X105596884Y-43141884D01*
X105682046Y-43084982D01*
X105782500Y-43065000D01*
X106307500Y-43065000D01*
X106407954Y-43084982D01*
X106407954Y-43084982D01*
G37*
D16*
X106045000Y-43815000D03*
D11*
X71120000Y-67310000D03*
X71120000Y-64770000D03*
D12*
X71120000Y-62230000D03*
D17*
X122555000Y-76835000D03*
X117475000Y-76835000D03*
X112395000Y-76835000D03*
X107315000Y-76835000D03*
X102235000Y-76835000D03*
X97155000Y-76835000D03*
X92075000Y-76835000D03*
X86995000Y-76835000D03*
X81915000Y-76835000D03*
D15*
G36*
X77720671Y-75054030D02*
G01*
X77801777Y-75108223D01*
X77855970Y-75189329D01*
X77875000Y-75284999D01*
X77875000Y-78385001D01*
X77855970Y-78480671D01*
X77801777Y-78561777D01*
X77720671Y-78615970D01*
X77625001Y-78635000D01*
X76044999Y-78635000D01*
X75949329Y-78615970D01*
X75868223Y-78561777D01*
X75814030Y-78480671D01*
X75795000Y-78385001D01*
X75795000Y-75284999D01*
X75814030Y-75189329D01*
X75868223Y-75108223D01*
X75949329Y-75054030D01*
X76044999Y-75035000D01*
X77625001Y-75035000D01*
X77720671Y-75054030D01*
X77720671Y-75054030D01*
G37*
D18*
X76835000Y-76835000D03*
D19*
X117475000Y-46990000D03*
X109855000Y-54610000D03*
X117475000Y-49530000D03*
X109855000Y-52070000D03*
X117475000Y-52070000D03*
X109855000Y-49530000D03*
X117475000Y-54610000D03*
D20*
X109855000Y-46990000D03*
D21*
X78700000Y-53975000D03*
D22*
X76200000Y-53975000D03*
D23*
X97790000Y-67310000D03*
D24*
X112790000Y-67310000D03*
X117790000Y-67310000D03*
X122790000Y-67310000D03*
X122790000Y-59810000D03*
X117790000Y-59810000D03*
X112790000Y-59810000D03*
X97790000Y-59810000D03*
M02*
