G04 #@! TF.GenerationSoftware,KiCad,Pcbnew,(5.1.0-1195-gcea9cd417)*
G04 #@! TF.CreationDate,2019-07-13T23:42:12-07:00*
G04 #@! TF.ProjectId,RCSMCtrl,5243534d-4374-4726-9c2e-6b696361645f,NC*
G04 #@! TF.SameCoordinates,Original*
G04 #@! TF.FileFunction,Legend,Bot*
G04 #@! TF.FilePolarity,Positive*
%FSLAX46Y46*%
G04 Gerber Fmt 4.6, Leading zero omitted, Abs format (unit mm)*
G04 Created by KiCad (PCBNEW (5.1.0-1195-gcea9cd417)) date 2019-07-13 23:42:12*
%MOMM*%
%LPD*%
G04 APERTURE LIST*
%ADD10C,0.300000*%
G04 APERTURE END LIST*
D10*
X119025714Y-62750000D02*
X119168571Y-62678571D01*
X119382857Y-62678571D01*
X119597142Y-62750000D01*
X119740000Y-62892857D01*
X119811428Y-63035714D01*
X119882857Y-63321428D01*
X119882857Y-63535714D01*
X119811428Y-63821428D01*
X119740000Y-63964285D01*
X119597142Y-64107142D01*
X119382857Y-64178571D01*
X119240000Y-64178571D01*
X119025714Y-64107142D01*
X118954285Y-64035714D01*
X118954285Y-63535714D01*
X119240000Y-63535714D01*
X118382857Y-62821428D02*
X118311428Y-62750000D01*
X118168571Y-62678571D01*
X117811428Y-62678571D01*
X117668571Y-62750000D01*
X117597142Y-62821428D01*
X117525714Y-62964285D01*
X117525714Y-63107142D01*
X117597142Y-63321428D01*
X118454285Y-64178571D01*
X117525714Y-64178571D01*
X116025714Y-64178571D02*
X116525714Y-63464285D01*
X116882857Y-64178571D02*
X116882857Y-62678571D01*
X116311428Y-62678571D01*
X116168571Y-62750000D01*
X116097142Y-62821428D01*
X116025714Y-62964285D01*
X116025714Y-63178571D01*
X116097142Y-63321428D01*
X116168571Y-63392857D01*
X116311428Y-63464285D01*
X116882857Y-63464285D01*
X114240000Y-64178571D02*
X114240000Y-62678571D01*
X113740000Y-63750000D01*
X113240000Y-62678571D01*
X113240000Y-64178571D01*
X112525714Y-64178571D02*
X112525714Y-63178571D01*
X112525714Y-62678571D02*
X112597142Y-62750000D01*
X112525714Y-62821428D01*
X112454285Y-62750000D01*
X112525714Y-62678571D01*
X112525714Y-62821428D01*
X111811428Y-63178571D02*
X111811428Y-64178571D01*
X111811428Y-63321428D02*
X111740000Y-63250000D01*
X111597142Y-63178571D01*
X111382857Y-63178571D01*
X111240000Y-63250000D01*
X111168571Y-63392857D01*
X111168571Y-64178571D01*
X110454285Y-64178571D02*
X110454285Y-63178571D01*
X110454285Y-62678571D02*
X110525714Y-62750000D01*
X110454285Y-62821428D01*
X110382857Y-62750000D01*
X110454285Y-62678571D01*
X110454285Y-62821428D01*
X108811428Y-62678571D02*
X108311428Y-64178571D01*
X107811428Y-62678571D01*
X106740000Y-64107142D02*
X106882857Y-64178571D01*
X107168571Y-64178571D01*
X107311428Y-64107142D01*
X107382857Y-63964285D01*
X107382857Y-63392857D01*
X107311428Y-63250000D01*
X107168571Y-63178571D01*
X106882857Y-63178571D01*
X106740000Y-63250000D01*
X106668571Y-63392857D01*
X106668571Y-63535714D01*
X107382857Y-63678571D01*
X106025714Y-64178571D02*
X106025714Y-63178571D01*
X106025714Y-63464285D02*
X105954285Y-63321428D01*
X105882857Y-63250000D01*
X105740000Y-63178571D01*
X105597142Y-63178571D01*
X105168571Y-64107142D02*
X105025714Y-64178571D01*
X104740000Y-64178571D01*
X104597142Y-64107142D01*
X104525714Y-63964285D01*
X104525714Y-63892857D01*
X104597142Y-63750000D01*
X104740000Y-63678571D01*
X104954285Y-63678571D01*
X105097142Y-63607142D01*
X105168571Y-63464285D01*
X105168571Y-63392857D01*
X105097142Y-63250000D01*
X104954285Y-63178571D01*
X104740000Y-63178571D01*
X104597142Y-63250000D01*
X103882857Y-64178571D02*
X103882857Y-63178571D01*
X103882857Y-62678571D02*
X103954285Y-62750000D01*
X103882857Y-62821428D01*
X103811428Y-62750000D01*
X103882857Y-62678571D01*
X103882857Y-62821428D01*
X102954285Y-64178571D02*
X103097142Y-64107142D01*
X103168571Y-64035714D01*
X103240000Y-63892857D01*
X103240000Y-63464285D01*
X103168571Y-63321428D01*
X103097142Y-63250000D01*
X102954285Y-63178571D01*
X102740000Y-63178571D01*
X102597142Y-63250000D01*
X102525714Y-63321428D01*
X102454285Y-63464285D01*
X102454285Y-63892857D01*
X102525714Y-64035714D01*
X102597142Y-64107142D01*
X102740000Y-64178571D01*
X102954285Y-64178571D01*
X101811428Y-63178571D02*
X101811428Y-64178571D01*
X101811428Y-63321428D02*
X101740000Y-63250000D01*
X101597142Y-63178571D01*
X101382857Y-63178571D01*
X101240000Y-63250000D01*
X101168571Y-63392857D01*
X101168571Y-64178571D01*
X109830714Y-66718571D02*
X110330714Y-66004285D01*
X110687857Y-66718571D02*
X110687857Y-65218571D01*
X110116428Y-65218571D01*
X109973571Y-65290000D01*
X109902142Y-65361428D01*
X109830714Y-65504285D01*
X109830714Y-65718571D01*
X109902142Y-65861428D01*
X109973571Y-65932857D01*
X110116428Y-66004285D01*
X110687857Y-66004285D01*
X108616428Y-66647142D02*
X108759285Y-66718571D01*
X109045000Y-66718571D01*
X109187857Y-66647142D01*
X109259285Y-66504285D01*
X109259285Y-65932857D01*
X109187857Y-65790000D01*
X109045000Y-65718571D01*
X108759285Y-65718571D01*
X108616428Y-65790000D01*
X108545000Y-65932857D01*
X108545000Y-66075714D01*
X109259285Y-66218571D01*
X108045000Y-65718571D02*
X107687857Y-66718571D01*
X107330714Y-65718571D01*
X106759285Y-66575714D02*
X106687857Y-66647142D01*
X106759285Y-66718571D01*
X106830714Y-66647142D01*
X106759285Y-66575714D01*
X106759285Y-66718571D01*
X104902142Y-65718571D02*
X104902142Y-66718571D01*
X104902142Y-65861428D02*
X104830714Y-65790000D01*
X104687857Y-65718571D01*
X104473571Y-65718571D01*
X104330714Y-65790000D01*
X104259285Y-65932857D01*
X104259285Y-66718571D01*
X102473571Y-65147142D02*
X103759285Y-67075714D01*
X101330714Y-66647142D02*
X101473571Y-66718571D01*
X101759285Y-66718571D01*
X101902142Y-66647142D01*
X101973571Y-66575714D01*
X102045000Y-66432857D01*
X102045000Y-66004285D01*
X101973571Y-65861428D01*
X101902142Y-65790000D01*
X101759285Y-65718571D01*
X101473571Y-65718571D01*
X101330714Y-65790000D01*
X101250000Y-55923571D02*
X101250000Y-54423571D01*
X100892857Y-54423571D01*
X100678571Y-54495000D01*
X100535714Y-54637857D01*
X100464285Y-54780714D01*
X100392857Y-55066428D01*
X100392857Y-55280714D01*
X100464285Y-55566428D01*
X100535714Y-55709285D01*
X100678571Y-55852142D01*
X100892857Y-55923571D01*
X101250000Y-55923571D01*
X99750000Y-55923571D02*
X99750000Y-54423571D01*
X99250000Y-55495000D01*
X98750000Y-54423571D01*
X98750000Y-55923571D01*
X97535714Y-55137857D02*
X98035714Y-55137857D01*
X98035714Y-55923571D02*
X98035714Y-54423571D01*
X97321428Y-54423571D01*
X96750000Y-55137857D02*
X96250000Y-55137857D01*
X96035714Y-55923571D02*
X96750000Y-55923571D01*
X96750000Y-54423571D01*
X96035714Y-54423571D01*
X94321428Y-54566428D02*
X94250000Y-54495000D01*
X94107142Y-54423571D01*
X93750000Y-54423571D01*
X93607142Y-54495000D01*
X93535714Y-54566428D01*
X93464285Y-54709285D01*
X93464285Y-54852142D01*
X93535714Y-55066428D01*
X94392857Y-55923571D01*
X93464285Y-55923571D01*
X92535714Y-54423571D02*
X92392857Y-54423571D01*
X92250000Y-54495000D01*
X92178571Y-54566428D01*
X92107142Y-54709285D01*
X92035714Y-54995000D01*
X92035714Y-55352142D01*
X92107142Y-55637857D01*
X92178571Y-55780714D01*
X92250000Y-55852142D01*
X92392857Y-55923571D01*
X92535714Y-55923571D01*
X92678571Y-55852142D01*
X92750000Y-55780714D01*
X92821428Y-55637857D01*
X92892857Y-55352142D01*
X92892857Y-54995000D01*
X92821428Y-54709285D01*
X92750000Y-54566428D01*
X92678571Y-54495000D01*
X92535714Y-54423571D01*
X90607142Y-55923571D02*
X91464285Y-55923571D01*
X91035714Y-55923571D02*
X91035714Y-54423571D01*
X91178571Y-54637857D01*
X91321428Y-54780714D01*
X91464285Y-54852142D01*
X89892857Y-55923571D02*
X89607142Y-55923571D01*
X89464285Y-55852142D01*
X89392857Y-55780714D01*
X89250000Y-55566428D01*
X89178571Y-55280714D01*
X89178571Y-54709285D01*
X89250000Y-54566428D01*
X89321428Y-54495000D01*
X89464285Y-54423571D01*
X89750000Y-54423571D01*
X89892857Y-54495000D01*
X89964285Y-54566428D01*
X90035714Y-54709285D01*
X90035714Y-55066428D01*
X89964285Y-55209285D01*
X89892857Y-55280714D01*
X89750000Y-55352142D01*
X89464285Y-55352142D01*
X89321428Y-55280714D01*
X89250000Y-55209285D01*
X89178571Y-55066428D01*
X110124285Y-70523571D02*
X110624285Y-69809285D01*
X110981428Y-70523571D02*
X110981428Y-69023571D01*
X110410000Y-69023571D01*
X110267142Y-69095000D01*
X110195714Y-69166428D01*
X110124285Y-69309285D01*
X110124285Y-69523571D01*
X110195714Y-69666428D01*
X110267142Y-69737857D01*
X110410000Y-69809285D01*
X110981428Y-69809285D01*
X108410000Y-68952142D02*
X109695714Y-70880714D01*
X107052857Y-70380714D02*
X107124285Y-70452142D01*
X107338571Y-70523571D01*
X107481428Y-70523571D01*
X107695714Y-70452142D01*
X107838571Y-70309285D01*
X107910000Y-70166428D01*
X107981428Y-69880714D01*
X107981428Y-69666428D01*
X107910000Y-69380714D01*
X107838571Y-69237857D01*
X107695714Y-69095000D01*
X107481428Y-69023571D01*
X107338571Y-69023571D01*
X107124285Y-69095000D01*
X107052857Y-69166428D01*
X105338571Y-70452142D02*
X105124285Y-70523571D01*
X104767142Y-70523571D01*
X104624285Y-70452142D01*
X104552857Y-70380714D01*
X104481428Y-70237857D01*
X104481428Y-70095000D01*
X104552857Y-69952142D01*
X104624285Y-69880714D01*
X104767142Y-69809285D01*
X105052857Y-69737857D01*
X105195714Y-69666428D01*
X105267142Y-69595000D01*
X105338571Y-69452142D01*
X105338571Y-69309285D01*
X105267142Y-69166428D01*
X105195714Y-69095000D01*
X105052857Y-69023571D01*
X104695714Y-69023571D01*
X104481428Y-69095000D01*
X103267142Y-70452142D02*
X103410000Y-70523571D01*
X103695714Y-70523571D01*
X103838571Y-70452142D01*
X103910000Y-70309285D01*
X103910000Y-69737857D01*
X103838571Y-69595000D01*
X103695714Y-69523571D01*
X103410000Y-69523571D01*
X103267142Y-69595000D01*
X103195714Y-69737857D01*
X103195714Y-69880714D01*
X103910000Y-70023571D01*
X102552857Y-70523571D02*
X102552857Y-69523571D01*
X102552857Y-69809285D02*
X102481428Y-69666428D01*
X102410000Y-69595000D01*
X102267142Y-69523571D01*
X102124285Y-69523571D01*
X101767142Y-69523571D02*
X101410000Y-70523571D01*
X101052857Y-69523571D01*
X100267142Y-70523571D02*
X100410000Y-70452142D01*
X100481428Y-70380714D01*
X100552857Y-70237857D01*
X100552857Y-69809285D01*
X100481428Y-69666428D01*
X100410000Y-69595000D01*
X100267142Y-69523571D01*
X100052857Y-69523571D01*
X99910000Y-69595000D01*
X99838571Y-69666428D01*
X99767142Y-69809285D01*
X99767142Y-70237857D01*
X99838571Y-70380714D01*
X99910000Y-70452142D01*
X100052857Y-70523571D01*
X100267142Y-70523571D01*
X119981428Y-73002142D02*
X119767142Y-73073571D01*
X119410000Y-73073571D01*
X119267142Y-73002142D01*
X119195714Y-72930714D01*
X119124285Y-72787857D01*
X119124285Y-72645000D01*
X119195714Y-72502142D01*
X119267142Y-72430714D01*
X119410000Y-72359285D01*
X119695714Y-72287857D01*
X119838571Y-72216428D01*
X119910000Y-72145000D01*
X119981428Y-72002142D01*
X119981428Y-71859285D01*
X119910000Y-71716428D01*
X119838571Y-71645000D01*
X119695714Y-71573571D01*
X119338571Y-71573571D01*
X119124285Y-71645000D01*
X118624285Y-72073571D02*
X118338571Y-73073571D01*
X118052857Y-72359285D01*
X117767142Y-73073571D01*
X117481428Y-72073571D01*
X116910000Y-73073571D02*
X116910000Y-72073571D01*
X116910000Y-71573571D02*
X116981428Y-71645000D01*
X116910000Y-71716428D01*
X116838571Y-71645000D01*
X116910000Y-71573571D01*
X116910000Y-71716428D01*
X116410000Y-72073571D02*
X115838571Y-72073571D01*
X116195714Y-71573571D02*
X116195714Y-72859285D01*
X116124285Y-73002142D01*
X115981428Y-73073571D01*
X115838571Y-73073571D01*
X114695714Y-73002142D02*
X114838571Y-73073571D01*
X115124285Y-73073571D01*
X115267142Y-73002142D01*
X115338571Y-72930714D01*
X115410000Y-72787857D01*
X115410000Y-72359285D01*
X115338571Y-72216428D01*
X115267142Y-72145000D01*
X115124285Y-72073571D01*
X114838571Y-72073571D01*
X114695714Y-72145000D01*
X114052857Y-73073571D02*
X114052857Y-71573571D01*
X113410000Y-73073571D02*
X113410000Y-72287857D01*
X113481428Y-72145000D01*
X113624285Y-72073571D01*
X113838571Y-72073571D01*
X113981428Y-72145000D01*
X114052857Y-72216428D01*
X111552857Y-73073571D02*
X111552857Y-71573571D01*
X111052857Y-72645000D01*
X110552857Y-71573571D01*
X110552857Y-73073571D01*
X109195714Y-73073571D02*
X109195714Y-72287857D01*
X109267142Y-72145000D01*
X109410000Y-72073571D01*
X109695714Y-72073571D01*
X109838571Y-72145000D01*
X109195714Y-73002142D02*
X109338571Y-73073571D01*
X109695714Y-73073571D01*
X109838571Y-73002142D01*
X109910000Y-72859285D01*
X109910000Y-72716428D01*
X109838571Y-72573571D01*
X109695714Y-72502142D01*
X109338571Y-72502142D01*
X109195714Y-72430714D01*
X107838571Y-73002142D02*
X107981428Y-73073571D01*
X108267142Y-73073571D01*
X108410000Y-73002142D01*
X108481428Y-72930714D01*
X108552857Y-72787857D01*
X108552857Y-72359285D01*
X108481428Y-72216428D01*
X108410000Y-72145000D01*
X108267142Y-72073571D01*
X107981428Y-72073571D01*
X107838571Y-72145000D01*
X107195714Y-73073571D02*
X107195714Y-71573571D01*
X106552857Y-73073571D02*
X106552857Y-72287857D01*
X106624285Y-72145000D01*
X106767142Y-72073571D01*
X106981428Y-72073571D01*
X107124285Y-72145000D01*
X107195714Y-72216428D01*
X105838571Y-73073571D02*
X105838571Y-72073571D01*
X105838571Y-71573571D02*
X105910000Y-71645000D01*
X105838571Y-71716428D01*
X105767142Y-71645000D01*
X105838571Y-71573571D01*
X105838571Y-71716428D01*
X105124285Y-72073571D02*
X105124285Y-73073571D01*
X105124285Y-72216428D02*
X105052857Y-72145000D01*
X104910000Y-72073571D01*
X104695714Y-72073571D01*
X104552857Y-72145000D01*
X104481428Y-72287857D01*
X104481428Y-73073571D01*
X103195714Y-73002142D02*
X103338571Y-73073571D01*
X103624285Y-73073571D01*
X103767142Y-73002142D01*
X103838571Y-72859285D01*
X103838571Y-72287857D01*
X103767142Y-72145000D01*
X103624285Y-72073571D01*
X103338571Y-72073571D01*
X103195714Y-72145000D01*
X103124285Y-72287857D01*
X103124285Y-72430714D01*
X103838571Y-72573571D01*
X100481428Y-72930714D02*
X100552857Y-73002142D01*
X100767142Y-73073571D01*
X100910000Y-73073571D01*
X101124285Y-73002142D01*
X101267142Y-72859285D01*
X101338571Y-72716428D01*
X101410000Y-72430714D01*
X101410000Y-72216428D01*
X101338571Y-71930714D01*
X101267142Y-71787857D01*
X101124285Y-71645000D01*
X100910000Y-71573571D01*
X100767142Y-71573571D01*
X100552857Y-71645000D01*
X100481428Y-71716428D01*
X99624285Y-73073571D02*
X99767142Y-73002142D01*
X99838571Y-72930714D01*
X99910000Y-72787857D01*
X99910000Y-72359285D01*
X99838571Y-72216428D01*
X99767142Y-72145000D01*
X99624285Y-72073571D01*
X99410000Y-72073571D01*
X99267142Y-72145000D01*
X99195714Y-72216428D01*
X99124285Y-72359285D01*
X99124285Y-72787857D01*
X99195714Y-72930714D01*
X99267142Y-73002142D01*
X99410000Y-73073571D01*
X99624285Y-73073571D01*
X98481428Y-72073571D02*
X98481428Y-73073571D01*
X98481428Y-72216428D02*
X98410000Y-72145000D01*
X98267142Y-72073571D01*
X98052857Y-72073571D01*
X97910000Y-72145000D01*
X97838571Y-72287857D01*
X97838571Y-73073571D01*
X97338571Y-72073571D02*
X96767142Y-72073571D01*
X97124285Y-71573571D02*
X97124285Y-72859285D01*
X97052857Y-73002142D01*
X96910000Y-73073571D01*
X96767142Y-73073571D01*
X96267142Y-73073571D02*
X96267142Y-72073571D01*
X96267142Y-72359285D02*
X96195714Y-72216428D01*
X96124285Y-72145000D01*
X95981428Y-72073571D01*
X95838571Y-72073571D01*
X95124285Y-73073571D02*
X95267142Y-73002142D01*
X95338571Y-72930714D01*
X95410000Y-72787857D01*
X95410000Y-72359285D01*
X95338571Y-72216428D01*
X95267142Y-72145000D01*
X95124285Y-72073571D01*
X94910000Y-72073571D01*
X94767142Y-72145000D01*
X94695714Y-72216428D01*
X94624285Y-72359285D01*
X94624285Y-72787857D01*
X94695714Y-72930714D01*
X94767142Y-73002142D01*
X94910000Y-73073571D01*
X95124285Y-73073571D01*
X93767142Y-73073571D02*
X93910000Y-73002142D01*
X93981428Y-72859285D01*
X93981428Y-71573571D01*
X92981428Y-73073571D02*
X93124285Y-73002142D01*
X93195714Y-72859285D01*
X93195714Y-71573571D01*
X91838571Y-73002142D02*
X91981428Y-73073571D01*
X92267142Y-73073571D01*
X92410000Y-73002142D01*
X92481428Y-72859285D01*
X92481428Y-72287857D01*
X92410000Y-72145000D01*
X92267142Y-72073571D01*
X91981428Y-72073571D01*
X91838571Y-72145000D01*
X91767142Y-72287857D01*
X91767142Y-72430714D01*
X92481428Y-72573571D01*
X91124285Y-73073571D02*
X91124285Y-72073571D01*
X91124285Y-72359285D02*
X91052857Y-72216428D01*
X90981428Y-72145000D01*
X90838571Y-72073571D01*
X90695714Y-72073571D01*
M02*
