G04 #@! TF.GenerationSoftware,KiCad,Pcbnew,(5.1.0-894-gde406e36d)*
G04 #@! TF.CreationDate,2019-08-24T10:53:01-07:00*
G04 #@! TF.ProjectId,RCSMCtrl,5243534d-4374-4726-9c2e-6b696361645f,A*
G04 #@! TF.SameCoordinates,Original*
G04 #@! TF.FileFunction,Copper,L1,Top*
G04 #@! TF.FilePolarity,Positive*
%FSLAX46Y46*%
G04 Gerber Fmt 4.6, Leading zero omitted, Abs format (unit mm)*
G04 Created by KiCad (PCBNEW (5.1.0-894-gde406e36d)) date 2019-08-24 10:53:01*
%MOMM*%
%LPD*%
G04 APERTURE LIST*
%ADD10O,1.700000X1.700000*%
%ADD11R,1.700000X1.700000*%
%ADD12R,5.800000X6.400000*%
%ADD13R,1.200000X2.200000*%
%ADD14R,1.550000X1.300000*%
%ADD15C,0.100000*%
%ADD16C,1.150000*%
%ADD17R,1.050000X1.500000*%
%ADD18C,1.050000*%
%ADD19O,2.080000X3.600000*%
%ADD20C,2.080000*%
%ADD21O,2.400000X1.600000*%
%ADD22R,2.400000X1.600000*%
%ADD23R,3.500000X1.800000*%
%ADD24C,1.425000*%
%ADD25R,1.800000X3.500000*%
%ADD26C,1.600000*%
%ADD27R,1.600000X1.600000*%
%ADD28R,2.500000X2.500000*%
%ADD29O,2.500000X2.500000*%
%ADD30C,1.016000*%
%ADD31C,1.270000*%
%ADD32C,0.635000*%
%ADD33C,0.304800*%
%ADD34C,0.508000*%
%ADD35C,2.032000*%
%ADD36C,0.254000*%
G04 APERTURE END LIST*
D10*
X71120000Y-50165000D03*
X71120000Y-47625000D03*
D11*
X71120000Y-45085000D03*
D12*
X81280000Y-66870000D03*
D13*
X79000000Y-60570000D03*
X83560000Y-60570000D03*
D14*
X93810000Y-36485000D03*
X93810000Y-40985000D03*
X101770000Y-40985000D03*
X101770000Y-36485000D03*
X78570000Y-36485000D03*
X78570000Y-40985000D03*
X86530000Y-40985000D03*
X86530000Y-36485000D03*
D15*
G36*
X123120671Y-51389030D02*
G01*
X123201777Y-51443223D01*
X123255970Y-51524329D01*
X123275000Y-51619999D01*
X123275000Y-52520001D01*
X123255970Y-52615671D01*
X123201777Y-52696777D01*
X123120671Y-52750970D01*
X123025001Y-52770000D01*
X122374999Y-52770000D01*
X122279329Y-52750970D01*
X122198223Y-52696777D01*
X122144030Y-52615671D01*
X122125000Y-52520001D01*
X122125000Y-51619999D01*
X122144030Y-51524329D01*
X122198223Y-51443223D01*
X122279329Y-51389030D01*
X122374999Y-51370000D01*
X123025001Y-51370000D01*
X123120671Y-51389030D01*
X123120671Y-51389030D01*
G37*
D16*
X122700000Y-52070000D03*
D15*
G36*
X121070671Y-51389030D02*
G01*
X121151777Y-51443223D01*
X121205970Y-51524329D01*
X121225000Y-51619999D01*
X121225000Y-52520001D01*
X121205970Y-52615671D01*
X121151777Y-52696777D01*
X121070671Y-52750970D01*
X120975001Y-52770000D01*
X120324999Y-52770000D01*
X120229329Y-52750970D01*
X120148223Y-52696777D01*
X120094030Y-52615671D01*
X120075000Y-52520001D01*
X120075000Y-51619999D01*
X120094030Y-51524329D01*
X120148223Y-51443223D01*
X120229329Y-51389030D01*
X120324999Y-51370000D01*
X120975001Y-51370000D01*
X121070671Y-51389030D01*
X121070671Y-51389030D01*
G37*
D16*
X120650000Y-52070000D03*
D15*
G36*
X121070671Y-44404030D02*
G01*
X121151777Y-44458223D01*
X121205970Y-44539329D01*
X121225000Y-44634999D01*
X121225000Y-45535001D01*
X121205970Y-45630671D01*
X121151777Y-45711777D01*
X121070671Y-45765970D01*
X120975001Y-45785000D01*
X120324999Y-45785000D01*
X120229329Y-45765970D01*
X120148223Y-45711777D01*
X120094030Y-45630671D01*
X120075000Y-45535001D01*
X120075000Y-44634999D01*
X120094030Y-44539329D01*
X120148223Y-44458223D01*
X120229329Y-44404030D01*
X120324999Y-44385000D01*
X120975001Y-44385000D01*
X121070671Y-44404030D01*
X121070671Y-44404030D01*
G37*
D16*
X120650000Y-45085000D03*
D15*
G36*
X123120671Y-44404030D02*
G01*
X123201777Y-44458223D01*
X123255970Y-44539329D01*
X123275000Y-44634999D01*
X123275000Y-45535001D01*
X123255970Y-45630671D01*
X123201777Y-45711777D01*
X123120671Y-45765970D01*
X123025001Y-45785000D01*
X122374999Y-45785000D01*
X122279329Y-45765970D01*
X122198223Y-45711777D01*
X122144030Y-45630671D01*
X122125000Y-45535001D01*
X122125000Y-44634999D01*
X122144030Y-44539329D01*
X122198223Y-44458223D01*
X122279329Y-44404030D01*
X122374999Y-44385000D01*
X123025001Y-44385000D01*
X123120671Y-44404030D01*
X123120671Y-44404030D01*
G37*
D16*
X122700000Y-45085000D03*
D15*
G36*
X107100671Y-50754030D02*
G01*
X107181777Y-50808223D01*
X107235970Y-50889329D01*
X107255000Y-50984999D01*
X107255000Y-51885001D01*
X107235970Y-51980671D01*
X107181777Y-52061777D01*
X107100671Y-52115970D01*
X107005001Y-52135000D01*
X106354999Y-52135000D01*
X106259329Y-52115970D01*
X106178223Y-52061777D01*
X106124030Y-51980671D01*
X106105000Y-51885001D01*
X106105000Y-50984999D01*
X106124030Y-50889329D01*
X106178223Y-50808223D01*
X106259329Y-50754030D01*
X106354999Y-50735000D01*
X107005001Y-50735000D01*
X107100671Y-50754030D01*
X107100671Y-50754030D01*
G37*
D16*
X106680000Y-51435000D03*
D15*
G36*
X105050671Y-50754030D02*
G01*
X105131777Y-50808223D01*
X105185970Y-50889329D01*
X105205000Y-50984999D01*
X105205000Y-51885001D01*
X105185970Y-51980671D01*
X105131777Y-52061777D01*
X105050671Y-52115970D01*
X104955001Y-52135000D01*
X104304999Y-52135000D01*
X104209329Y-52115970D01*
X104128223Y-52061777D01*
X104074030Y-51980671D01*
X104055000Y-51885001D01*
X104055000Y-50984999D01*
X104074030Y-50889329D01*
X104128223Y-50808223D01*
X104209329Y-50754030D01*
X104304999Y-50735000D01*
X104955001Y-50735000D01*
X105050671Y-50754030D01*
X105050671Y-50754030D01*
G37*
D16*
X104630000Y-51435000D03*
D15*
G36*
X92740671Y-43134030D02*
G01*
X92821777Y-43188223D01*
X92875970Y-43269329D01*
X92895000Y-43364999D01*
X92895000Y-44265001D01*
X92875970Y-44360671D01*
X92821777Y-44441777D01*
X92740671Y-44495970D01*
X92645001Y-44515000D01*
X91994999Y-44515000D01*
X91899329Y-44495970D01*
X91818223Y-44441777D01*
X91764030Y-44360671D01*
X91745000Y-44265001D01*
X91745000Y-43364999D01*
X91764030Y-43269329D01*
X91818223Y-43188223D01*
X91899329Y-43134030D01*
X91994999Y-43115000D01*
X92645001Y-43115000D01*
X92740671Y-43134030D01*
X92740671Y-43134030D01*
G37*
D16*
X92320000Y-43815000D03*
D15*
G36*
X94790671Y-43134030D02*
G01*
X94871777Y-43188223D01*
X94925970Y-43269329D01*
X94945000Y-43364999D01*
X94945000Y-44265001D01*
X94925970Y-44360671D01*
X94871777Y-44441777D01*
X94790671Y-44495970D01*
X94695001Y-44515000D01*
X94044999Y-44515000D01*
X93949329Y-44495970D01*
X93868223Y-44441777D01*
X93814030Y-44360671D01*
X93795000Y-44265001D01*
X93795000Y-43364999D01*
X93814030Y-43269329D01*
X93868223Y-43188223D01*
X93949329Y-43134030D01*
X94044999Y-43115000D01*
X94695001Y-43115000D01*
X94790671Y-43134030D01*
X94790671Y-43134030D01*
G37*
D16*
X94370000Y-43815000D03*
D15*
G36*
X104805671Y-39324030D02*
G01*
X104886777Y-39378223D01*
X104940970Y-39459329D01*
X104960000Y-39554999D01*
X104960000Y-40455001D01*
X104940970Y-40550671D01*
X104886777Y-40631777D01*
X104805671Y-40685970D01*
X104710001Y-40705000D01*
X104059999Y-40705000D01*
X103964329Y-40685970D01*
X103883223Y-40631777D01*
X103829030Y-40550671D01*
X103810000Y-40455001D01*
X103810000Y-39554999D01*
X103829030Y-39459329D01*
X103883223Y-39378223D01*
X103964329Y-39324030D01*
X104059999Y-39305000D01*
X104710001Y-39305000D01*
X104805671Y-39324030D01*
X104805671Y-39324030D01*
G37*
D16*
X104385000Y-40005000D03*
D15*
G36*
X106855671Y-39324030D02*
G01*
X106936777Y-39378223D01*
X106990970Y-39459329D01*
X107010000Y-39554999D01*
X107010000Y-40455001D01*
X106990970Y-40550671D01*
X106936777Y-40631777D01*
X106855671Y-40685970D01*
X106760001Y-40705000D01*
X106109999Y-40705000D01*
X106014329Y-40685970D01*
X105933223Y-40631777D01*
X105879030Y-40550671D01*
X105860000Y-40455001D01*
X105860000Y-39554999D01*
X105879030Y-39459329D01*
X105933223Y-39378223D01*
X106014329Y-39324030D01*
X106109999Y-39305000D01*
X106760001Y-39305000D01*
X106855671Y-39324030D01*
X106855671Y-39324030D01*
G37*
D16*
X106435000Y-40005000D03*
D15*
G36*
X121070671Y-53929030D02*
G01*
X121151777Y-53983223D01*
X121205970Y-54064329D01*
X121225000Y-54159999D01*
X121225000Y-55060001D01*
X121205970Y-55155671D01*
X121151777Y-55236777D01*
X121070671Y-55290970D01*
X120975001Y-55310000D01*
X120324999Y-55310000D01*
X120229329Y-55290970D01*
X120148223Y-55236777D01*
X120094030Y-55155671D01*
X120075000Y-55060001D01*
X120075000Y-54159999D01*
X120094030Y-54064329D01*
X120148223Y-53983223D01*
X120229329Y-53929030D01*
X120324999Y-53910000D01*
X120975001Y-53910000D01*
X121070671Y-53929030D01*
X121070671Y-53929030D01*
G37*
D16*
X120650000Y-54610000D03*
D15*
G36*
X123120671Y-53929030D02*
G01*
X123201777Y-53983223D01*
X123255970Y-54064329D01*
X123275000Y-54159999D01*
X123275000Y-55060001D01*
X123255970Y-55155671D01*
X123201777Y-55236777D01*
X123120671Y-55290970D01*
X123025001Y-55310000D01*
X122374999Y-55310000D01*
X122279329Y-55290970D01*
X122198223Y-55236777D01*
X122144030Y-55155671D01*
X122125000Y-55060001D01*
X122125000Y-54159999D01*
X122144030Y-54064329D01*
X122198223Y-53983223D01*
X122279329Y-53929030D01*
X122374999Y-53910000D01*
X123025001Y-53910000D01*
X123120671Y-53929030D01*
X123120671Y-53929030D01*
G37*
D16*
X122700000Y-54610000D03*
D15*
G36*
X89075671Y-43134030D02*
G01*
X89156777Y-43188223D01*
X89210970Y-43269329D01*
X89230000Y-43364999D01*
X89230000Y-44265001D01*
X89210970Y-44360671D01*
X89156777Y-44441777D01*
X89075671Y-44495970D01*
X88980001Y-44515000D01*
X88329999Y-44515000D01*
X88234329Y-44495970D01*
X88153223Y-44441777D01*
X88099030Y-44360671D01*
X88080000Y-44265001D01*
X88080000Y-43364999D01*
X88099030Y-43269329D01*
X88153223Y-43188223D01*
X88234329Y-43134030D01*
X88329999Y-43115000D01*
X88980001Y-43115000D01*
X89075671Y-43134030D01*
X89075671Y-43134030D01*
G37*
D16*
X88655000Y-43815000D03*
D15*
G36*
X87025671Y-43134030D02*
G01*
X87106777Y-43188223D01*
X87160970Y-43269329D01*
X87180000Y-43364999D01*
X87180000Y-44265001D01*
X87160970Y-44360671D01*
X87106777Y-44441777D01*
X87025671Y-44495970D01*
X86930001Y-44515000D01*
X86279999Y-44515000D01*
X86184329Y-44495970D01*
X86103223Y-44441777D01*
X86049030Y-44360671D01*
X86030000Y-44265001D01*
X86030000Y-43364999D01*
X86049030Y-43269329D01*
X86103223Y-43188223D01*
X86184329Y-43134030D01*
X86279999Y-43115000D01*
X86930001Y-43115000D01*
X87025671Y-43134030D01*
X87025671Y-43134030D01*
G37*
D16*
X86605000Y-43815000D03*
D15*
G36*
X98455671Y-50119030D02*
G01*
X98536777Y-50173223D01*
X98590970Y-50254329D01*
X98610000Y-50349999D01*
X98610000Y-51250001D01*
X98590970Y-51345671D01*
X98536777Y-51426777D01*
X98455671Y-51480970D01*
X98360001Y-51500000D01*
X97709999Y-51500000D01*
X97614329Y-51480970D01*
X97533223Y-51426777D01*
X97479030Y-51345671D01*
X97460000Y-51250001D01*
X97460000Y-50349999D01*
X97479030Y-50254329D01*
X97533223Y-50173223D01*
X97614329Y-50119030D01*
X97709999Y-50100000D01*
X98360001Y-50100000D01*
X98455671Y-50119030D01*
X98455671Y-50119030D01*
G37*
D16*
X98035000Y-50800000D03*
D15*
G36*
X100505671Y-50119030D02*
G01*
X100586777Y-50173223D01*
X100640970Y-50254329D01*
X100660000Y-50349999D01*
X100660000Y-51250001D01*
X100640970Y-51345671D01*
X100586777Y-51426777D01*
X100505671Y-51480970D01*
X100410001Y-51500000D01*
X99759999Y-51500000D01*
X99664329Y-51480970D01*
X99583223Y-51426777D01*
X99529030Y-51345671D01*
X99510000Y-51250001D01*
X99510000Y-50349999D01*
X99529030Y-50254329D01*
X99583223Y-50173223D01*
X99664329Y-50119030D01*
X99759999Y-50100000D01*
X100410001Y-50100000D01*
X100505671Y-50119030D01*
X100505671Y-50119030D01*
G37*
D16*
X100085000Y-50800000D03*
D15*
G36*
X94290671Y-46309030D02*
G01*
X94371777Y-46363223D01*
X94425970Y-46444329D01*
X94445000Y-46539999D01*
X94445000Y-47440001D01*
X94425970Y-47535671D01*
X94371777Y-47616777D01*
X94290671Y-47670970D01*
X94195001Y-47690000D01*
X93544999Y-47690000D01*
X93449329Y-47670970D01*
X93368223Y-47616777D01*
X93314030Y-47535671D01*
X93295000Y-47440001D01*
X93295000Y-46539999D01*
X93314030Y-46444329D01*
X93368223Y-46363223D01*
X93449329Y-46309030D01*
X93544999Y-46290000D01*
X94195001Y-46290000D01*
X94290671Y-46309030D01*
X94290671Y-46309030D01*
G37*
D16*
X93870000Y-46990000D03*
D15*
G36*
X92240671Y-46309030D02*
G01*
X92321777Y-46363223D01*
X92375970Y-46444329D01*
X92395000Y-46539999D01*
X92395000Y-47440001D01*
X92375970Y-47535671D01*
X92321777Y-47616777D01*
X92240671Y-47670970D01*
X92145001Y-47690000D01*
X91494999Y-47690000D01*
X91399329Y-47670970D01*
X91318223Y-47616777D01*
X91264030Y-47535671D01*
X91245000Y-47440001D01*
X91245000Y-46539999D01*
X91264030Y-46444329D01*
X91318223Y-46363223D01*
X91399329Y-46309030D01*
X91494999Y-46290000D01*
X92145001Y-46290000D01*
X92240671Y-46309030D01*
X92240671Y-46309030D01*
G37*
D16*
X91820000Y-46990000D03*
D15*
G36*
X97965671Y-46309030D02*
G01*
X98046777Y-46363223D01*
X98100970Y-46444329D01*
X98120000Y-46539999D01*
X98120000Y-47440001D01*
X98100970Y-47535671D01*
X98046777Y-47616777D01*
X97965671Y-47670970D01*
X97870001Y-47690000D01*
X97219999Y-47690000D01*
X97124329Y-47670970D01*
X97043223Y-47616777D01*
X96989030Y-47535671D01*
X96970000Y-47440001D01*
X96970000Y-46539999D01*
X96989030Y-46444329D01*
X97043223Y-46363223D01*
X97124329Y-46309030D01*
X97219999Y-46290000D01*
X97870001Y-46290000D01*
X97965671Y-46309030D01*
X97965671Y-46309030D01*
G37*
D16*
X97545000Y-46990000D03*
D15*
G36*
X95915671Y-46309030D02*
G01*
X95996777Y-46363223D01*
X96050970Y-46444329D01*
X96070000Y-46539999D01*
X96070000Y-47440001D01*
X96050970Y-47535671D01*
X95996777Y-47616777D01*
X95915671Y-47670970D01*
X95820001Y-47690000D01*
X95169999Y-47690000D01*
X95074329Y-47670970D01*
X94993223Y-47616777D01*
X94939030Y-47535671D01*
X94920000Y-47440001D01*
X94920000Y-46539999D01*
X94939030Y-46444329D01*
X94993223Y-46363223D01*
X95074329Y-46309030D01*
X95169999Y-46290000D01*
X95820001Y-46290000D01*
X95915671Y-46309030D01*
X95915671Y-46309030D01*
G37*
D16*
X95495000Y-46990000D03*
D15*
G36*
X105050671Y-48849030D02*
G01*
X105131777Y-48903223D01*
X105185970Y-48984329D01*
X105205000Y-49079999D01*
X105205000Y-49980001D01*
X105185970Y-50075671D01*
X105131777Y-50156777D01*
X105050671Y-50210970D01*
X104955001Y-50230000D01*
X104304999Y-50230000D01*
X104209329Y-50210970D01*
X104128223Y-50156777D01*
X104074030Y-50075671D01*
X104055000Y-49980001D01*
X104055000Y-49079999D01*
X104074030Y-48984329D01*
X104128223Y-48903223D01*
X104209329Y-48849030D01*
X104304999Y-48830000D01*
X104955001Y-48830000D01*
X105050671Y-48849030D01*
X105050671Y-48849030D01*
G37*
D16*
X104630000Y-49530000D03*
D15*
G36*
X107100671Y-48849030D02*
G01*
X107181777Y-48903223D01*
X107235970Y-48984329D01*
X107255000Y-49079999D01*
X107255000Y-49980001D01*
X107235970Y-50075671D01*
X107181777Y-50156777D01*
X107100671Y-50210970D01*
X107005001Y-50230000D01*
X106354999Y-50230000D01*
X106259329Y-50210970D01*
X106178223Y-50156777D01*
X106124030Y-50075671D01*
X106105000Y-49980001D01*
X106105000Y-49079999D01*
X106124030Y-48984329D01*
X106178223Y-48903223D01*
X106259329Y-48849030D01*
X106354999Y-48830000D01*
X107005001Y-48830000D01*
X107100671Y-48849030D01*
X107100671Y-48849030D01*
G37*
D16*
X106680000Y-49530000D03*
D15*
G36*
X101775671Y-46309030D02*
G01*
X101856777Y-46363223D01*
X101910970Y-46444329D01*
X101930000Y-46539999D01*
X101930000Y-47440001D01*
X101910970Y-47535671D01*
X101856777Y-47616777D01*
X101775671Y-47670970D01*
X101680001Y-47690000D01*
X101029999Y-47690000D01*
X100934329Y-47670970D01*
X100853223Y-47616777D01*
X100799030Y-47535671D01*
X100780000Y-47440001D01*
X100780000Y-46539999D01*
X100799030Y-46444329D01*
X100853223Y-46363223D01*
X100934329Y-46309030D01*
X101029999Y-46290000D01*
X101680001Y-46290000D01*
X101775671Y-46309030D01*
X101775671Y-46309030D01*
G37*
D16*
X101355000Y-46990000D03*
D15*
G36*
X99725671Y-46309030D02*
G01*
X99806777Y-46363223D01*
X99860970Y-46444329D01*
X99880000Y-46539999D01*
X99880000Y-47440001D01*
X99860970Y-47535671D01*
X99806777Y-47616777D01*
X99725671Y-47670970D01*
X99630001Y-47690000D01*
X98979999Y-47690000D01*
X98884329Y-47670970D01*
X98803223Y-47616777D01*
X98749030Y-47535671D01*
X98730000Y-47440001D01*
X98730000Y-46539999D01*
X98749030Y-46444329D01*
X98803223Y-46363223D01*
X98884329Y-46309030D01*
X98979999Y-46290000D01*
X99630001Y-46290000D01*
X99725671Y-46309030D01*
X99725671Y-46309030D01*
G37*
D16*
X99305000Y-46990000D03*
D15*
G36*
X105050671Y-46944030D02*
G01*
X105131777Y-46998223D01*
X105185970Y-47079329D01*
X105205000Y-47174999D01*
X105205000Y-48075001D01*
X105185970Y-48170671D01*
X105131777Y-48251777D01*
X105050671Y-48305970D01*
X104955001Y-48325000D01*
X104304999Y-48325000D01*
X104209329Y-48305970D01*
X104128223Y-48251777D01*
X104074030Y-48170671D01*
X104055000Y-48075001D01*
X104055000Y-47174999D01*
X104074030Y-47079329D01*
X104128223Y-46998223D01*
X104209329Y-46944030D01*
X104304999Y-46925000D01*
X104955001Y-46925000D01*
X105050671Y-46944030D01*
X105050671Y-46944030D01*
G37*
D16*
X104630000Y-47625000D03*
D15*
G36*
X107100671Y-46944030D02*
G01*
X107181777Y-46998223D01*
X107235970Y-47079329D01*
X107255000Y-47174999D01*
X107255000Y-48075001D01*
X107235970Y-48170671D01*
X107181777Y-48251777D01*
X107100671Y-48305970D01*
X107005001Y-48325000D01*
X106354999Y-48325000D01*
X106259329Y-48305970D01*
X106178223Y-48251777D01*
X106124030Y-48170671D01*
X106105000Y-48075001D01*
X106105000Y-47174999D01*
X106124030Y-47079329D01*
X106178223Y-46998223D01*
X106259329Y-46944030D01*
X106354999Y-46925000D01*
X107005001Y-46925000D01*
X107100671Y-46944030D01*
X107100671Y-46944030D01*
G37*
D16*
X106680000Y-47625000D03*
D17*
X120650000Y-48895000D03*
D15*
G36*
X123552954Y-48164982D02*
G01*
X123638116Y-48221884D01*
X123695018Y-48307046D01*
X123715000Y-48407500D01*
X123715000Y-49382500D01*
X123695018Y-49482954D01*
X123638116Y-49568116D01*
X123552954Y-49625018D01*
X123452500Y-49645000D01*
X122927500Y-49645000D01*
X122827046Y-49625018D01*
X122741884Y-49568116D01*
X122684982Y-49482954D01*
X122665000Y-49382500D01*
X122665000Y-48407500D01*
X122684982Y-48307046D01*
X122741884Y-48221884D01*
X122827046Y-48164982D01*
X122927500Y-48145000D01*
X123452500Y-48145000D01*
X123552954Y-48164982D01*
X123552954Y-48164982D01*
G37*
D18*
X123190000Y-48895000D03*
D15*
G36*
X122282954Y-48164982D02*
G01*
X122368116Y-48221884D01*
X122425018Y-48307046D01*
X122445000Y-48407500D01*
X122445000Y-49382500D01*
X122425018Y-49482954D01*
X122368116Y-49568116D01*
X122282954Y-49625018D01*
X122182500Y-49645000D01*
X121657500Y-49645000D01*
X121557046Y-49625018D01*
X121471884Y-49568116D01*
X121414982Y-49482954D01*
X121395000Y-49382500D01*
X121395000Y-48407500D01*
X121414982Y-48307046D01*
X121471884Y-48221884D01*
X121557046Y-48164982D01*
X121657500Y-48145000D01*
X122182500Y-48145000D01*
X122282954Y-48164982D01*
X122282954Y-48164982D01*
G37*
D18*
X121920000Y-48895000D03*
D17*
X92710000Y-50800000D03*
D15*
G36*
X95612954Y-50069982D02*
G01*
X95698116Y-50126884D01*
X95755018Y-50212046D01*
X95775000Y-50312500D01*
X95775000Y-51287500D01*
X95755018Y-51387954D01*
X95698116Y-51473116D01*
X95612954Y-51530018D01*
X95512500Y-51550000D01*
X94987500Y-51550000D01*
X94887046Y-51530018D01*
X94801884Y-51473116D01*
X94744982Y-51387954D01*
X94725000Y-51287500D01*
X94725000Y-50312500D01*
X94744982Y-50212046D01*
X94801884Y-50126884D01*
X94887046Y-50069982D01*
X94987500Y-50050000D01*
X95512500Y-50050000D01*
X95612954Y-50069982D01*
X95612954Y-50069982D01*
G37*
D18*
X95250000Y-50800000D03*
D15*
G36*
X94342954Y-50069982D02*
G01*
X94428116Y-50126884D01*
X94485018Y-50212046D01*
X94505000Y-50312500D01*
X94505000Y-51287500D01*
X94485018Y-51387954D01*
X94428116Y-51473116D01*
X94342954Y-51530018D01*
X94242500Y-51550000D01*
X93717500Y-51550000D01*
X93617046Y-51530018D01*
X93531884Y-51473116D01*
X93474982Y-51387954D01*
X93455000Y-51287500D01*
X93455000Y-50312500D01*
X93474982Y-50212046D01*
X93531884Y-50126884D01*
X93617046Y-50069982D01*
X93717500Y-50050000D01*
X94242500Y-50050000D01*
X94342954Y-50069982D01*
X94342954Y-50069982D01*
G37*
D18*
X93980000Y-50800000D03*
D17*
X104775000Y-43815000D03*
D15*
G36*
X107677954Y-43084982D02*
G01*
X107763116Y-43141884D01*
X107820018Y-43227046D01*
X107840000Y-43327500D01*
X107840000Y-44302500D01*
X107820018Y-44402954D01*
X107763116Y-44488116D01*
X107677954Y-44545018D01*
X107577500Y-44565000D01*
X107052500Y-44565000D01*
X106952046Y-44545018D01*
X106866884Y-44488116D01*
X106809982Y-44402954D01*
X106790000Y-44302500D01*
X106790000Y-43327500D01*
X106809982Y-43227046D01*
X106866884Y-43141884D01*
X106952046Y-43084982D01*
X107052500Y-43065000D01*
X107577500Y-43065000D01*
X107677954Y-43084982D01*
X107677954Y-43084982D01*
G37*
D18*
X107315000Y-43815000D03*
D15*
G36*
X106407954Y-43084982D02*
G01*
X106493116Y-43141884D01*
X106550018Y-43227046D01*
X106570000Y-43327500D01*
X106570000Y-44302500D01*
X106550018Y-44402954D01*
X106493116Y-44488116D01*
X106407954Y-44545018D01*
X106307500Y-44565000D01*
X105782500Y-44565000D01*
X105682046Y-44545018D01*
X105596884Y-44488116D01*
X105539982Y-44402954D01*
X105520000Y-44302500D01*
X105520000Y-43327500D01*
X105539982Y-43227046D01*
X105596884Y-43141884D01*
X105682046Y-43084982D01*
X105782500Y-43065000D01*
X106307500Y-43065000D01*
X106407954Y-43084982D01*
X106407954Y-43084982D01*
G37*
D18*
X106045000Y-43815000D03*
D10*
X71120000Y-67310000D03*
X71120000Y-64770000D03*
D11*
X71120000Y-62230000D03*
D19*
X122555000Y-76835000D03*
X117475000Y-76835000D03*
X112395000Y-76835000D03*
X107315000Y-76835000D03*
X102235000Y-76835000D03*
X97155000Y-76835000D03*
X92075000Y-76835000D03*
X86995000Y-76835000D03*
X81915000Y-76835000D03*
D15*
G36*
X77720671Y-75054030D02*
G01*
X77801777Y-75108223D01*
X77855970Y-75189329D01*
X77875000Y-75284999D01*
X77875000Y-78385001D01*
X77855970Y-78480671D01*
X77801777Y-78561777D01*
X77720671Y-78615970D01*
X77625001Y-78635000D01*
X76044999Y-78635000D01*
X75949329Y-78615970D01*
X75868223Y-78561777D01*
X75814030Y-78480671D01*
X75795000Y-78385001D01*
X75795000Y-75284999D01*
X75814030Y-75189329D01*
X75868223Y-75108223D01*
X75949329Y-75054030D01*
X76044999Y-75035000D01*
X77625001Y-75035000D01*
X77720671Y-75054030D01*
X77720671Y-75054030D01*
G37*
D20*
X76835000Y-76835000D03*
D21*
X117475000Y-46990000D03*
X109855000Y-54610000D03*
X117475000Y-49530000D03*
X109855000Y-52070000D03*
X117475000Y-52070000D03*
X109855000Y-49530000D03*
X117475000Y-54610000D03*
D22*
X109855000Y-46990000D03*
D23*
X87035000Y-68580000D03*
X92035000Y-68580000D03*
X102195000Y-54610000D03*
X97195000Y-54610000D03*
D15*
G36*
X99835671Y-42509030D02*
G01*
X99916777Y-42563223D01*
X99970970Y-42644329D01*
X99990000Y-42740000D01*
X99990000Y-44890000D01*
X99970970Y-44985671D01*
X99916777Y-45066777D01*
X99835671Y-45120970D01*
X99740000Y-45140000D01*
X98815000Y-45140000D01*
X98719329Y-45120970D01*
X98638223Y-45066777D01*
X98584030Y-44985671D01*
X98565000Y-44890000D01*
X98565000Y-42740000D01*
X98584030Y-42644329D01*
X98638223Y-42563223D01*
X98719329Y-42509030D01*
X98815000Y-42490000D01*
X99740000Y-42490000D01*
X99835671Y-42509030D01*
X99835671Y-42509030D01*
G37*
D24*
X99277500Y-43815000D03*
D15*
G36*
X96860671Y-42509030D02*
G01*
X96941777Y-42563223D01*
X96995970Y-42644329D01*
X97015000Y-42740000D01*
X97015000Y-44890000D01*
X96995970Y-44985671D01*
X96941777Y-45066777D01*
X96860671Y-45120970D01*
X96765000Y-45140000D01*
X95840000Y-45140000D01*
X95744329Y-45120970D01*
X95663223Y-45066777D01*
X95609030Y-44985671D01*
X95590000Y-44890000D01*
X95590000Y-42740000D01*
X95609030Y-42644329D01*
X95663223Y-42563223D01*
X95744329Y-42509030D01*
X95840000Y-42490000D01*
X96765000Y-42490000D01*
X96860671Y-42509030D01*
X96860671Y-42509030D01*
G37*
D24*
X96302500Y-43815000D03*
D15*
G36*
X84595671Y-42509030D02*
G01*
X84676777Y-42563223D01*
X84730970Y-42644329D01*
X84750000Y-42740000D01*
X84750000Y-44890000D01*
X84730970Y-44985671D01*
X84676777Y-45066777D01*
X84595671Y-45120970D01*
X84500000Y-45140000D01*
X83575000Y-45140000D01*
X83479329Y-45120970D01*
X83398223Y-45066777D01*
X83344030Y-44985671D01*
X83325000Y-44890000D01*
X83325000Y-42740000D01*
X83344030Y-42644329D01*
X83398223Y-42563223D01*
X83479329Y-42509030D01*
X83575000Y-42490000D01*
X84500000Y-42490000D01*
X84595671Y-42509030D01*
X84595671Y-42509030D01*
G37*
D24*
X84037500Y-43815000D03*
D15*
G36*
X81620671Y-42509030D02*
G01*
X81701777Y-42563223D01*
X81755970Y-42644329D01*
X81775000Y-42740000D01*
X81775000Y-44890000D01*
X81755970Y-44985671D01*
X81701777Y-45066777D01*
X81620671Y-45120970D01*
X81525000Y-45140000D01*
X80600000Y-45140000D01*
X80504329Y-45120970D01*
X80423223Y-45066777D01*
X80369030Y-44985671D01*
X80350000Y-44890000D01*
X80350000Y-42740000D01*
X80369030Y-42644329D01*
X80423223Y-42563223D01*
X80504329Y-42509030D01*
X80600000Y-42490000D01*
X81525000Y-42490000D01*
X81620671Y-42509030D01*
X81620671Y-42509030D01*
G37*
D24*
X81062500Y-43815000D03*
D25*
X75565000Y-67905000D03*
X75565000Y-62905000D03*
D23*
X92035000Y-54610000D03*
X87035000Y-54610000D03*
D25*
X86995000Y-64095000D03*
X86995000Y-59095000D03*
X92075000Y-64095000D03*
X92075000Y-59095000D03*
D15*
G36*
X86925671Y-48849030D02*
G01*
X87006777Y-48903223D01*
X87060970Y-48984329D01*
X87080000Y-49079999D01*
X87080000Y-49980001D01*
X87060970Y-50075671D01*
X87006777Y-50156777D01*
X86925671Y-50210970D01*
X86830001Y-50230000D01*
X86179999Y-50230000D01*
X86084329Y-50210970D01*
X86003223Y-50156777D01*
X85949030Y-50075671D01*
X85930000Y-49980001D01*
X85930000Y-49079999D01*
X85949030Y-48984329D01*
X86003223Y-48903223D01*
X86084329Y-48849030D01*
X86179999Y-48830000D01*
X86830001Y-48830000D01*
X86925671Y-48849030D01*
X86925671Y-48849030D01*
G37*
D16*
X86505000Y-49530000D03*
D15*
G36*
X84875671Y-48849030D02*
G01*
X84956777Y-48903223D01*
X85010970Y-48984329D01*
X85030000Y-49079999D01*
X85030000Y-49980001D01*
X85010970Y-50075671D01*
X84956777Y-50156777D01*
X84875671Y-50210970D01*
X84780001Y-50230000D01*
X84129999Y-50230000D01*
X84034329Y-50210970D01*
X83953223Y-50156777D01*
X83899030Y-50075671D01*
X83880000Y-49980001D01*
X83880000Y-49079999D01*
X83899030Y-48984329D01*
X83953223Y-48903223D01*
X84034329Y-48849030D01*
X84129999Y-48830000D01*
X84780001Y-48830000D01*
X84875671Y-48849030D01*
X84875671Y-48849030D01*
G37*
D16*
X84455000Y-49530000D03*
D15*
G36*
X86925671Y-50754030D02*
G01*
X87006777Y-50808223D01*
X87060970Y-50889329D01*
X87080000Y-50984999D01*
X87080000Y-51885001D01*
X87060970Y-51980671D01*
X87006777Y-52061777D01*
X86925671Y-52115970D01*
X86830001Y-52135000D01*
X86179999Y-52135000D01*
X86084329Y-52115970D01*
X86003223Y-52061777D01*
X85949030Y-51980671D01*
X85930000Y-51885001D01*
X85930000Y-50984999D01*
X85949030Y-50889329D01*
X86003223Y-50808223D01*
X86084329Y-50754030D01*
X86179999Y-50735000D01*
X86830001Y-50735000D01*
X86925671Y-50754030D01*
X86925671Y-50754030D01*
G37*
D16*
X86505000Y-51435000D03*
D15*
G36*
X84875671Y-50754030D02*
G01*
X84956777Y-50808223D01*
X85010970Y-50889329D01*
X85030000Y-50984999D01*
X85030000Y-51885001D01*
X85010970Y-51980671D01*
X84956777Y-52061777D01*
X84875671Y-52115970D01*
X84780001Y-52135000D01*
X84129999Y-52135000D01*
X84034329Y-52115970D01*
X83953223Y-52061777D01*
X83899030Y-51980671D01*
X83880000Y-51885001D01*
X83880000Y-50984999D01*
X83899030Y-50889329D01*
X83953223Y-50808223D01*
X84034329Y-50754030D01*
X84129999Y-50735000D01*
X84780001Y-50735000D01*
X84875671Y-50754030D01*
X84875671Y-50754030D01*
G37*
D16*
X84455000Y-51435000D03*
D26*
X78700000Y-53975000D03*
D27*
X76200000Y-53975000D03*
D15*
G36*
X100505671Y-48214030D02*
G01*
X100586777Y-48268223D01*
X100640970Y-48349329D01*
X100660000Y-48444999D01*
X100660000Y-49345001D01*
X100640970Y-49440671D01*
X100586777Y-49521777D01*
X100505671Y-49575970D01*
X100410001Y-49595000D01*
X99759999Y-49595000D01*
X99664329Y-49575970D01*
X99583223Y-49521777D01*
X99529030Y-49440671D01*
X99510000Y-49345001D01*
X99510000Y-48444999D01*
X99529030Y-48349329D01*
X99583223Y-48268223D01*
X99664329Y-48214030D01*
X99759999Y-48195000D01*
X100410001Y-48195000D01*
X100505671Y-48214030D01*
X100505671Y-48214030D01*
G37*
D16*
X100085000Y-48895000D03*
D15*
G36*
X98455671Y-48214030D02*
G01*
X98536777Y-48268223D01*
X98590970Y-48349329D01*
X98610000Y-48444999D01*
X98610000Y-49345001D01*
X98590970Y-49440671D01*
X98536777Y-49521777D01*
X98455671Y-49575970D01*
X98360001Y-49595000D01*
X97709999Y-49595000D01*
X97614329Y-49575970D01*
X97533223Y-49521777D01*
X97479030Y-49440671D01*
X97460000Y-49345001D01*
X97460000Y-48444999D01*
X97479030Y-48349329D01*
X97533223Y-48268223D01*
X97614329Y-48214030D01*
X97709999Y-48195000D01*
X98360001Y-48195000D01*
X98455671Y-48214030D01*
X98455671Y-48214030D01*
G37*
D16*
X98035000Y-48895000D03*
D28*
X97790000Y-67310000D03*
D29*
X112790000Y-67310000D03*
X117790000Y-67310000D03*
X122790000Y-67310000D03*
X122790000Y-59810000D03*
X117790000Y-59810000D03*
X112790000Y-59810000D03*
X97790000Y-59810000D03*
D30*
X98425000Y-38100000D03*
X79980000Y-40985000D03*
X106045000Y-41910000D03*
X98425000Y-52705000D03*
X119380000Y-53340000D03*
X81915000Y-43180000D03*
X88900000Y-59690000D03*
X86360000Y-39370000D03*
X86995000Y-55880000D03*
X87630000Y-50165000D03*
X76835000Y-49530000D03*
X103505000Y-38735000D03*
X82550000Y-51435000D03*
X78740000Y-62230000D03*
X101600000Y-48895000D03*
X100874854Y-47534854D03*
X107950000Y-40005000D03*
X106045000Y-47625000D03*
D31*
X123280010Y-48985010D02*
X125095000Y-50800000D01*
X125095000Y-50800000D02*
X125095000Y-55245000D01*
X125095000Y-55245000D02*
X123190000Y-57150000D01*
X123190000Y-57150000D02*
X107755000Y-57150000D01*
X107755000Y-57150000D02*
X105215000Y-54610000D01*
X105215000Y-54610000D02*
X102195000Y-54610000D01*
D32*
X93810000Y-36485000D02*
X101770000Y-36485000D01*
X86530000Y-36485000D02*
X93810000Y-36485000D01*
X100360000Y-40985000D02*
X98770000Y-40985000D01*
X98770000Y-40985000D02*
X93810000Y-40985000D01*
D33*
X98425000Y-40640000D02*
X98770000Y-40985000D01*
X98425000Y-38100000D02*
X98425000Y-40640000D01*
D32*
X76835000Y-49530000D02*
X71755000Y-49530000D01*
X71755000Y-49530000D02*
X71120000Y-50165000D01*
D34*
X92035000Y-54610000D02*
X92885000Y-54610000D01*
X94790000Y-52705000D02*
X98425000Y-52705000D01*
X92885000Y-54610000D02*
X94790000Y-52705000D01*
X122700000Y-54610000D02*
X121430000Y-53340000D01*
X121430000Y-53340000D02*
X119380000Y-53340000D01*
X81062500Y-43815000D02*
X81280000Y-43815000D01*
X81280000Y-43815000D02*
X81915000Y-43180000D01*
D31*
X86995000Y-59095000D02*
X88305000Y-59095000D01*
X88305000Y-59095000D02*
X88900000Y-59690000D01*
D32*
X86360000Y-39370000D02*
X86360000Y-40815000D01*
X86360000Y-40815000D02*
X86530000Y-40985000D01*
X86995000Y-55880000D02*
X86995000Y-54650000D01*
X86995000Y-54650000D02*
X87035000Y-54610000D01*
X87630000Y-50165000D02*
X87140000Y-50165000D01*
X87140000Y-50165000D02*
X86505000Y-49530000D01*
X78570000Y-36485000D02*
X78570000Y-37770000D01*
X78570000Y-37770000D02*
X76835000Y-39505000D01*
X76835000Y-39505000D02*
X76835000Y-49530000D01*
X103505000Y-38735000D02*
X103505000Y-39125000D01*
X103505000Y-39125000D02*
X104385000Y-40005000D01*
D31*
X82550000Y-51435000D02*
X84455000Y-51435000D01*
X78740000Y-62230000D02*
X78740000Y-60830000D01*
X78740000Y-60830000D02*
X79000000Y-60570000D01*
D32*
X92075000Y-59095000D02*
X92075000Y-59945000D01*
X92075000Y-59945000D02*
X90540000Y-61480000D01*
X85705000Y-61480000D02*
X84795000Y-60570000D01*
X90540000Y-61480000D02*
X85705000Y-61480000D01*
X84795000Y-60570000D02*
X83560000Y-60570000D01*
X101895000Y-36485000D02*
X101770000Y-36485000D01*
D31*
X83560000Y-60570000D02*
X83560000Y-54985000D01*
X83560000Y-54985000D02*
X80010000Y-51435000D01*
X80010000Y-51435000D02*
X76670000Y-51435000D01*
X76200000Y-51905000D02*
X76200000Y-53975000D01*
X76670000Y-51435000D02*
X76200000Y-51905000D01*
D32*
X109855000Y-54610000D02*
X108020000Y-54610000D01*
X108020000Y-54610000D02*
X106062510Y-52652510D01*
X99887510Y-52652510D02*
X98656120Y-51421120D01*
X98656120Y-51421120D02*
X98035000Y-50800000D01*
X106062510Y-52652510D02*
X99887510Y-52652510D01*
D31*
X92035000Y-68580000D02*
X92885000Y-68580000D01*
X92885000Y-68580000D02*
X93700001Y-69395001D01*
X93700001Y-69395001D02*
X99708001Y-69395001D01*
X102195000Y-66908002D02*
X102195000Y-56780000D01*
X99708001Y-69395001D02*
X102195000Y-66908002D01*
X102195000Y-56780000D02*
X102195000Y-54610000D01*
D35*
X78700000Y-53975000D02*
X81280000Y-56555000D01*
X81280000Y-56555000D02*
X81280000Y-66870000D01*
D32*
X99277500Y-43815000D02*
X97434990Y-45657510D01*
X97434990Y-45657510D02*
X93152490Y-45657510D01*
X93152490Y-45657510D02*
X92441120Y-46368880D01*
X92441120Y-46368880D02*
X91820000Y-46990000D01*
X84455000Y-49530000D02*
X84455000Y-47625000D01*
X84455000Y-47625000D02*
X84455000Y-44232500D01*
X91820000Y-46990000D02*
X85090000Y-46990000D01*
X85090000Y-46990000D02*
X84455000Y-47625000D01*
X84455000Y-44232500D02*
X84037500Y-43815000D01*
D33*
X106680000Y-49530000D02*
X107832410Y-48377590D01*
X107832410Y-48377590D02*
X114817790Y-48377590D01*
X115970200Y-49530000D02*
X117475000Y-49530000D01*
X114817790Y-48377590D02*
X115970200Y-49530000D01*
D32*
X86505000Y-51435000D02*
X86505000Y-49530000D01*
X97790000Y-59810000D02*
X92790000Y-59810000D01*
X92790000Y-59810000D02*
X92075000Y-59095000D01*
X97790000Y-59810000D02*
X97790000Y-55205000D01*
X97790000Y-55205000D02*
X97195000Y-54610000D01*
X109855000Y-49530000D02*
X108585000Y-49530000D01*
X108585000Y-49530000D02*
X106680000Y-51435000D01*
X106680000Y-47625000D02*
X106535000Y-47625000D01*
X106535000Y-47625000D02*
X104630000Y-49530000D01*
X120650000Y-45085000D02*
X120650000Y-48895000D01*
X120650000Y-48895000D02*
X119380000Y-48895000D01*
X119380000Y-48895000D02*
X117475000Y-46990000D01*
X120650000Y-54610000D02*
X117475000Y-54610000D01*
X120650000Y-52070000D02*
X117475000Y-52070000D01*
X121920000Y-48895000D02*
X121920000Y-51290000D01*
X121920000Y-51290000D02*
X122700000Y-52070000D01*
X122700000Y-45085000D02*
X121920000Y-45865000D01*
X121920000Y-45865000D02*
X121920000Y-48895000D01*
X104775000Y-47480000D02*
X104630000Y-47625000D01*
X98035000Y-50800000D02*
X95250000Y-50800000D01*
X100085000Y-50800000D02*
X100085000Y-48895000D01*
X98035000Y-48895000D02*
X98035000Y-47480000D01*
X98035000Y-47480000D02*
X97545000Y-46990000D01*
X99305000Y-46990000D02*
X97545000Y-46990000D01*
X95495000Y-46990000D02*
X93870000Y-46990000D01*
X93870000Y-46990000D02*
X93870000Y-50690000D01*
X93870000Y-50690000D02*
X93980000Y-50800000D01*
X91820000Y-46990000D02*
X91820000Y-49910000D01*
X91820000Y-49910000D02*
X92710000Y-50800000D01*
X84455000Y-51435000D02*
X84455000Y-49530000D01*
X96302500Y-43815000D02*
X94370000Y-43815000D01*
X86605000Y-43815000D02*
X84037500Y-43815000D01*
X86530000Y-40985000D02*
X86530000Y-41690000D01*
X86530000Y-41690000D02*
X88655000Y-43815000D01*
X78570000Y-40985000D02*
X79980000Y-40985000D01*
X79980000Y-40985000D02*
X86530000Y-40985000D01*
X93810000Y-40985000D02*
X93810000Y-42325000D01*
X93810000Y-42325000D02*
X92320000Y-43815000D01*
X101770000Y-40985000D02*
X100360000Y-40985000D01*
X78570000Y-36485000D02*
X79980000Y-36485000D01*
X79980000Y-36485000D02*
X86530000Y-36485000D01*
D35*
X75565000Y-62905000D02*
X75565000Y-54610000D01*
X75565000Y-54610000D02*
X76200000Y-53975000D01*
X76835000Y-76835000D02*
X76835000Y-69175000D01*
X76835000Y-69175000D02*
X75565000Y-67905000D01*
X86995000Y-64095000D02*
X84055000Y-64095000D01*
X84055000Y-64095000D02*
X81280000Y-66870000D01*
X87035000Y-68580000D02*
X82990000Y-68580000D01*
X82990000Y-68580000D02*
X81280000Y-66870000D01*
X81915000Y-76835000D02*
X81915000Y-67505000D01*
X81915000Y-67505000D02*
X81280000Y-66870000D01*
D31*
X92075000Y-76835000D02*
X92075000Y-68620000D01*
X92075000Y-68620000D02*
X92035000Y-68580000D01*
X97790000Y-67310000D02*
X95290000Y-67310000D01*
X95290000Y-67310000D02*
X92075000Y-64095000D01*
D35*
X112790000Y-67310000D02*
X106680000Y-67310000D01*
X106680000Y-67310000D02*
X97155000Y-76835000D01*
X120256001Y-74053999D02*
X117475000Y-76835000D01*
X120256001Y-62276001D02*
X120256001Y-74053999D01*
X117790000Y-59810000D02*
X120256001Y-62276001D01*
X112790000Y-61577766D02*
X115256001Y-64043767D01*
X112790000Y-59810000D02*
X112790000Y-61577766D01*
X115256001Y-64043767D02*
X115256001Y-70141999D01*
X115256001Y-70141999D02*
X112395000Y-73003000D01*
X112395000Y-73003000D02*
X112395000Y-76835000D01*
X122790000Y-59810000D02*
X125256001Y-62276001D01*
X125256001Y-62276001D02*
X125256001Y-70301999D01*
X122555000Y-73003000D02*
X122555000Y-76835000D01*
X125256001Y-70301999D02*
X122555000Y-73003000D01*
D32*
X103537490Y-50342490D02*
X103537490Y-42846008D01*
X104630000Y-51435000D02*
X103537490Y-50342490D01*
X104727510Y-41712488D02*
X103490127Y-41712488D01*
X103490127Y-41712488D02*
X101387615Y-43815000D01*
X103537490Y-42846008D02*
X103835999Y-42547499D01*
X104080000Y-39700000D02*
X104385000Y-40005000D01*
X100090000Y-43815000D02*
X99277500Y-43815000D01*
X105537001Y-42417999D02*
X106045000Y-41910000D01*
X106435000Y-40005000D02*
X104727510Y-41712488D01*
X105407501Y-42547499D02*
X105537001Y-42417999D01*
X103180000Y-39700000D02*
X104080000Y-39700000D01*
X103835999Y-42547499D02*
X105407501Y-42547499D01*
X101387615Y-43815000D02*
X100090000Y-43815000D01*
X101895000Y-40985000D02*
X103180000Y-39700000D01*
X101770000Y-40985000D02*
X101895000Y-40985000D01*
X100085000Y-48895000D02*
X101600000Y-48895000D01*
D34*
X101382853Y-47017853D02*
X101382853Y-47026855D01*
X101355000Y-46990000D02*
X101382853Y-47017853D01*
X101382853Y-47026855D02*
X100874854Y-47534854D01*
D32*
X107950000Y-40005000D02*
X106435000Y-40005000D01*
X106045000Y-47625000D02*
X106680000Y-47625000D01*
X115640000Y-46990000D02*
X113735000Y-45085000D01*
X117475000Y-46990000D02*
X115640000Y-46990000D01*
X113735000Y-45085000D02*
X108585000Y-45085000D01*
X107950000Y-45720000D02*
X104775000Y-45720000D01*
X108585000Y-45085000D02*
X107950000Y-45720000D01*
X104775000Y-45720000D02*
X104775000Y-47480000D01*
X104775000Y-43815000D02*
X104775000Y-45720000D01*
D36*
G36*
X82290000Y-60638927D02*
G01*
X82312313Y-60844321D01*
X82317085Y-60858501D01*
X82317085Y-61670000D01*
X82348551Y-61868672D01*
X82439871Y-62047896D01*
X82582104Y-62190129D01*
X82761328Y-62281449D01*
X82960000Y-62312915D01*
X84160000Y-62312915D01*
X84358672Y-62281449D01*
X84537896Y-62190129D01*
X84680129Y-62047896D01*
X84763073Y-61885111D01*
X84957123Y-62079161D01*
X84963000Y-62088422D01*
X84963000Y-66040000D01*
X84983161Y-66108661D01*
X85033204Y-66153592D01*
X86303204Y-66788592D01*
X86360000Y-66802000D01*
X90043000Y-66802000D01*
X90043000Y-67090628D01*
X89907104Y-67159871D01*
X89764871Y-67302104D01*
X89673551Y-67481328D01*
X89642085Y-67680000D01*
X89642085Y-69480000D01*
X89673551Y-69678672D01*
X89764871Y-69857896D01*
X89907104Y-70000129D01*
X90043000Y-70069372D01*
X90043000Y-74168000D01*
X85090000Y-74168000D01*
X85021339Y-74188161D01*
X84974477Y-74242242D01*
X84963000Y-74295000D01*
X84963000Y-80518000D01*
X78855978Y-80518000D01*
X78515479Y-76772511D01*
X78515479Y-75284999D01*
X78486000Y-75061081D01*
X78486000Y-69314426D01*
X78489054Y-69296465D01*
X78486000Y-69156491D01*
X78486000Y-69096297D01*
X78484297Y-69078451D01*
X78482182Y-68981500D01*
X78469369Y-68921988D01*
X78463587Y-68861384D01*
X78436285Y-68768318D01*
X78415874Y-68673516D01*
X78392041Y-68617505D01*
X78374902Y-68559083D01*
X78330494Y-68472859D01*
X78292525Y-68383627D01*
X78266777Y-68349147D01*
X78230653Y-68279007D01*
X78036046Y-68031260D01*
X77961040Y-67966173D01*
X77690289Y-67695422D01*
X77216000Y-62478244D01*
X77216000Y-60932453D01*
X77466628Y-60932453D01*
X77470000Y-60950130D01*
X77470000Y-62298927D01*
X77492313Y-62504321D01*
X77580325Y-62765844D01*
X77722443Y-63002367D01*
X77912035Y-63202856D01*
X78140256Y-63357955D01*
X78396458Y-63460429D01*
X78668689Y-63505496D01*
X78944245Y-63491055D01*
X79210274Y-63417778D01*
X79454361Y-63289086D01*
X79665121Y-63110981D01*
X79832718Y-62891773D01*
X79949333Y-62641691D01*
X80010000Y-62275231D01*
X80010000Y-62158025D01*
X80120129Y-62047896D01*
X80211449Y-61868672D01*
X80242915Y-61670000D01*
X80242915Y-60834633D01*
X80265668Y-60743375D01*
X80273373Y-60467547D01*
X80242915Y-60307880D01*
X80242915Y-59470000D01*
X80211449Y-59271328D01*
X80120129Y-59092104D01*
X79977896Y-58949871D01*
X79798672Y-58858551D01*
X79600000Y-58827085D01*
X78400000Y-58827085D01*
X78201328Y-58858551D01*
X78022104Y-58949871D01*
X77879871Y-59092104D01*
X77788551Y-59271328D01*
X77757085Y-59470000D01*
X77757085Y-60024612D01*
X77740503Y-60046300D01*
X77663778Y-60141728D01*
X77656808Y-60155769D01*
X77647283Y-60168227D01*
X77595522Y-60279228D01*
X77541087Y-60388886D01*
X77537295Y-60404096D01*
X77530667Y-60418309D01*
X77524573Y-60455121D01*
X77474332Y-60656626D01*
X77470906Y-60779298D01*
X77470000Y-60784769D01*
X77470000Y-60811725D01*
X77466628Y-60932453D01*
X77216000Y-60932453D01*
X77216000Y-56007000D01*
X82290001Y-56007000D01*
X82290000Y-60638927D01*
X82290000Y-60638927D01*
G37*
X82290000Y-60638927D02*
X82312313Y-60844321D01*
X82317085Y-60858501D01*
X82317085Y-61670000D01*
X82348551Y-61868672D01*
X82439871Y-62047896D01*
X82582104Y-62190129D01*
X82761328Y-62281449D01*
X82960000Y-62312915D01*
X84160000Y-62312915D01*
X84358672Y-62281449D01*
X84537896Y-62190129D01*
X84680129Y-62047896D01*
X84763073Y-61885111D01*
X84957123Y-62079161D01*
X84963000Y-62088422D01*
X84963000Y-66040000D01*
X84983161Y-66108661D01*
X85033204Y-66153592D01*
X86303204Y-66788592D01*
X86360000Y-66802000D01*
X90043000Y-66802000D01*
X90043000Y-67090628D01*
X89907104Y-67159871D01*
X89764871Y-67302104D01*
X89673551Y-67481328D01*
X89642085Y-67680000D01*
X89642085Y-69480000D01*
X89673551Y-69678672D01*
X89764871Y-69857896D01*
X89907104Y-70000129D01*
X90043000Y-70069372D01*
X90043000Y-74168000D01*
X85090000Y-74168000D01*
X85021339Y-74188161D01*
X84974477Y-74242242D01*
X84963000Y-74295000D01*
X84963000Y-80518000D01*
X78855978Y-80518000D01*
X78515479Y-76772511D01*
X78515479Y-75284999D01*
X78486000Y-75061081D01*
X78486000Y-69314426D01*
X78489054Y-69296465D01*
X78486000Y-69156491D01*
X78486000Y-69096297D01*
X78484297Y-69078451D01*
X78482182Y-68981500D01*
X78469369Y-68921988D01*
X78463587Y-68861384D01*
X78436285Y-68768318D01*
X78415874Y-68673516D01*
X78392041Y-68617505D01*
X78374902Y-68559083D01*
X78330494Y-68472859D01*
X78292525Y-68383627D01*
X78266777Y-68349147D01*
X78230653Y-68279007D01*
X78036046Y-68031260D01*
X77961040Y-67966173D01*
X77690289Y-67695422D01*
X77216000Y-62478244D01*
X77216000Y-60932453D01*
X77466628Y-60932453D01*
X77470000Y-60950130D01*
X77470000Y-62298927D01*
X77492313Y-62504321D01*
X77580325Y-62765844D01*
X77722443Y-63002367D01*
X77912035Y-63202856D01*
X78140256Y-63357955D01*
X78396458Y-63460429D01*
X78668689Y-63505496D01*
X78944245Y-63491055D01*
X79210274Y-63417778D01*
X79454361Y-63289086D01*
X79665121Y-63110981D01*
X79832718Y-62891773D01*
X79949333Y-62641691D01*
X80010000Y-62275231D01*
X80010000Y-62158025D01*
X80120129Y-62047896D01*
X80211449Y-61868672D01*
X80242915Y-61670000D01*
X80242915Y-60834633D01*
X80265668Y-60743375D01*
X80273373Y-60467547D01*
X80242915Y-60307880D01*
X80242915Y-59470000D01*
X80211449Y-59271328D01*
X80120129Y-59092104D01*
X79977896Y-58949871D01*
X79798672Y-58858551D01*
X79600000Y-58827085D01*
X78400000Y-58827085D01*
X78201328Y-58858551D01*
X78022104Y-58949871D01*
X77879871Y-59092104D01*
X77788551Y-59271328D01*
X77757085Y-59470000D01*
X77757085Y-60024612D01*
X77740503Y-60046300D01*
X77663778Y-60141728D01*
X77656808Y-60155769D01*
X77647283Y-60168227D01*
X77595522Y-60279228D01*
X77541087Y-60388886D01*
X77537295Y-60404096D01*
X77530667Y-60418309D01*
X77524573Y-60455121D01*
X77474332Y-60656626D01*
X77470906Y-60779298D01*
X77470000Y-60784769D01*
X77470000Y-60811725D01*
X77466628Y-60932453D01*
X77216000Y-60932453D01*
X77216000Y-56007000D01*
X82290001Y-56007000D01*
X82290000Y-60638927D01*
M02*
