M48
; DRILL file {KiCad (5.1.0-894-gde406e36d)} date Saturday, August 24, 2019 at 10:53:14 AM
; FORMAT={-:-/ absolute / metric / decimal}
; #@! TF.CreationDate,2019-08-24T10:53:14-07:00
; #@! TF.GenerationSoftware,Kicad,Pcbnew,(5.1.0-894-gde406e36d)
; #@! TF.FileFunction,Plated,1,2,PTH
FMAT,2
METRIC
T1C0.559
T2C0.750
T3C0.800
T4C1.000
T5C1.400
T6C1.500
%
G90
G05
T1
X76.835Y-49.53
X78.74Y-62.23
X79.98Y-40.985
X81.915Y-43.18
X82.55Y-51.435
X86.36Y-39.37
X86.995Y-55.88
X87.63Y-50.165
X88.9Y-59.69
X98.425Y-38.1
X98.425Y-52.705
X100.875Y-47.535
X101.6Y-48.895
X103.505Y-38.735
X106.045Y-41.91
X106.045Y-47.625
X107.95Y-40.005
X119.38Y-53.34
T2
X120.65Y-48.895
X121.92Y-48.895
X123.19Y-48.895
X92.71Y-50.8
X93.98Y-50.8
X95.25Y-50.8
X104.775Y-43.815
X106.045Y-43.815
X107.315Y-43.815
T3
X109.855Y-46.99
X109.855Y-49.53
X109.855Y-52.07
X109.855Y-54.61
X117.475Y-46.99
X117.475Y-49.53
X117.475Y-52.07
X117.475Y-54.61
X76.2Y-53.975
X78.7Y-53.975
T4
X71.12Y-62.23
X71.12Y-64.77
X71.12Y-67.31
X71.12Y-45.085
X71.12Y-47.625
X71.12Y-50.165
T5
X76.835Y-76.835
X81.915Y-76.835
X86.995Y-76.835
X92.075Y-76.835
X97.155Y-76.835
X102.235Y-76.835
X107.315Y-76.835
X112.395Y-76.835
X117.475Y-76.835
X122.555Y-76.835
T6
X97.79Y-59.81
X97.79Y-67.31
X112.79Y-59.81
X112.79Y-67.31
X117.79Y-59.81
X117.79Y-67.31
X122.79Y-59.81
X122.79Y-67.31
T0
M30
