G04 #@! TF.FileFunction,Copper,L2,Bot,Signal*
%FSLAX46Y46*%
G04 Gerber Fmt 4.6, Leading zero omitted, Abs format (unit mm)*
G04 Created by KiCad (PCBNEW (2015-10-14 BZR 6269)-product) date Thursday, October 15, 2015 'PMt' 05:26:15 PM*
%MOMM*%
G01*
G04 APERTURE LIST*
%ADD10C,0.100000*%
%ADD11C,2.500000*%
%ADD12O,5.080000X3.175000*%
%ADD13C,1.501140*%
%ADD14O,1.600000X1.600000*%
%ADD15R,1.727200X2.032000*%
%ADD16O,1.727200X2.032000*%
%ADD17O,0.899160X1.501140*%
%ADD18O,2.032000X2.540000*%
%ADD19C,1.016000*%
%ADD20C,1.270000*%
%ADD21C,0.635000*%
%ADD22C,0.304800*%
%ADD23C,2.540000*%
G04 APERTURE END LIST*
D10*
D11*
X107950000Y-85725000D03*
X113030000Y-85725000D03*
X118110000Y-85725000D03*
X125730000Y-85725000D03*
X125730000Y-78105000D03*
X118110000Y-78105000D03*
X113030000Y-78105000D03*
X107950000Y-78105000D03*
X107950000Y-100965000D03*
X113030000Y-100965000D03*
X118110000Y-100965000D03*
X125730000Y-100965000D03*
X125730000Y-93345000D03*
X118110000Y-93345000D03*
X113030000Y-93345000D03*
X107950000Y-93345000D03*
D12*
X100965000Y-51435000D03*
X100965000Y-55245000D03*
X100965000Y-59055000D03*
X100965000Y-62865000D03*
X100965000Y-66675000D03*
X100965000Y-70485000D03*
X100965000Y-74295000D03*
X100965000Y-78105000D03*
X100965000Y-81915000D03*
X100965000Y-85725000D03*
X100965000Y-89535000D03*
X100965000Y-93345000D03*
X100965000Y-97155000D03*
X100965000Y-100965000D03*
X100965000Y-104775000D03*
D13*
X111760000Y-58420000D03*
X111760000Y-55880000D03*
D14*
X123825000Y-74295000D03*
X126365000Y-74295000D03*
X128905000Y-74295000D03*
X131445000Y-74295000D03*
X131445000Y-66675000D03*
X128905000Y-66675000D03*
X126365000Y-66675000D03*
X123825000Y-66675000D03*
D15*
X133985000Y-52705000D03*
D16*
X136525000Y-52705000D03*
X139065000Y-52705000D03*
D17*
X132937555Y-85682351D03*
X134207555Y-85682351D03*
X131667555Y-85682351D03*
X138430000Y-60325000D03*
X139700000Y-60325000D03*
X137160000Y-60325000D03*
X116840000Y-67310000D03*
X118110000Y-67310000D03*
X115570000Y-67310000D03*
D18*
X121285000Y-53340000D03*
X123825000Y-53340000D03*
X118745000Y-53340000D03*
D19*
X137795000Y-93980000D03*
X114935000Y-61595000D03*
X125730000Y-64135000D03*
X138401998Y-64135000D03*
X138430000Y-73660000D03*
X138430000Y-79375000D03*
X135255000Y-63500000D03*
X132715000Y-64135000D03*
D20*
X143510000Y-59436000D02*
X143510000Y-88265000D01*
X143510000Y-88265000D02*
X137795000Y-93980000D01*
X139065000Y-52705000D02*
X139065000Y-54991000D01*
X139065000Y-54991000D02*
X143510000Y-59436000D01*
D21*
X139065000Y-52552600D02*
X139065000Y-52705000D01*
X121285000Y-53340000D02*
X121285000Y-53086000D01*
X115570000Y-67310000D02*
X115570000Y-65924430D01*
X115570000Y-65924430D02*
X117359430Y-64135000D01*
X117359430Y-64135000D02*
X121285000Y-64135000D01*
X121285000Y-53340000D02*
X121285000Y-64135000D01*
X121285000Y-64135000D02*
X123825000Y-66675000D01*
X131667555Y-85682351D02*
X131667555Y-87067921D01*
X131667555Y-87067921D02*
X137795000Y-93195366D01*
X137795000Y-93195366D02*
X137795000Y-93980000D01*
X114427001Y-70612001D02*
X125730000Y-81915000D01*
X125730000Y-81915000D02*
X125730000Y-85725000D01*
X114935000Y-61595000D02*
X114427001Y-62102999D01*
X114427001Y-62102999D02*
X114427001Y-70612001D01*
X114935000Y-61595000D02*
X114935000Y-59055000D01*
X114935000Y-59055000D02*
X111760000Y-55880000D01*
D22*
X125730000Y-64135000D02*
X125730000Y-53924200D01*
X125145800Y-53340000D02*
X123825000Y-53340000D01*
X125730000Y-53924200D02*
X125145800Y-53340000D01*
X137160000Y-60325000D02*
X137160000Y-53340000D01*
X137160000Y-53340000D02*
X136525000Y-52705000D01*
D21*
X136525000Y-52705000D02*
X136525000Y-52552600D01*
D22*
X137160000Y-72390000D02*
X137160000Y-64057872D01*
X137237128Y-64135000D02*
X137160000Y-64057872D01*
X137160000Y-64057872D02*
X137160000Y-60325000D01*
X138401998Y-64135000D02*
X137237128Y-64135000D01*
X138430000Y-73660000D02*
X137160000Y-72390000D01*
X138430000Y-79375000D02*
X138430000Y-73660000D01*
D23*
X106045000Y-52705000D02*
X104775000Y-51435000D01*
X106045000Y-56515000D02*
X106045000Y-52705000D01*
X112639490Y-63109490D02*
X106045000Y-56515000D01*
X112639490Y-72634490D02*
X112639490Y-63109490D01*
X118110000Y-78105000D02*
X112639490Y-72634490D01*
X104775000Y-51435000D02*
X100965000Y-51435000D01*
D22*
X131445000Y-74295000D02*
X135255000Y-70485000D01*
X135255000Y-70485000D02*
X135255000Y-63500000D01*
D23*
X100965000Y-74295000D02*
X102431472Y-74295000D01*
X102431472Y-74295000D02*
X104975010Y-76838538D01*
X104975010Y-76838538D02*
X104975010Y-79155612D01*
X110309999Y-83004999D02*
X111780001Y-84475001D01*
X104975010Y-79155612D02*
X108824397Y-83004999D01*
X108824397Y-83004999D02*
X110309999Y-83004999D01*
X111780001Y-84475001D02*
X113030000Y-85725000D01*
X107950000Y-78105000D02*
X107950000Y-68580000D01*
X107950000Y-68580000D02*
X106045000Y-66675000D01*
X106045000Y-66675000D02*
X100965000Y-66675000D01*
X106045000Y-97790000D02*
X102870000Y-100965000D01*
X102870000Y-100965000D02*
X100965000Y-100965000D01*
X116702766Y-97790000D02*
X106045000Y-97790000D01*
X118110000Y-100965000D02*
X118110000Y-99197234D01*
X118110000Y-99197234D02*
X116702766Y-97790000D01*
X110352766Y-88900000D02*
X105606472Y-88900000D01*
X105606472Y-88900000D02*
X102431472Y-85725000D01*
X102431472Y-85725000D02*
X100965000Y-85725000D01*
X113030000Y-93345000D02*
X113030000Y-91577234D01*
X113030000Y-91577234D02*
X110352766Y-88900000D01*
X107950000Y-93345000D02*
X100965000Y-93345000D01*
D22*
X132715000Y-64135000D02*
X132715000Y-63025000D01*
X132715000Y-63025000D02*
X133985000Y-61755000D01*
X133985000Y-52705000D02*
X133985000Y-61755000D01*
M02*
