G04 #@! TF.FileFunction,Legend,Bot*
%FSLAX46Y46*%
G04 Gerber Fmt 4.6, Leading zero omitted, Abs format (unit mm)*
G04 Created by KiCad (PCBNEW (2015-10-14 BZR 6269)-product) date Thursday, October 15, 2015 'PMt' 05:26:15 PM*
%MOMM*%
G01*
G04 APERTURE LIST*
%ADD10C,0.100000*%
%ADD11C,0.300000*%
G04 APERTURE END LIST*
D10*
D11*
X106659999Y-103953571D02*
X105731428Y-103953571D01*
X106231428Y-104525000D01*
X106017142Y-104525000D01*
X105874285Y-104596429D01*
X105802856Y-104667857D01*
X105731428Y-104810714D01*
X105731428Y-105167857D01*
X105802856Y-105310714D01*
X105874285Y-105382143D01*
X106017142Y-105453571D01*
X106445714Y-105453571D01*
X106588571Y-105382143D01*
X106659999Y-105310714D01*
X104231428Y-105453571D02*
X104731428Y-104739286D01*
X105088571Y-105453571D02*
X105088571Y-103953571D01*
X104517143Y-103953571D01*
X104374285Y-104025000D01*
X104302857Y-104096429D01*
X104231428Y-104239286D01*
X104231428Y-104453571D01*
X104302857Y-104596429D01*
X104374285Y-104667857D01*
X104517143Y-104739286D01*
X105088571Y-104739286D01*
X106278999Y-100143571D02*
X105350428Y-100143571D01*
X105850428Y-100715000D01*
X105636142Y-100715000D01*
X105493285Y-100786429D01*
X105421856Y-100857857D01*
X105350428Y-101000714D01*
X105350428Y-101357857D01*
X105421856Y-101500714D01*
X105493285Y-101572143D01*
X105636142Y-101643571D01*
X106064714Y-101643571D01*
X106207571Y-101572143D01*
X106278999Y-101500714D01*
X103850428Y-101500714D02*
X103921857Y-101572143D01*
X104136143Y-101643571D01*
X104279000Y-101643571D01*
X104493285Y-101572143D01*
X104636143Y-101429286D01*
X104707571Y-101286429D01*
X104779000Y-101000714D01*
X104779000Y-100786429D01*
X104707571Y-100500714D01*
X104636143Y-100357857D01*
X104493285Y-100215000D01*
X104279000Y-100143571D01*
X104136143Y-100143571D01*
X103921857Y-100215000D01*
X103850428Y-100286429D01*
X106695714Y-96333571D02*
X105767143Y-96333571D01*
X106267143Y-96905000D01*
X106052857Y-96905000D01*
X105910000Y-96976429D01*
X105838571Y-97047857D01*
X105767143Y-97190714D01*
X105767143Y-97547857D01*
X105838571Y-97690714D01*
X105910000Y-97762143D01*
X106052857Y-97833571D01*
X106481429Y-97833571D01*
X106624286Y-97762143D01*
X106695714Y-97690714D01*
X105124286Y-97833571D02*
X105124286Y-96333571D01*
X104267143Y-97833571D01*
X104267143Y-96333571D01*
X106334571Y-92666429D02*
X106263142Y-92595000D01*
X106120285Y-92523571D01*
X105763142Y-92523571D01*
X105620285Y-92595000D01*
X105548856Y-92666429D01*
X105477428Y-92809286D01*
X105477428Y-92952143D01*
X105548856Y-93166429D01*
X106405999Y-94023571D01*
X105477428Y-94023571D01*
X103977428Y-94023571D02*
X104477428Y-93309286D01*
X104834571Y-94023571D02*
X104834571Y-92523571D01*
X104263143Y-92523571D01*
X104120285Y-92595000D01*
X104048857Y-92666429D01*
X103977428Y-92809286D01*
X103977428Y-93023571D01*
X104048857Y-93166429D01*
X104120285Y-93237857D01*
X104263143Y-93309286D01*
X104834571Y-93309286D01*
X106461571Y-88856429D02*
X106390142Y-88785000D01*
X106247285Y-88713571D01*
X105890142Y-88713571D01*
X105747285Y-88785000D01*
X105675856Y-88856429D01*
X105604428Y-88999286D01*
X105604428Y-89142143D01*
X105675856Y-89356429D01*
X106532999Y-90213571D01*
X105604428Y-90213571D01*
X104104428Y-90070714D02*
X104175857Y-90142143D01*
X104390143Y-90213571D01*
X104533000Y-90213571D01*
X104747285Y-90142143D01*
X104890143Y-89999286D01*
X104961571Y-89856429D01*
X105033000Y-89570714D01*
X105033000Y-89356429D01*
X104961571Y-89070714D01*
X104890143Y-88927857D01*
X104747285Y-88785000D01*
X104533000Y-88713571D01*
X104390143Y-88713571D01*
X104175857Y-88785000D01*
X104104428Y-88856429D01*
X106370286Y-85046429D02*
X106298857Y-84975000D01*
X106156000Y-84903571D01*
X105798857Y-84903571D01*
X105656000Y-84975000D01*
X105584571Y-85046429D01*
X105513143Y-85189286D01*
X105513143Y-85332143D01*
X105584571Y-85546429D01*
X106441714Y-86403571D01*
X105513143Y-86403571D01*
X104870286Y-86403571D02*
X104870286Y-84903571D01*
X104013143Y-86403571D01*
X104013143Y-84903571D01*
X105731428Y-82593571D02*
X106588571Y-82593571D01*
X106159999Y-82593571D02*
X106159999Y-81093571D01*
X106302856Y-81307857D01*
X106445714Y-81450714D01*
X106588571Y-81522143D01*
X104231428Y-82593571D02*
X104731428Y-81879286D01*
X105088571Y-82593571D02*
X105088571Y-81093571D01*
X104517143Y-81093571D01*
X104374285Y-81165000D01*
X104302857Y-81236429D01*
X104231428Y-81379286D01*
X104231428Y-81593571D01*
X104302857Y-81736429D01*
X104374285Y-81807857D01*
X104517143Y-81879286D01*
X105088571Y-81879286D01*
X105477428Y-78783571D02*
X106334571Y-78783571D01*
X105905999Y-78783571D02*
X105905999Y-77283571D01*
X106048856Y-77497857D01*
X106191714Y-77640714D01*
X106334571Y-77712143D01*
X103977428Y-78640714D02*
X104048857Y-78712143D01*
X104263143Y-78783571D01*
X104406000Y-78783571D01*
X104620285Y-78712143D01*
X104763143Y-78569286D01*
X104834571Y-78426429D01*
X104906000Y-78140714D01*
X104906000Y-77926429D01*
X104834571Y-77640714D01*
X104763143Y-77497857D01*
X104620285Y-77355000D01*
X104406000Y-77283571D01*
X104263143Y-77283571D01*
X104048857Y-77355000D01*
X103977428Y-77426429D01*
X105640143Y-74973571D02*
X106497286Y-74973571D01*
X106068714Y-74973571D02*
X106068714Y-73473571D01*
X106211571Y-73687857D01*
X106354429Y-73830714D01*
X106497286Y-73902143D01*
X104997286Y-74973571D02*
X104997286Y-73473571D01*
X104140143Y-74973571D01*
X104140143Y-73473571D01*
X115478000Y-65909000D02*
X114763714Y-65909000D01*
X115620857Y-66337571D02*
X115120857Y-64837571D01*
X114620857Y-66337571D01*
X114120857Y-64837571D02*
X114120857Y-66051857D01*
X114049429Y-66194714D01*
X113978000Y-66266143D01*
X113835143Y-66337571D01*
X113549429Y-66337571D01*
X113406571Y-66266143D01*
X113335143Y-66194714D01*
X113263714Y-66051857D01*
X113263714Y-64837571D01*
X112692285Y-64837571D02*
X111692285Y-66337571D01*
X111692285Y-64837571D02*
X112692285Y-66337571D01*
X111192286Y-64980429D02*
X111120857Y-64909000D01*
X110978000Y-64837571D01*
X110620857Y-64837571D01*
X110478000Y-64909000D01*
X110406571Y-64980429D01*
X110335143Y-65123286D01*
X110335143Y-65266143D01*
X110406571Y-65480429D01*
X111263714Y-66337571D01*
X110335143Y-66337571D01*
X109049429Y-65337571D02*
X109049429Y-66337571D01*
X109406572Y-64766143D02*
X109763715Y-65837571D01*
X108835143Y-65837571D01*
X106835144Y-64837571D02*
X106549430Y-64837571D01*
X106406572Y-64909000D01*
X106263715Y-65051857D01*
X106192287Y-65337571D01*
X106192287Y-65837571D01*
X106263715Y-66123286D01*
X106406572Y-66266143D01*
X106549430Y-66337571D01*
X106835144Y-66337571D01*
X106978001Y-66266143D01*
X107120858Y-66123286D01*
X107192287Y-65837571D01*
X107192287Y-65337571D01*
X107120858Y-65051857D01*
X106978001Y-64909000D01*
X106835144Y-64837571D01*
X104906572Y-65337571D02*
X104906572Y-66337571D01*
X105549429Y-65337571D02*
X105549429Y-66123286D01*
X105478001Y-66266143D01*
X105335143Y-66337571D01*
X105120858Y-66337571D01*
X104978001Y-66266143D01*
X104906572Y-66194714D01*
X104406572Y-65337571D02*
X103835143Y-65337571D01*
X104192286Y-64837571D02*
X104192286Y-66123286D01*
X104120858Y-66266143D01*
X103978000Y-66337571D01*
X103835143Y-66337571D01*
X105818714Y-62757857D02*
X106318714Y-62757857D01*
X106318714Y-63543571D02*
X106318714Y-62043571D01*
X105604428Y-62043571D01*
X104533000Y-62757857D02*
X104318714Y-62829286D01*
X104247286Y-62900714D01*
X104175857Y-63043571D01*
X104175857Y-63257857D01*
X104247286Y-63400714D01*
X104318714Y-63472143D01*
X104461572Y-63543571D01*
X105033000Y-63543571D01*
X105033000Y-62043571D01*
X104533000Y-62043571D01*
X104390143Y-62115000D01*
X104318714Y-62186429D01*
X104247286Y-62329286D01*
X104247286Y-62472143D01*
X104318714Y-62615000D01*
X104390143Y-62686429D01*
X104533000Y-62757857D01*
X105033000Y-62757857D01*
X106739428Y-59590714D02*
X106810857Y-59662143D01*
X107025143Y-59733571D01*
X107168000Y-59733571D01*
X107382285Y-59662143D01*
X107525143Y-59519286D01*
X107596571Y-59376429D01*
X107668000Y-59090714D01*
X107668000Y-58876429D01*
X107596571Y-58590714D01*
X107525143Y-58447857D01*
X107382285Y-58305000D01*
X107168000Y-58233571D01*
X107025143Y-58233571D01*
X106810857Y-58305000D01*
X106739428Y-58376429D01*
X106310857Y-58733571D02*
X105739428Y-58733571D01*
X106096571Y-58233571D02*
X106096571Y-59519286D01*
X106025143Y-59662143D01*
X105882285Y-59733571D01*
X105739428Y-59733571D01*
X105239428Y-59733571D02*
X105239428Y-58733571D01*
X105239428Y-59019286D02*
X105168000Y-58876429D01*
X105096571Y-58805000D01*
X104953714Y-58733571D01*
X104810857Y-58733571D01*
X104096571Y-59733571D02*
X104239429Y-59662143D01*
X104310857Y-59519286D01*
X104310857Y-58233571D01*
X107314857Y-54495000D02*
X107457714Y-54423571D01*
X107672000Y-54423571D01*
X107886285Y-54495000D01*
X108029143Y-54637857D01*
X108100571Y-54780714D01*
X108172000Y-55066429D01*
X108172000Y-55280714D01*
X108100571Y-55566429D01*
X108029143Y-55709286D01*
X107886285Y-55852143D01*
X107672000Y-55923571D01*
X107529143Y-55923571D01*
X107314857Y-55852143D01*
X107243428Y-55780714D01*
X107243428Y-55280714D01*
X107529143Y-55280714D01*
X106600571Y-55923571D02*
X106600571Y-54423571D01*
X105743428Y-55923571D01*
X105743428Y-54423571D01*
X105029142Y-55923571D02*
X105029142Y-54423571D01*
X104671999Y-54423571D01*
X104457714Y-54495000D01*
X104314856Y-54637857D01*
X104243428Y-54780714D01*
X104171999Y-55066429D01*
X104171999Y-55280714D01*
X104243428Y-55566429D01*
X104314856Y-55709286D01*
X104457714Y-55852143D01*
X104671999Y-55923571D01*
X105029142Y-55923571D01*
X108171999Y-51542143D02*
X107029142Y-51542143D01*
X107600571Y-52113571D02*
X107600571Y-50970714D01*
X106386285Y-50756429D02*
X106314856Y-50685000D01*
X106171999Y-50613571D01*
X105814856Y-50613571D01*
X105671999Y-50685000D01*
X105600570Y-50756429D01*
X105529142Y-50899286D01*
X105529142Y-51042143D01*
X105600570Y-51256429D01*
X106457713Y-52113571D01*
X105529142Y-52113571D01*
X104243428Y-51113571D02*
X104243428Y-52113571D01*
X104600571Y-50542143D02*
X104957714Y-51613571D01*
X104029142Y-51613571D01*
X142509285Y-90283571D02*
X143009285Y-89569286D01*
X143366428Y-90283571D02*
X143366428Y-88783571D01*
X142795000Y-88783571D01*
X142652142Y-88855000D01*
X142580714Y-88926429D01*
X142509285Y-89069286D01*
X142509285Y-89283571D01*
X142580714Y-89426429D01*
X142652142Y-89497857D01*
X142795000Y-89569286D01*
X143366428Y-89569286D01*
X140795000Y-88712143D02*
X142080714Y-90640714D01*
X139437856Y-90140714D02*
X139509285Y-90212143D01*
X139723571Y-90283571D01*
X139866428Y-90283571D01*
X140080713Y-90212143D01*
X140223571Y-90069286D01*
X140294999Y-89926429D01*
X140366428Y-89640714D01*
X140366428Y-89426429D01*
X140294999Y-89140714D01*
X140223571Y-88997857D01*
X140080713Y-88855000D01*
X139866428Y-88783571D01*
X139723571Y-88783571D01*
X139509285Y-88855000D01*
X139437856Y-88926429D01*
X137723571Y-90212143D02*
X137509285Y-90283571D01*
X137152142Y-90283571D01*
X137009285Y-90212143D01*
X136937856Y-90140714D01*
X136866428Y-89997857D01*
X136866428Y-89855000D01*
X136937856Y-89712143D01*
X137009285Y-89640714D01*
X137152142Y-89569286D01*
X137437856Y-89497857D01*
X137580714Y-89426429D01*
X137652142Y-89355000D01*
X137723571Y-89212143D01*
X137723571Y-89069286D01*
X137652142Y-88926429D01*
X137580714Y-88855000D01*
X137437856Y-88783571D01*
X137080714Y-88783571D01*
X136866428Y-88855000D01*
X135652143Y-90212143D02*
X135795000Y-90283571D01*
X136080714Y-90283571D01*
X136223571Y-90212143D01*
X136295000Y-90069286D01*
X136295000Y-89497857D01*
X136223571Y-89355000D01*
X136080714Y-89283571D01*
X135795000Y-89283571D01*
X135652143Y-89355000D01*
X135580714Y-89497857D01*
X135580714Y-89640714D01*
X136295000Y-89783571D01*
X134937857Y-90283571D02*
X134937857Y-89283571D01*
X134937857Y-89569286D02*
X134866429Y-89426429D01*
X134795000Y-89355000D01*
X134652143Y-89283571D01*
X134509286Y-89283571D01*
X134152143Y-89283571D02*
X133795000Y-90283571D01*
X133437858Y-89283571D01*
X132652143Y-90283571D02*
X132795001Y-90212143D01*
X132866429Y-90140714D01*
X132937858Y-89997857D01*
X132937858Y-89569286D01*
X132866429Y-89426429D01*
X132795001Y-89355000D01*
X132652143Y-89283571D01*
X132437858Y-89283571D01*
X132295001Y-89355000D01*
X132223572Y-89426429D01*
X132152143Y-89569286D01*
X132152143Y-89997857D01*
X132223572Y-90140714D01*
X132295001Y-90212143D01*
X132437858Y-90283571D01*
X132652143Y-90283571D01*
X146223572Y-92612143D02*
X146009286Y-92683571D01*
X145652143Y-92683571D01*
X145509286Y-92612143D01*
X145437857Y-92540714D01*
X145366429Y-92397857D01*
X145366429Y-92255000D01*
X145437857Y-92112143D01*
X145509286Y-92040714D01*
X145652143Y-91969286D01*
X145937857Y-91897857D01*
X146080715Y-91826429D01*
X146152143Y-91755000D01*
X146223572Y-91612143D01*
X146223572Y-91469286D01*
X146152143Y-91326429D01*
X146080715Y-91255000D01*
X145937857Y-91183571D01*
X145580715Y-91183571D01*
X145366429Y-91255000D01*
X144866429Y-91683571D02*
X144580715Y-92683571D01*
X144295001Y-91969286D01*
X144009286Y-92683571D01*
X143723572Y-91683571D01*
X143152143Y-92683571D02*
X143152143Y-91683571D01*
X143152143Y-91183571D02*
X143223572Y-91255000D01*
X143152143Y-91326429D01*
X143080715Y-91255000D01*
X143152143Y-91183571D01*
X143152143Y-91326429D01*
X142652143Y-91683571D02*
X142080714Y-91683571D01*
X142437857Y-91183571D02*
X142437857Y-92469286D01*
X142366429Y-92612143D01*
X142223571Y-92683571D01*
X142080714Y-92683571D01*
X140937857Y-92612143D02*
X141080714Y-92683571D01*
X141366428Y-92683571D01*
X141509286Y-92612143D01*
X141580714Y-92540714D01*
X141652143Y-92397857D01*
X141652143Y-91969286D01*
X141580714Y-91826429D01*
X141509286Y-91755000D01*
X141366428Y-91683571D01*
X141080714Y-91683571D01*
X140937857Y-91755000D01*
X140295000Y-92683571D02*
X140295000Y-91183571D01*
X139652143Y-92683571D02*
X139652143Y-91897857D01*
X139723572Y-91755000D01*
X139866429Y-91683571D01*
X140080714Y-91683571D01*
X140223572Y-91755000D01*
X140295000Y-91826429D01*
X137795000Y-92683571D02*
X137795000Y-91183571D01*
X137295000Y-92255000D01*
X136795000Y-91183571D01*
X136795000Y-92683571D01*
X135437857Y-92683571D02*
X135437857Y-91897857D01*
X135509286Y-91755000D01*
X135652143Y-91683571D01*
X135937857Y-91683571D01*
X136080714Y-91755000D01*
X135437857Y-92612143D02*
X135580714Y-92683571D01*
X135937857Y-92683571D01*
X136080714Y-92612143D01*
X136152143Y-92469286D01*
X136152143Y-92326429D01*
X136080714Y-92183571D01*
X135937857Y-92112143D01*
X135580714Y-92112143D01*
X135437857Y-92040714D01*
X134080714Y-92612143D02*
X134223571Y-92683571D01*
X134509285Y-92683571D01*
X134652143Y-92612143D01*
X134723571Y-92540714D01*
X134795000Y-92397857D01*
X134795000Y-91969286D01*
X134723571Y-91826429D01*
X134652143Y-91755000D01*
X134509285Y-91683571D01*
X134223571Y-91683571D01*
X134080714Y-91755000D01*
X133437857Y-92683571D02*
X133437857Y-91183571D01*
X132795000Y-92683571D02*
X132795000Y-91897857D01*
X132866429Y-91755000D01*
X133009286Y-91683571D01*
X133223571Y-91683571D01*
X133366429Y-91755000D01*
X133437857Y-91826429D01*
X132080714Y-92683571D02*
X132080714Y-91683571D01*
X132080714Y-91183571D02*
X132152143Y-91255000D01*
X132080714Y-91326429D01*
X132009286Y-91255000D01*
X132080714Y-91183571D01*
X132080714Y-91326429D01*
X131366428Y-91683571D02*
X131366428Y-92683571D01*
X131366428Y-91826429D02*
X131295000Y-91755000D01*
X131152142Y-91683571D01*
X130937857Y-91683571D01*
X130795000Y-91755000D01*
X130723571Y-91897857D01*
X130723571Y-92683571D01*
X129437857Y-92612143D02*
X129580714Y-92683571D01*
X129866428Y-92683571D01*
X130009285Y-92612143D01*
X130080714Y-92469286D01*
X130080714Y-91897857D01*
X130009285Y-91755000D01*
X129866428Y-91683571D01*
X129580714Y-91683571D01*
X129437857Y-91755000D01*
X129366428Y-91897857D01*
X129366428Y-92040714D01*
X130080714Y-92183571D01*
M02*
