G04 #@! TF.FileFunction,Copper,L1,Top,Signal*
%FSLAX46Y46*%
G04 Gerber Fmt 4.6, Leading zero omitted, Abs format (unit mm)*
G04 Created by KiCad (PCBNEW (2015-10-14 BZR 6269)-product) date Thursday, October 15, 2015 'PMt' 05:26:15 PM*
%MOMM*%
G01*
G04 APERTURE LIST*
%ADD10C,0.100000*%
%ADD11C,2.500000*%
%ADD12O,5.080000X3.175000*%
%ADD13R,1.500000X1.250000*%
%ADD14C,1.501140*%
%ADD15R,3.500120X1.800860*%
%ADD16R,1.597660X1.800860*%
%ADD17O,1.600000X1.600000*%
%ADD18R,1.727200X2.032000*%
%ADD19O,1.727200X2.032000*%
%ADD20O,0.899160X1.501140*%
%ADD21R,1.500000X1.300000*%
%ADD22R,1.300000X1.550000*%
%ADD23O,2.032000X2.540000*%
%ADD24C,1.016000*%
%ADD25C,0.304800*%
%ADD26C,1.270000*%
%ADD27C,0.635000*%
%ADD28C,2.540000*%
G04 APERTURE END LIST*
D10*
D11*
X107950000Y-85725000D03*
X113030000Y-85725000D03*
X118110000Y-85725000D03*
X125730000Y-85725000D03*
X125730000Y-78105000D03*
X118110000Y-78105000D03*
X113030000Y-78105000D03*
X107950000Y-78105000D03*
X107950000Y-100965000D03*
X113030000Y-100965000D03*
X118110000Y-100965000D03*
X125730000Y-100965000D03*
X125730000Y-93345000D03*
X118110000Y-93345000D03*
X113030000Y-93345000D03*
X107950000Y-93345000D03*
D12*
X100965000Y-51435000D03*
X100965000Y-55245000D03*
X100965000Y-59055000D03*
X100965000Y-62865000D03*
X100965000Y-66675000D03*
X100965000Y-70485000D03*
X100965000Y-74295000D03*
X100965000Y-78105000D03*
X100965000Y-81915000D03*
X100965000Y-85725000D03*
X100965000Y-89535000D03*
X100965000Y-93345000D03*
X100965000Y-97155000D03*
X100965000Y-100965000D03*
X100965000Y-104775000D03*
D13*
X129520000Y-59055000D03*
X127020000Y-59055000D03*
D14*
X111760000Y-58420000D03*
X111760000Y-55880000D03*
D13*
X123785000Y-56515000D03*
X121285000Y-56515000D03*
X126325000Y-64135000D03*
X123825000Y-64135000D03*
D15*
X132715000Y-90170000D03*
X137713720Y-90170000D03*
X132796280Y-95250000D03*
X137795000Y-95250000D03*
X118110000Y-60325000D03*
X123108720Y-60325000D03*
X111678720Y-51435000D03*
X106680000Y-51435000D03*
D16*
X139364720Y-69850000D03*
X136525000Y-69850000D03*
X139364720Y-80645000D03*
X136525000Y-80645000D03*
D15*
X106680000Y-62865000D03*
X111678720Y-62865000D03*
X106680000Y-67310000D03*
X111678720Y-67310000D03*
D17*
X123825000Y-74295000D03*
X126365000Y-74295000D03*
X128905000Y-74295000D03*
X131445000Y-74295000D03*
X131445000Y-66675000D03*
X128905000Y-66675000D03*
X126365000Y-66675000D03*
X123825000Y-66675000D03*
D18*
X133985000Y-52705000D03*
D19*
X136525000Y-52705000D03*
X139065000Y-52705000D03*
D20*
X132937555Y-85682351D03*
X134207555Y-85682351D03*
X131667555Y-85682351D03*
X138430000Y-60325000D03*
X139700000Y-60325000D03*
X137160000Y-60325000D03*
X116840000Y-67310000D03*
X118110000Y-67310000D03*
X115570000Y-67310000D03*
D21*
X133572555Y-81872351D03*
X130872555Y-81872351D03*
X129620000Y-61595000D03*
X126920000Y-61595000D03*
X130872555Y-79332351D03*
X133572555Y-79332351D03*
X134780000Y-61595000D03*
X132080000Y-61595000D03*
X132080000Y-59055000D03*
X134780000Y-59055000D03*
X126920000Y-56515000D03*
X129620000Y-56515000D03*
X137160000Y-64135000D03*
X139860000Y-64135000D03*
X137160000Y-66675000D03*
X139860000Y-66675000D03*
X137000000Y-74930000D03*
X139700000Y-74930000D03*
X137080000Y-77470000D03*
X139780000Y-77470000D03*
X131605000Y-64135000D03*
X128905000Y-64135000D03*
X114460000Y-70485000D03*
X111760000Y-70485000D03*
X119540000Y-70485000D03*
X116840000Y-70485000D03*
D22*
X147375000Y-72390000D03*
X142875000Y-72390000D03*
X142875000Y-64440000D03*
X147375000Y-64440000D03*
X147375000Y-83820000D03*
X142875000Y-83820000D03*
X142875000Y-75870000D03*
X147375000Y-75870000D03*
D23*
X121285000Y-53340000D03*
X123825000Y-53340000D03*
X118745000Y-53340000D03*
D24*
X137795000Y-93980000D03*
X114935000Y-61595000D03*
X125730000Y-64135000D03*
X138401998Y-64135000D03*
X138430000Y-73660000D03*
X138430000Y-79375000D03*
X135255000Y-63500000D03*
X132715000Y-64135000D03*
D25*
X132080000Y-61595000D02*
X129620000Y-61595000D01*
X129620000Y-61595000D02*
X129620000Y-59155000D01*
X129620000Y-59155000D02*
X129520000Y-59055000D01*
X140335000Y-57275000D02*
X139065000Y-56005000D01*
X139065000Y-56005000D02*
X139065000Y-52705000D01*
X147375000Y-64440000D02*
X147375000Y-64315000D01*
X147375000Y-64315000D02*
X140335000Y-57275000D01*
X121285000Y-56515000D02*
X121285000Y-57444800D01*
X121285000Y-57444800D02*
X122895200Y-59055000D01*
X122895200Y-59055000D02*
X125965200Y-59055000D01*
X125965200Y-59055000D02*
X127020000Y-59055000D01*
D26*
X138811000Y-50165000D02*
X121920000Y-50165000D01*
X121920000Y-50165000D02*
X121285000Y-50800000D01*
X121285000Y-50800000D02*
X121285000Y-53340000D01*
X139065000Y-52705000D02*
X139065000Y-50419000D01*
X139065000Y-50419000D02*
X138811000Y-50165000D01*
D27*
X137795000Y-93980000D02*
X137795000Y-95250000D01*
D25*
X123825000Y-66675000D02*
X123825000Y-64135000D01*
D27*
X147375000Y-72390000D02*
X147375000Y-64440000D01*
X147375000Y-75870000D02*
X147375000Y-72390000D01*
X147375000Y-83820000D02*
X147375000Y-75870000D01*
X131667555Y-85682351D02*
X131667555Y-82667351D01*
X131667555Y-82667351D02*
X130872555Y-81872351D01*
D25*
X111678720Y-67310000D02*
X115570000Y-67310000D01*
X111760000Y-70485000D02*
X111760000Y-67391280D01*
X111760000Y-67391280D02*
X111678720Y-67310000D01*
X127020000Y-59055000D02*
X127020000Y-56615000D01*
X127020000Y-56615000D02*
X126920000Y-56515000D01*
D26*
X121285000Y-56515000D02*
X113665000Y-56515000D01*
X113665000Y-56515000D02*
X111760000Y-58420000D01*
X121285000Y-56515000D02*
X121285000Y-53340000D01*
X111760000Y-58420000D02*
X108585000Y-55245000D01*
X108585000Y-55245000D02*
X100965000Y-55245000D01*
D27*
X106680000Y-62865000D02*
X107529630Y-62865000D01*
X107529630Y-62865000D02*
X109065060Y-61329570D01*
X109065060Y-61329570D02*
X114669570Y-61329570D01*
X114669570Y-61329570D02*
X114935000Y-61595000D01*
X132715000Y-90170000D02*
X130175000Y-90170000D01*
X130175000Y-90170000D02*
X125730000Y-85725000D01*
X132715000Y-90170000D02*
X132715000Y-91705430D01*
X132715000Y-91705430D02*
X125730000Y-98690430D01*
X125730000Y-98690430D02*
X125730000Y-99197234D01*
X125730000Y-99197234D02*
X125730000Y-100965000D01*
D26*
X111760000Y-55880000D02*
X111760000Y-51516280D01*
X111760000Y-51516280D02*
X111678720Y-51435000D01*
X111678720Y-51435000D02*
X116840000Y-51435000D01*
X116840000Y-51435000D02*
X118745000Y-53340000D01*
D25*
X126325000Y-64135000D02*
X125730000Y-64135000D01*
D26*
X129540000Y-53340000D02*
X127861677Y-53340000D01*
X127861677Y-53340000D02*
X123825000Y-53340000D01*
D25*
X132080000Y-59055000D02*
X131980000Y-59055000D01*
X128022401Y-53500724D02*
X127861677Y-53340000D01*
X131980000Y-59055000D02*
X130442401Y-57517401D01*
X130442401Y-57517401D02*
X128588079Y-57517401D01*
X128588079Y-57517401D02*
X128022401Y-56951723D01*
X128022401Y-56951723D02*
X128022401Y-53500724D01*
D26*
X131445000Y-55245000D02*
X129540000Y-53340000D01*
X136271000Y-55245000D02*
X131445000Y-55245000D01*
X136525000Y-52705000D02*
X136525000Y-54991000D01*
X136525000Y-54991000D02*
X136271000Y-55245000D01*
D25*
X137160000Y-64135000D02*
X138401998Y-64135000D01*
X124977401Y-66412399D02*
X126325000Y-65064800D01*
X123825000Y-72946090D02*
X124977401Y-71793689D01*
X126325000Y-65064800D02*
X126325000Y-64135000D01*
X124977401Y-71793689D02*
X124977401Y-66412399D01*
X123825000Y-74295000D02*
X123825000Y-72946090D01*
X138430000Y-73660000D02*
X138430000Y-70784720D01*
X138430000Y-70784720D02*
X139364720Y-69850000D01*
X138430000Y-73660000D02*
X138270000Y-73660000D01*
X138270000Y-73660000D02*
X137000000Y-74930000D01*
X139364720Y-80645000D02*
X139364720Y-80309720D01*
X139364720Y-80309720D02*
X138430000Y-79375000D01*
D26*
X123785000Y-56515000D02*
X123785000Y-53380000D01*
X123785000Y-53380000D02*
X123825000Y-53340000D01*
D27*
X128270000Y-85491930D02*
X128270000Y-80645000D01*
X128270000Y-80645000D02*
X125730000Y-78105000D01*
X130291535Y-87513465D02*
X128270000Y-85491930D01*
X134207555Y-87513465D02*
X130291535Y-87513465D01*
X123190000Y-93345000D02*
X125730000Y-93345000D01*
X122555000Y-93980000D02*
X123190000Y-93345000D01*
X122555000Y-95250000D02*
X122555000Y-93980000D01*
X122555000Y-102235000D02*
X122555000Y-95250000D01*
X123825000Y-103505000D02*
X122555000Y-102235000D01*
X130175000Y-103505000D02*
X123825000Y-103505000D01*
X132796280Y-100883720D02*
X130175000Y-103505000D01*
X132796280Y-95250000D02*
X132796280Y-100883720D01*
X137713720Y-90170000D02*
X136864090Y-90170000D01*
X136864090Y-90170000D02*
X134207555Y-87513465D01*
X134207555Y-87513465D02*
X134207555Y-87067921D01*
X134207555Y-87067921D02*
X134207555Y-85682351D01*
X132796280Y-95250000D02*
X133645910Y-95250000D01*
X133645910Y-95250000D02*
X137713720Y-91182190D01*
X137713720Y-91182190D02*
X137713720Y-90170000D01*
D25*
X118110000Y-60325000D02*
X102235000Y-60325000D01*
X102235000Y-60325000D02*
X100965000Y-59055000D01*
X123108720Y-60325000D02*
X126604800Y-60325000D01*
X126604800Y-60325000D02*
X126920000Y-60640200D01*
X126920000Y-60640200D02*
X126920000Y-61595000D01*
D26*
X100965000Y-51435000D02*
X106680000Y-51435000D01*
D25*
X136525000Y-69850000D02*
X136525000Y-67310000D01*
X136525000Y-67310000D02*
X137160000Y-66675000D01*
X136525000Y-80645000D02*
X136525000Y-78025000D01*
X136525000Y-78025000D02*
X137080000Y-77470000D01*
X118110000Y-67310000D02*
X118110000Y-66254630D01*
X118110000Y-66254630D02*
X114720370Y-62865000D01*
X113733580Y-62865000D02*
X111678720Y-62865000D01*
X114720370Y-62865000D02*
X113733580Y-62865000D01*
D27*
X106680000Y-67310000D02*
X105830370Y-67310000D01*
X105830370Y-67310000D02*
X101385370Y-62865000D01*
X101385370Y-62865000D02*
X100965000Y-62865000D01*
X111678720Y-62865000D02*
X110829090Y-62865000D01*
X110829090Y-62865000D02*
X106680000Y-67014090D01*
X106680000Y-67014090D02*
X106680000Y-67310000D01*
D25*
X128905000Y-64135000D02*
X127850200Y-64135000D01*
X127850200Y-64135000D02*
X127517401Y-64467799D01*
X127517401Y-64467799D02*
X127517401Y-73142599D01*
X127517401Y-73142599D02*
X127164999Y-73495001D01*
X127164999Y-73495001D02*
X126365000Y-74295000D01*
X142875000Y-75870000D02*
X142875000Y-83820000D01*
X142875000Y-75870000D02*
X140640000Y-75870000D01*
X140640000Y-75870000D02*
X139700000Y-74930000D01*
X139700000Y-74930000D02*
X139700000Y-77390000D01*
X139700000Y-77390000D02*
X139780000Y-77470000D01*
X128905000Y-74295000D02*
X128905000Y-75426370D01*
X128905000Y-75426370D02*
X129411031Y-75932401D01*
X129411031Y-75932401D02*
X138597599Y-75932401D01*
X138597599Y-75932401D02*
X139600000Y-74930000D01*
X139600000Y-74930000D02*
X139700000Y-74930000D01*
X135255000Y-63500000D02*
X135762999Y-62992001D01*
X135762999Y-62992001D02*
X137333989Y-62992001D01*
X137333989Y-62992001D02*
X139700000Y-60625990D01*
X139700000Y-60625990D02*
X139700000Y-60325000D01*
X139700000Y-60325000D02*
X139700000Y-59269630D01*
X139700000Y-59269630D02*
X136945370Y-56515000D01*
X136945370Y-56515000D02*
X130674800Y-56515000D01*
X130674800Y-56515000D02*
X129620000Y-56515000D01*
X139860000Y-65341116D02*
X139860000Y-66675000D01*
X139860000Y-64135000D02*
X139860000Y-65341116D01*
X139860000Y-65341116D02*
X132778884Y-65341116D01*
X132778884Y-65341116D02*
X131445000Y-66675000D01*
X142875000Y-64440000D02*
X140165000Y-64440000D01*
X140165000Y-64440000D02*
X139860000Y-64135000D01*
X142875000Y-72390000D02*
X142875000Y-64440000D01*
X120650000Y-65300678D02*
X119540000Y-66410678D01*
X119540000Y-66410678D02*
X119540000Y-70485000D01*
X130007401Y-63332401D02*
X129807599Y-63132599D01*
X129807599Y-63132599D02*
X122818079Y-63132599D01*
X122818079Y-63132599D02*
X120650000Y-65300678D01*
X128905000Y-66675000D02*
X130007401Y-65572599D01*
X130007401Y-65572599D02*
X130007401Y-63332401D01*
X125212599Y-72272401D02*
X126365000Y-71120000D01*
X126365000Y-71120000D02*
X126365000Y-66675000D01*
X126441643Y-76077197D02*
X125212599Y-74848153D01*
X127517401Y-76077197D02*
X126441643Y-76077197D01*
X125212599Y-74848153D02*
X125212599Y-72272401D01*
X130872555Y-79332351D02*
X130772555Y-79332351D01*
X130772555Y-79332351D02*
X127517401Y-76077197D01*
D28*
X103859438Y-81915000D02*
X100965000Y-81915000D01*
X107669438Y-85725000D02*
X103859438Y-81915000D01*
X107950000Y-85725000D02*
X107669438Y-85725000D01*
X108369398Y-82550000D02*
X114935000Y-82550000D01*
X114935000Y-82550000D02*
X118110000Y-85725000D01*
X100965000Y-78105000D02*
X103924398Y-78105000D01*
X103924398Y-78105000D02*
X108369398Y-82550000D01*
X106045000Y-104775000D02*
X100965000Y-104775000D01*
X107950000Y-102870000D02*
X106045000Y-104775000D01*
X107950000Y-100965000D02*
X107950000Y-102870000D01*
X113030000Y-100965000D02*
X109220000Y-97155000D01*
X109220000Y-97155000D02*
X100965000Y-97155000D01*
X100965000Y-89535000D02*
X114300000Y-89535000D01*
X114300000Y-89535000D02*
X118110000Y-93345000D01*
D25*
X132715000Y-64135000D02*
X131605000Y-64135000D01*
D27*
X133572555Y-81872351D02*
X133572555Y-79332351D01*
X132937555Y-85682351D02*
X132937555Y-82507351D01*
X132937555Y-82507351D02*
X133572555Y-81872351D01*
D25*
X134780000Y-59055000D02*
X137460990Y-59055000D01*
X137460990Y-59055000D02*
X138430000Y-60024010D01*
X138430000Y-60024010D02*
X138430000Y-60325000D01*
X134780000Y-61595000D02*
X134780000Y-59055000D01*
X116840000Y-70485000D02*
X114460000Y-70485000D01*
X116840000Y-70485000D02*
X116840000Y-67310000D01*
M02*
