M48
;DRILL file {KiCad (2015-10-14 BZR 6269)-product} date Thursday, October 15, 2015 'PMt' 05:26:47 PM
;FORMAT={-:-/ absolute / inch / decimal}
FMAT,2
INCH,TZ
T1C0.022
T2C0.024
T3C0.030
T4C0.031
T5C0.032
T6C0.040
T7C0.045
T8C0.055
T9C0.138
%
G90
G05
M72
T1
X4.525Y-2.425
X4.95Y-2.525
X5.225Y-2.525
X5.325Y-2.5
X5.425Y-3.7
X5.4489Y-2.525
X5.45Y-2.9
X5.45Y-3.125
T2
X4.55Y-2.65
X4.6Y-2.65
X4.65Y-2.65
X5.1838Y-3.3733
X5.2338Y-3.3733
X5.2838Y-3.3733
X5.4Y-2.375
X5.45Y-2.375
X5.5Y-2.375
T3
X4.25Y-3.075
X4.25Y-3.375
X4.25Y-3.675
X4.25Y-3.975
X4.45Y-3.075
X4.45Y-3.375
X4.45Y-3.675
X4.45Y-3.975
X4.65Y-3.075
X4.65Y-3.375
X4.65Y-3.675
X4.65Y-3.975
X4.95Y-3.075
X4.95Y-3.375
X4.95Y-3.675
X4.95Y-3.975
T4
X4.875Y-2.625
X4.875Y-2.925
X4.975Y-2.625
X4.975Y-2.925
X5.075Y-2.625
X5.075Y-2.925
X5.175Y-2.625
X5.175Y-2.925
T5
X4.4Y-2.2
X4.4Y-2.3
T6
X5.275Y-2.075
X5.375Y-2.075
X5.475Y-2.075
T7
X4.675Y-2.1
X4.775Y-2.1
X4.875Y-2.1
T8
X3.975Y-2.025
X3.975Y-2.175
X3.975Y-2.325
X3.975Y-2.475
X3.975Y-2.625
X3.975Y-2.775
X3.975Y-2.925
X3.975Y-3.075
X3.975Y-3.225
X3.975Y-3.375
X3.975Y-3.525
X3.975Y-3.675
X3.975Y-3.825
X3.975Y-3.975
X3.975Y-4.125
T9
X5.75Y-2.175
X5.75Y-3.975
T0
M30
